<?xml version="1.0" encoding="UTF-8"?>
<svg width="24px" height="24px"  version="1.1" xmlns="http://www.w3.org/2000/svg" xmlns:xlink="http://www.w3.org/1999/xlink">
    <!-- Generator: Sketch 52.6 (67491) - http://www.bohemiancoding.com/sketch -->
    <title>Universe/ic_beauty_thematic</title>
    <desc>Created with Sketch.</desc>
    <g id="Universe/ic_beauty_thematic" stroke="none" stroke-width="1" fill="none" fill-rule="evenodd">
        <path d="M16.9632182,17.9346 C15.2740628,18.0566 13.9867065,17.4046 13.2140928,16.8526 C14.4024986,16.6596 16.2805596,16.0986 18.1166415,14.5116 C19.3750123,14.7846 20.3265366,15.5766 20.7543227,15.9986 C20.3025486,16.5696 19.0971513,17.7886 16.9632182,17.9346 Z M12.0166915,20.8336 C11.4509744,20.4366 10.5004496,19.6256 10.5004496,18.9356 C10.5004496,18.5896 11.2670663,17.9966 12.01969,17.6236 C12.5334331,17.8406 13.4389804,18.3576 13.4969514,19.0246 C13.5509244,19.6336 12.6443777,20.4166 12.0166915,20.8336 Z M7.03618176,17.9346 C4.88925522,17.7876 3.69285342,16.5726 3.24307831,15.9986 C3.67386292,15.5726 4.64037966,14.7646 5.93073448,14.5006 C7.75981994,16.0876 9.6128934,16.6536 10.7883057,16.8506 C10.01969,17.4016 8.73833068,18.0546 7.03618176,17.9346 Z M3.96071949,7.9706 C4.90924523,7.9046 7.54692639,8.0086 9.73383293,10.6026 C10.9892052,12.0926 11.3910043,13.7126 11.5049474,14.8596 C11.4619689,15.2886 11.4549724,15.6546 11.4629684,15.9346 C10.4884556,15.8376 8.28255857,15.4016 6.21059455,13.4136 C4.0126935,11.3036 3.90974498,8.8796 3.96071949,7.9706 Z M11.991704,4.1216 C12.6373812,4.5366 14.5074461,5.9966 14.4984506,9.0076 C14.181609,9.2906 13.8667665,9.6006 13.5599199,9.9646 C12.8192902,10.8436 12.3395301,11.7556 12.0246875,12.6116 C11.7158419,11.7546 11.2410793,10.8436 10.5004496,9.9646 C10.175612,9.5806 9.84177896,9.2526 9.50594688,8.9576 C9.54892539,5.8896 11.3520238,4.5126 11.991704,4.1216 Z M19.6568714,7.9546 C19.805797,7.9546 19.935732,7.9596 20.043678,7.9676 C20.1046475,8.8666 20.035682,11.3156 17.849775,13.4136 C15.7768114,15.4026 13.5359319,15.8386 12.5464266,15.9346 C12.5584206,15.6546 12.5564216,15.2906 12.5194401,14.8646 C12.6493752,13.7166 13.0691653,12.0956 14.3265366,10.6026 C16.2755621,8.2896 18.5184406,7.9546 19.6568714,7.9546 Z M21.7838079,15.6436 C21.7328334,15.5806 20.6683657,14.2976 18.9432282,13.7086 C21.5839079,10.8246 21.0141928,7.5736 20.9862067,7.4306 L20.9242377,7.1006 L20.5924036,7.0356 C20.4634681,7.0076 18.015692,6.5686 15.4649674,8.2556 C15.1311343,4.5876 12.3485256,3.1686 12.2225886,3.1066 L12.0066965,2.9996 L11.7878059,3.1006 C11.6638679,3.1596 8.90924523,4.4806 8.54142914,8.2256 C5.993703,6.5756 3.53793088,7.0116 3.40799585,7.0346 L3.07016477,7.1006 L3.01119425,7.4396 C2.98720625,7.5816 2.47546212,10.8156 5.10014978,13.6916 C3.34802584,14.2726 2.26656657,15.5806 2.21559205,15.6436 L1.9997,15.9096 L2.17161404,16.2036 C2.23058456,16.3056 3.65787091,18.6976 6.96821574,18.9246 C7.12313828,18.9356 7.27606182,18.9406 7.42598686,18.9406 C8.22458756,18.9406 8.93823073,18.7896 9.56991489,18.5736 C9.53193388,18.6916 9.50094938,18.8116 9.50094938,18.9356 C9.50094938,20.4426 11.5189404,21.7076 11.7478259,21.8466 L12.0006995,21.9996 L12.2575711,21.8536 C12.5004496,21.7156 14.6273862,20.4576 14.4924536,18.9366 C14.4814591,18.8026 14.4384806,18.6836 14.3995001,18.5616 C15.0381808,18.7846 15.7618189,18.9406 16.5734131,18.9406 C16.7243377,18.9406 16.8762617,18.9356 17.0311843,18.9246 C20.3415291,18.6976 21.7698149,16.3056 21.827786,16.2036 L21.9997,15.9096 L21.7838079,15.6436 Z" id="ic_beauty_thematic" fill="currentColor"></path>
        <rect id="Padding" x="0" y="0" width="24" height="24"></rect>
    </g>
</svg>