<?xml version="1.0" encoding="UTF-8"?>
<svg width="24px" height="24px"  version="1.1" xmlns="http://www.w3.org/2000/svg" xmlns:xlink="http://www.w3.org/1999/xlink">
    <!-- Generator: Sketch 52.6 (67491) - http://www.bohemiancoding.com/sketch -->
    <title>Universe/ic_camping_thematic</title>
    <desc>Created with Sketch.</desc>
    <g id="Universe/ic_camping_thematic" stroke="none" stroke-width="1" fill="none" fill-rule="evenodd">
        <path d="M9.0146,17.9902 L14.9856,17.9902 C14.9246,16.9492 14.6886,16.0842 14.4906,15.9902 L9.5056,15.9922 C9.3076,16.0972 9.0756,16.9572 9.0146,17.9902 Z M14.4996,14.9922 C15.8536,14.9922 15.9996,17.4382 15.9996,18.4902 C15.9996,18.7662 15.7766,18.9902 15.4996,18.9902 L8.4996,18.9902 C8.2236,18.9902 7.9996,18.7662 7.9996,18.4902 C7.9996,17.4382 8.1466,14.9922 9.4996,14.9922 L14.4996,14.9922 Z M18.249,20.6865 C18.671,20.4145 19,18.7485 19,17.9905 C19,17.7405 18.666,16.3845 18.445,15.4895 C18.257,14.7265 18.077,13.9965 18,13.5855 C17.871,12.9025 17.276,12.0285 17.008,11.6815 C16.665,11.7685 16.307,11.8335 15.982,11.8815 L15.982,13.4715 C15.982,13.7485 15.759,13.9715 15.482,13.9715 C15.206,13.9715 14.982,13.7485 14.982,13.4715 L14.982,11.9925 L9.019,11.9945 L9.019,13.4715 C9.019,13.7485 8.795,13.9715 8.519,13.9715 C8.242,13.9715 8.019,13.7485 8.019,13.4715 L8.019,11.9215 C7.676,11.8845 7.297,11.8285 6.94,11.7475 C6.651,12.1305 6.112,12.9445 5.991,13.5855 C5.914,13.9945 5.737,14.7205 5.552,15.4795 C5.332,16.3785 5,17.7395 5,17.9905 C5,18.7485 5.329,20.4145 5.778,20.7025 C6.686,21.0795 17.314,21.0795 18.249,20.6865 Z M7.5,5.9985 C7.015,6.3345 6.258,9.9905 6.619,10.6355 C6.837,10.7555 7.428,10.8545 8.019,10.9185 L8.019,5.9985 L7.5,5.9985 Z M10,4.4995 L10,4.9985 L14,4.9985 L14,4.4995 C14,3.6155 12.946,2.9995 12,2.9995 C11.054,2.9995 10,3.6155 10,4.4995 Z M9.019,10.9955 L14.983,10.9955 L14.983,5.9985 L9.019,5.9985 L9.019,10.9955 Z M17.053,7.2585 C16.804,6.3845 16.558,6.0645 16.466,5.9985 L15.982,5.9985 L15.982,10.8725 C16.555,10.7805 17.144,10.6475 17.407,10.4855 C17.496,10.2875 17.481,8.7575 17.053,7.2585 Z M19.416,15.2495 C19.779,16.7235 20,17.6445 20,17.9905 C20,18.0175 19.888,20.8215 18.761,21.5425 C18.287,21.8475 15.145,21.9995 12.001,21.9995 C8.856,21.9995 5.713,21.8475 5.238,21.5425 C4.112,20.8215 4,18.0175 4,17.9905 C4,17.6445 4.22,16.7205 4.58,15.2435 C4.761,14.5035 4.934,13.7975 5.009,13.4005 C5.151,12.6425 5.651,11.8385 5.975,11.3775 C5.01,10.6425 5.978,7.1495 5.989,7.1135 C6.396,5.6705 6.877,4.9985 7.5,4.9985 L9,4.9985 L9,4.4995 C9,3.0035 10.551,1.9995 12,1.9995 C13.449,1.9995 15,3.0035 15,4.4995 L15,4.9985 L16.5,4.9985 C17.142,4.9985 17.64,5.6575 18.022,7.0115 C18.033,7.0475 18.971,10.5745 17.971,11.3025 C18.286,11.7465 18.832,12.6005 18.982,13.4005 C19.058,13.7985 19.233,14.5085 19.416,15.2495 Z" id="ic_camping_thematic" fill="currentColor"></path>
        <rect id="Padding" x="0" y="0" width="24" height="24"></rect>
    </g>
</svg>
