<?xml version="1.0" encoding="UTF-8"?>
<svg width="24px" height="24px"  version="1.1" xmlns="http://www.w3.org/2000/svg" xmlns:xlink="http://www.w3.org/1999/xlink">
    <!-- Generator: Sketch 52.6 (67491) - http://www.bohemiancoding.com/sketch -->
    <title>Universe/ic_clothing_thematic</title>
    <desc>Created with Sketch.</desc>
    <g id="Universe/ic_clothing_thematic" stroke="none" stroke-width="1" fill="none" fill-rule="evenodd">
        <path d="M15.5004,8 C15.7764,8 16.0004,8.225 16.0004,8.503 C16.0004,8.781 15.7764,9.006 15.5004,9.006 L13.5004,9.006 C13.2244,9.006 13.0004,8.781 13.0004,8.503 C13.0004,8.225 13.2244,8 13.5004,8 L15.5004,8 Z M18.6713,9.2803 L20.8663,8.1763 C20.1503,6.5403 18.5213,4.5513 18.1903,4.2873 C17.3803,3.6953 16.0973,3.6343 15.1593,3.5883 C15.0923,3.5853 15.0403,3.5813 14.9783,3.5783 C14.9013,4.0153 14.5793,4.9573 13.5813,5.6443 C13.4113,5.7623 12.9603,6.0723 12.9003,6.1923 C13.0493,6.4273 12.9903,6.7103 12.7583,6.8593 C12.6823,6.9093 12.5983,6.9303 12.5163,6.9303 C12.3463,6.9303 12.1783,6.8353 12.0783,6.6773 C12.0413,6.6193 12.0253,6.5643 12.0003,6.5093 C11.9763,6.5643 11.9593,6.6193 11.9223,6.6773 C11.8273,6.8283 11.6653,6.9113 11.5003,6.9113 C11.4083,6.9113 11.3163,6.8843 11.2323,6.8323 C10.9993,6.6823 10.9303,6.3723 11.0783,6.1373 C11.0413,6.0653 10.5973,5.7603 10.4303,5.6443 C9.4763,4.9873 9.1333,4.0853 9.0363,3.6313 C8.9203,3.6403 8.8133,3.6513 8.6813,3.6613 C7.7713,3.7303 6.5253,3.8273 5.7713,4.3153 C5.3583,4.6113 3.8303,6.2933 3.1163,8.1673 L5.3433,9.2873 L6.0953,8.2383 C6.2223,8.0623 6.4463,7.9853 6.6533,8.0523 C6.8603,8.1203 7.0003,8.3133 7.0003,8.5313 L7.0003,19.7463 C7.4763,20.0913 9.0953,21.0433 12.0343,20.9923 C14.9853,20.9423 16.5243,20.0673 17.0003,19.7383 L17.0003,8.4203 C17.0003,8.1973 17.1453,8.0023 17.3563,7.9383 C17.5683,7.8743 17.7943,7.9573 17.9163,8.1403 L18.6713,9.2803 Z M13.6293,3.2283 C13.2323,2.9293 10.7633,2.9303 10.3463,3.2493 C10.2783,3.3463 10.1623,3.4103 10.0243,3.4633 C10.0863,3.7113 10.3043,4.3393 10.9943,4.8153 C11.3813,5.0823 11.8183,5.3883 12.0033,5.7703 C12.1913,5.3903 12.6283,5.0823 13.0173,4.8153 C13.7333,4.3223 13.9353,3.6633 13.9843,3.4393 C13.8453,3.3903 13.7213,3.3283 13.6293,3.2283 Z M21.9723,8.2543 C22.0553,8.4923 21.9493,8.7573 21.7243,8.8693 L18.7243,10.3793 C18.5003,10.4903 18.2253,10.4203 18.0843,10.2083 L18.0003,10.0813 L18.0003,19.9883 C18.0003,20.1293 17.9423,20.2623 17.8383,20.3583 C17.7693,20.4223 16.0943,21.9283 12.0523,21.9983 C11.9693,21.9993 11.8873,22.0003 11.8063,22.0003 C7.9233,22.0003 6.2283,20.4213 6.1553,20.3523 C6.0573,20.2573 6.0003,20.1263 6.0003,19.9883 L6.0003,10.0913 L5.9053,10.2223 C5.7623,10.4233 5.4933,10.4883 5.2763,10.3793 L2.2763,8.8693 C2.0573,8.7593 1.9493,8.5053 2.0233,8.2693 C2.7273,6.0013 4.5893,3.9263 5.2113,3.4823 C6.1953,2.8433 7.5883,2.7363 8.6053,2.6583 C9.0003,2.6283 9.5413,2.5863 9.6703,2.5203 C9.6693,2.5203 9.6333,2.5393 9.5963,2.5903 C10.1053,2.0703 11.3053,1.9703 12.0243,2.0073 C12.7003,2.0093 13.9033,2.0793 14.3513,2.5333 C14.4113,2.5453 14.8533,2.5653 15.2083,2.5833 C16.2713,2.6343 17.7273,2.7053 18.7943,3.4863 C19.3303,3.9123 21.3293,6.4093 21.9723,8.2543 Z" id="ic_clothing_thematic" fill="currentColor"></path>
        <rect id="Padding" x="0" y="0" width="24" height="24"></rect>
    </g>
</svg>