<?xml version="1.0" encoding="UTF-8"?>
<svg width="24px" height="24px"  version="1.1" xmlns="http://www.w3.org/2000/svg" xmlns:xlink="http://www.w3.org/1999/xlink">
    <!-- Generator: Sketch 52.6 (67491) - http://www.bohemiancoding.com/sketch -->
    <title>Universe/ic_crafts_garden_thematic</title>
    <desc>Created with Sketch.</desc>
    <g id="Universe/ic_crafts_garden_thematic" stroke="none" stroke-width="1" fill="none" fill-rule="evenodd">
        <path d="M10.1025,13.7886 C10.2995,13.5966 10.6185,13.6006 10.8095,13.7986 C11.0015,13.9966 10.9985,14.3126 10.7995,14.5056 L5.3005,19.8546 C5.2045,19.9496 5.0785,19.9966 4.9525,19.9966 C4.8225,19.9966 4.6915,19.9456 4.5935,19.8456 C4.4015,19.6466 4.4055,19.3306 4.6035,19.1386 L10.1025,13.7886 Z M19.6523,20.0689 L20.7833,18.9679 L9.4923,7.9849 L8.3613,9.0849 L11.2553,11.8989 C11.2583,11.9029 11.2643,11.9019 11.2683,11.9059 L12.6123,13.2139 C12.6163,13.2169 12.6153,13.2229 12.6193,13.2259 L19.6523,20.0689 Z M10.2273,16.0409 L11.6313,13.6609 L10.8483,12.8989 L8.4953,14.3749 L3.6093,19.1279 L5.3323,20.8029 L10.2273,16.0409 Z M3.6993,12.2199 L10.6443,5.4639 L8.3153,3.1979 L6.8023,4.6699 C6.7983,4.6729 6.7983,4.6779 6.7943,4.6819 L4.9463,6.4789 C4.9433,6.4819 4.9383,6.4829 4.9353,6.4859 L3.7043,7.6839 C3.8793,8.1199 4.1313,8.9099 4.0743,9.7219 L4.0743,9.7229 C4.0313,10.3209 3.6933,11.0679 3.1843,11.7199 L3.6993,12.2199 Z M3.7133,4.5619 L4.5953,5.4219 L5.7263,4.3219 L4.8433,3.4629 L3.7133,4.5619 Z M20.0353,4.2329 L18.5173,5.7079 L18.5213,6.3169 L19.2563,6.3719 L20.7463,4.9239 L20.0353,4.2329 Z M21.8483,18.6099 C21.9453,18.7039 22.0003,18.8339 22.0003,18.9679 C22.0003,19.1029 21.9453,19.2329 21.8483,19.3269 L20.0013,21.1249 C19.9043,21.2189 19.7783,21.2659 19.6523,21.2659 C19.5263,21.2659 19.4003,21.2189 19.3033,21.1249 L12.3693,14.3779 L11.0543,16.6059 C11.0323,16.6439 11.0053,16.6789 10.9723,16.7109 L5.6803,21.8589 C5.5843,21.9539 5.4583,22.0009 5.3323,22.0009 C5.2063,22.0009 5.0803,21.9539 4.9833,21.8589 L2.5443,19.4859 C2.4473,19.3919 2.3923,19.2619 2.3923,19.1279 C2.3923,18.9929 2.4473,18.8629 2.5443,18.7689 L7.8363,13.6209 C7.8613,13.5959 7.8883,13.5739 7.9193,13.5549 L10.1103,12.1809 L7.6413,9.7799 L4.0483,13.2759 C3.9513,13.3709 3.8253,13.4179 3.6993,13.4179 C3.5733,13.4179 3.4473,13.3709 3.3503,13.2759 L2.1513,12.1099 C1.9553,11.9199 1.9493,11.6069 2.1363,11.4079 C2.7153,10.7969 3.0473,10.0619 3.0763,9.6519 C3.1403,8.7439 2.6673,7.8059 2.6623,7.7969 C2.5613,7.6009 2.6003,7.3629 2.7573,7.2099 L3.8793,6.1189 L2.6473,4.9209 C2.5503,4.8269 2.4963,4.6969 2.4963,4.5619 C2.4963,4.4269 2.5503,4.2979 2.6473,4.2039 L4.4953,2.4069 C4.6883,2.2169 4.9993,2.2169 5.1923,2.4069 L6.4433,3.6249 L7.9663,2.1419 C8.1603,1.9529 8.4703,1.9529 8.6643,2.1419 L11.7103,5.1049 C11.8063,5.1989 11.8613,5.3289 11.8613,5.4639 C11.8613,5.5979 11.8063,5.7279 11.7103,5.8219 L10.2063,7.2849 L13.4983,10.4869 L17.5233,6.5689 L17.5153,5.5019 C17.5143,5.3649 17.5693,5.2339 17.6673,5.1389 L19.6863,3.1769 C19.8813,2.9879 20.1903,2.9879 20.3833,3.1769 L21.8113,4.5659 C21.9083,4.6599 21.9633,4.7899 21.9633,4.9239 C21.9633,5.0589 21.9083,5.1889 21.8113,5.2829 L19.7923,7.2459 C19.6983,7.3369 19.5733,7.3869 19.4433,7.3869 C19.4303,7.3869 19.4183,7.3869 19.4063,7.3859 L18.2103,7.2969 L14.2153,11.1839 L21.8483,18.6099 Z" id="ic_crafts_garden_thematic" fill="currentColor"></path>
        <rect id="Padding" x="0" y="0" width="24" height="24"></rect>
    </g>
</svg>
