<?xml version="1.0" encoding="UTF-8"?>
<svg width="24px" height="24px"  version="1.1" xmlns="http://www.w3.org/2000/svg" xmlns:xlink="http://www.w3.org/1999/xlink">
    <!-- Generator: Sketch 52.6 (67491) - http://www.bohemiancoding.com/sketch -->
    <title>Universe/ic_cruise_thematic</title>
    <desc>Created with Sketch.</desc>
    <g id="Universe/ic_cruise_thematic" stroke="none" stroke-width="1" fill="none" fill-rule="evenodd">
        <path d="M15.0386,19.002 C15.3766,19.028 15.7086,19.171 16.0556,19.418 L18.8626,12.727 L12.4996,9.333 L12.4996,20.859 C12.7136,20.74 12.9036,20.547 13.0616,20.259 C13.5736,19.398 14.2866,18.927 15.0386,19.002 Z M10.9306,20.245 C11.0926,20.54 11.2836,20.735 11.4996,20.856 L11.4996,9.333 L5.1376,12.727 L7.9446,19.417 C8.2886,19.172 8.6216,19.028 8.9606,19.002 C9.7196,18.932 10.4276,19.398 10.9306,20.245 Z M6.9996,6.5 L6.9996,10.6 L11.7646,8.059 C11.9126,7.981 12.0876,7.981 12.2356,8.059 L16.9996,10.6 L16.9996,6.5 C16.9996,6.225 16.7756,6 16.4996,6 L7.4996,6 C7.2246,6 6.9996,6.225 6.9996,6.5 Z M9.9996,3.5 L9.9996,5 L13.9996,5 L13.9996,3.5 C13.9996,3.225 13.7756,3 13.4996,3 L10.4996,3 C10.2246,3 9.9996,3.225 9.9996,3.5 Z M19.8536,20.147 C20.0486,20.342 20.0486,20.658 19.8536,20.854 C18.6586,22.049 17.3416,22.049 16.1466,20.854 C15.6426,20.288 15.2716,20.023 14.9606,19.998 C14.6176,19.975 14.2316,20.247 13.9306,20.755 C13.3746,21.766 12.5776,21.991 12.0076,22 C11.4226,21.991 10.6256,21.766 10.0616,20.741 C9.7686,20.247 9.3796,19.976 9.0386,19.998 C8.7286,20.023 8.3576,20.288 7.8736,20.832 C6.6586,22.05 5.3426,22.05 4.1466,20.854 C3.9516,20.658 3.9516,20.342 4.1466,20.147 C4.3416,19.951 4.6586,19.951 4.8536,20.147 C5.6576,20.949 6.3426,20.949 7.1466,20.147 C7.1576,20.134 7.1676,20.126 7.1796,20.113 C7.1536,20.08 7.1256,20.049 7.1086,20.009 L4.0386,12.693 C3.9386,12.455 4.0376,12.181 4.2646,12.059 L6.0246,11.12 C6.0146,11.081 5.9996,11.043 5.9996,11 L5.9996,6.5 C5.9996,5.673 6.6726,5 7.4996,5 L8.9996,5 L8.9996,3.5 C8.9996,2.673 9.6726,2 10.4996,2 L13.4996,2 C14.3276,2 14.9996,2.673 14.9996,3.5 L14.9996,5 L16.4996,5 C17.3276,5 17.9996,5.673 17.9996,6.5 L17.9996,11 C17.9996,11.043 17.9856,11.081 17.9756,11.12 L19.7356,12.059 C19.9626,12.181 20.0606,12.455 19.9606,12.693 L16.8916,20.009 C16.8746,20.05 16.8376,20.071 16.8116,20.106 C16.8326,20.128 16.8516,20.144 16.8736,20.168 C17.6576,20.95 18.3436,20.95 19.1466,20.147 C19.3416,19.951 19.6586,19.951 19.8536,20.147 Z M8.5,7 C8.776,7 9,7.229 9,7.512 C9,7.795 8.776,8.023 8.5,8.023 C8.224,8.023 8,7.795 8,7.512 C8,7.229 8.224,7 8.5,7 Z M15.5,8.0234 C15.224,8.0234 15,7.7944 15,7.5114 C15,7.2294 15.224,7.0004 15.5,7.0004 C15.776,7.0004 16,7.2294 16,7.5114 C16,7.7944 15.776,8.0234 15.5,8.0234 Z" id="ic_cruise_thematic" fill="currentColor"></path>
        <rect id="Padding" x="0" y="0" width="24" height="24"></rect>
    </g>
</svg>
