<?xml version="1.0" encoding="UTF-8"?>
<svg width="24px" height="24px"  version="1.1" xmlns="http://www.w3.org/2000/svg" xmlns:xlink="http://www.w3.org/1999/xlink">
    <!-- Generator: Sketch 52.6 (67491) - http://www.bohemiancoding.com/sketch -->
    <title>Universe/ic_decoration_thematic</title>
    <desc>Created with Sketch.</desc>
    <g id="Universe/ic_decoration_thematic" stroke="none" stroke-width="1" fill="none" fill-rule="evenodd">
        <path d="M5.1236,11 L18.8766,11 L17.0996,3 L6.9006,3 L5.1236,11 Z M17.9886,2.392 L19.9886,11.392 C20.0206,11.54 19.9846,11.694 19.8906,11.812 C19.7946,11.932 19.6516,12 19.4996,12 L4.4996,12 C4.3486,12 4.2056,11.932 4.1096,11.812 C4.0156,11.694 3.9786,11.54 4.0116,11.392 L6.0116,2.392 C6.0626,2.163 6.2656,2 6.4996,2 L17.4996,2 C17.7346,2 17.9376,2.163 17.9886,2.392 Z M14.1041,19.6953 C14.7271,18.8853 15.0001,18.3393 15.0001,16.5003 C15.0001,15.2843 14.7861,14.4223 14.6511,14.0003 L9.3491,14.0003 C9.2151,14.4213 9.0001,15.2843 9.0001,16.5003 C9.0001,18.3393 9.2731,18.8853 9.8961,19.6953 C10.3351,20.2653 10.9221,20.7833 11.1791,21.0003 L12.8211,21.0003 C13.0781,20.7833 13.6651,20.2653 14.1041,19.6953 Z M15.0001,13.0003 C15.1951,13.0003 15.3731,13.1133 15.4541,13.2913 C15.4771,13.3403 16.0001,14.5003 16.0001,16.5003 C16.0001,18.5293 15.6601,19.3133 14.8961,20.3043 C14.2421,21.1543 13.3471,21.8633 13.3101,21.8923 C13.2211,21.9623 13.1121,22.0003 13.0001,22.0003 L11.0001,22.0003 C10.8881,22.0003 10.7791,21.9623 10.6901,21.8923 C10.6531,21.8633 9.7581,21.1543 9.1041,20.3043 C8.3401,19.3133 8.0001,18.5293 8.0001,16.5003 C8.0001,14.5003 8.5231,13.3403 8.5461,13.2913 C8.6271,13.1133 8.8051,13.0003 9.0001,13.0003 L15.0001,13.0003 Z M9.0982,4.0098 C9.3692,4.0638 9.5442,4.3268 9.4902,4.5978 L8.4902,9.5978 C8.4432,9.8358 8.2342,9.9998 8.0002,9.9998 C7.9682,9.9998 7.9352,9.9968 7.9022,9.9898 C7.6312,9.9368 7.4552,9.6728 7.5102,9.4028 L8.5102,4.4028 C8.5642,4.1308 8.8222,3.9518 9.0982,4.0098 Z M14.9019,4.0098 C15.1739,3.9528 15.4359,4.1308 15.4899,4.4028 L16.4899,9.4028 C16.5449,9.6728 16.3689,9.9368 16.0979,9.9898 C16.0649,9.9968 16.0319,9.9998 15.9999,9.9998 C15.7659,9.9998 15.5569,9.8358 15.5099,9.5978 L14.5099,4.5978 C14.4559,4.3268 14.6309,4.0638 14.9019,4.0098 Z M12.0001,4 C12.2761,4 12.5001,4.224 12.5001,4.5 L12.5001,9.5 C12.5001,9.776 12.2761,10 12.0001,10 C11.7241,10 11.5001,9.776 11.5001,9.5 L11.5001,4.5 C11.5001,4.224 11.7241,4 12.0001,4 Z" id="ic_decoration_thematic" fill="currentColor"></path>
        <rect id="Padding" x="0" y="0" width="24" height="24"></rect>
    </g>
</svg>
