<?xml version="1.0" encoding="UTF-8"?>
<svg width="24px" height="24px"  version="1.1" xmlns="http://www.w3.org/2000/svg" xmlns:xlink="http://www.w3.org/1999/xlink">
    <!-- Generator: Sketch 52.6 (67491) - http://www.bohemiancoding.com/sketch -->
    <title>Universe/ic_fashion_category</title>
    <desc>Created with Sketch.</desc>
    <g id="Universe/ic_fashion_category" stroke="none" stroke-width="1" fill="none" fill-rule="evenodd">
        <path d="M20.9913,13.5459 C21.0413,13.2869 20.9173,12.5959 20.8473,12.2109 C20.8283,12.1019 20.8083,11.9929 20.7913,11.8879 L15.8433,13.3639 C15.9133,13.6459 16.0883,14.2929 16.2623,14.9269 C17.9733,14.4189 20.3673,13.7129 20.9913,13.5459 Z M14.8853,13.6499 L14.5223,13.7589 L14.9463,15.3179 C15.0513,15.2869 15.1733,15.2509 15.3033,15.2119 C15.0713,14.3709 14.9473,13.9019 14.8853,13.6499 Z M17.0003,11.7759 L17.4953,11.6359 C17.3363,11.2569 17.1653,10.8569 17.0003,10.4699 L17.0003,11.7759 Z M16.0003,19.8989 L16.0003,16.0469 C15.5393,16.1849 15.1083,16.3119 14.7413,16.4219 C14.6123,16.4599 14.4723,16.4449 14.3543,16.3789 C14.2363,16.3139 14.1503,16.2039 14.1153,16.0739 L13.4293,13.5499 C13.3583,13.2889 13.5093,13.0189 13.7683,12.9409 L16.0003,12.2749 L16.0003,8.1669 C16.0003,7.9289 16.1713,7.7159 16.4043,7.6689 C16.8713,7.5799 16.8833,7.5869 18.5313,11.5199 L20.6233,10.8959 C20.1953,9.4429 18.2993,5.1289 17.6173,4.3179 C17.2723,3.9079 16.3493,3.7839 15.6043,3.7039 C15.7223,4.1409 15.8053,4.8599 15.4623,5.6879 C14.9653,6.8809 13.9423,8.2349 13.8983,8.2929 C13.8113,8.4079 13.6793,8.4809 13.5343,8.4899 C13.5223,8.4909 13.5123,8.4909 13.5003,8.4909 C13.3683,8.4909 13.2403,8.4389 13.1463,8.3449 C13.1143,8.3129 12.5303,7.7279 12.0263,7.1529 C11.7533,7.4449 11.3813,7.8189 10.8533,8.3449 C10.7603,8.4389 10.6323,8.4909 10.5003,8.4909 C10.4883,8.4909 10.4773,8.4909 10.4663,8.4899 C10.3213,8.4809 10.1883,8.4079 10.1013,8.2929 C10.0573,8.2349 9.0353,6.8809 8.5383,5.6879 C8.2183,4.9159 8.2703,4.2749 8.3763,3.8549 C8.2693,3.8769 8.1783,3.8979 8.0593,3.9209 C7.4173,4.0519 6.6173,4.2139 6.2543,4.4279 C5.8063,4.6909 5.4703,6.1639 5.1143,7.7239 C4.9493,8.4459 4.7663,9.2459 4.5423,10.0989 C4.1063,11.7539 3.6883,13.6629 3.3953,15.0719 C3.9933,15.1949 4.6053,15.3189 5.0063,15.3959 C5.1903,14.5249 5.4313,13.5399 5.7163,12.7719 C6.2343,11.3599 7.0063,8.0859 7.0133,8.0529 C7.0713,7.8079 7.3013,7.6469 7.5573,7.6699 C7.8093,7.6989 8.0003,7.9129 8.0003,8.1669 L8.0003,19.9139 C8.2403,20.1799 9.2143,21.0489 11.9913,20.9989 C14.7193,20.9529 15.7323,20.1669 16.0003,19.8989 Z M3.0853,16.6029 L4.7103,16.9469 C4.7373,16.7869 4.7723,16.5899 4.8113,16.3779 C4.4773,16.3159 3.9653,16.2099 3.1953,16.0499 C3.1523,16.2619 3.1153,16.4499 3.0853,16.6029 Z M9.3613,4.0159 C9.2893,4.2509 9.2153,4.7109 9.4623,5.3029 C9.7433,5.9799 10.2333,6.7419 10.5623,7.2199 C10.8013,6.9779 11.0333,6.7379 11.2213,6.5379 C10.3593,5.9839 9.7263,4.8529 9.3613,4.0159 Z M12.0013,2.9989 C11.0293,2.9999 10.4053,3.1029 10.0923,3.1919 C10.3833,3.9519 11.1453,5.4859 11.9873,5.8079 C12.8263,5.5129 13.5923,4.0049 13.8943,3.2269 C13.5443,3.0069 12.7693,2.9939 12.0013,2.9989 Z M14.5383,5.3029 C14.7693,4.7479 14.7193,4.2719 14.6483,3.9929 C14.2893,4.8229 13.6603,5.9579 12.8023,6.5229 C13.0163,6.7659 13.2493,7.0149 13.4403,7.2159 C13.7693,6.7369 14.2583,5.9769 14.5383,5.3029 Z M21.8323,12.0339 C22.0203,13.0829 22.2343,14.2709 21.3263,14.4909 C20.9893,14.5729 18.9213,15.1809 17.0003,15.7499 L17.0003,20.0779 C17.0003,20.1689 16.9753,20.2579 16.9283,20.3349 C16.8293,20.4989 15.8533,21.9329 12.0093,21.9979 C11.9303,21.9989 11.8533,21.9999 11.7773,21.9999 C8.0993,21.9999 7.1593,20.4939 7.0623,20.3189 C7.0213,20.2449 7.0003,20.1629 7.0003,20.0779 L7.0003,12.0529 C6.8813,12.4529 6.7623,12.8199 6.6543,13.1169 C6.3513,13.9359 6.0933,15.0559 5.9083,15.9729 C5.9083,16.0309 5.8953,16.0859 5.8763,16.1399 C5.7123,16.9729 5.6153,17.6049 5.6133,17.6179 C5.5933,17.7539 5.5173,17.8749 5.4043,17.9539 C5.2903,18.0329 5.1503,18.0589 5.0153,18.0319 L2.3963,17.4789 C2.1303,17.4219 1.9583,17.1629 2.0093,16.8979 C2.0163,16.8579 2.7693,12.9039 3.5753,9.8449 C3.7973,9.0029 3.9763,8.2139 4.1393,7.5009 C4.6143,5.4219 4.9283,4.0489 5.7463,3.5669 C6.2543,3.2689 7.0703,3.1029 7.8603,2.9419 C8.3103,2.8519 8.9913,2.7129 9.1373,2.6089 C9.4953,2.1159 10.8943,2.0019 11.9993,1.9999 C13.1073,2.0019 14.0633,2.0029 14.6493,2.5289 C14.7083,2.5479 14.7613,2.5769 14.8073,2.6139 C14.9443,2.6309 15.2703,2.6649 15.5283,2.6919 C16.5183,2.7949 17.7503,2.9239 18.3833,3.6769 C19.2063,4.6539 21.6113,10.0999 21.7063,11.1919 C21.7063,11.2009 21.7073,11.2089 21.7073,11.2169 C21.7243,11.4459 21.7773,11.7339 21.8323,12.0339 Z M12.0001,18.0005 C12.2761,18.0005 12.5001,18.2245 12.5001,18.5005 C12.5001,18.7755 12.2761,18.9995 12.0001,18.9995 C11.7241,18.9995 11.5001,18.7755 11.5001,18.5005 C11.5001,18.2245 11.7241,18.0005 12.0001,18.0005 Z M12.0001,15.0005 C12.2761,15.0005 12.5001,15.2245 12.5001,15.5005 C12.5001,15.7755 12.2761,15.9995 12.0001,15.9995 C11.7241,15.9995 11.5001,15.7755 11.5001,15.5005 C11.5001,15.2245 11.7241,15.0005 12.0001,15.0005 Z M12.0001,12.001 C12.2761,12.001 12.5001,12.224 12.5001,12.5 C12.5001,12.775 12.2761,12.999 12.0001,12.999 C11.7241,12.999 11.5001,12.775 11.5001,12.5 C11.5001,12.224 11.7241,12.001 12.0001,12.001 Z M12.0001,9.001 C12.2761,9.001 12.5001,9.225 12.5001,9.5 C12.5001,9.775 12.2761,9.999 12.0001,9.999 C11.7241,9.999 11.5001,9.775 11.5001,9.5 C11.5001,9.225 11.7241,9.001 12.0001,9.001 Z" id="ic_fashion_category" fill="currentColor"></path>
        <rect id="Padding" x="0" y="0" width="24" height="24"></rect>
    </g>
</svg>
