<?xml version="1.0" encoding="UTF-8"?>
<svg width="24px" height="24px"  version="1.1" xmlns="http://www.w3.org/2000/svg" xmlns:xlink="http://www.w3.org/1999/xlink">
    <!-- Generator: Sketch 52.6 (67491) - http://www.bohemiancoding.com/sketch -->
    <title>Universe/ic_flight_thematic</title>
    <desc>Created with Sketch.</desc>
    <g id="Universe/ic_flight_thematic" stroke="none" stroke-width="1" fill="none" fill-rule="evenodd">
        <path d="M22,15 L22,14.877 L15.984,13.158 C15.957,13.829 15.763,14.453 15.444,15 L22,15 Z M19,16.5 C19,16.225 18.776,16 18.5,16 C18.224,16 18,16.225 18,16.5 C18,16.775 18.224,17 18.5,17 C18.776,17 19,16.775 19,16.5 Z M9,13 C9,14.654 10.346,16 12,16 C13.654,16 15,14.654 15,13 C15,11.347 13.655,10.001 12.002,10 L11.997,10 C10.344,10.002 9,11.347 9,13 Z M6,16.5 C6,16.225 5.776,16 5.5,16 C5.224,16 5,16.225 5,16.5 C5,16.775 5.224,17 5.5,17 C5.776,17 6,16.775 6,16.5 Z M2,14.877 L2,15 L8.556,15 C8.237,14.453 8.043,13.829 8.016,13.158 L2,14.877 Z M12.006,7.706 L11.427,8.994 C11.61,9.002 11.794,9.007 11.983,9 C12.186,8.993 12.384,8.974 12.582,8.955 L12.006,7.706 Z M22.637,14.02 C22.852,14.081 23,14.276 23,14.5 L23,15.5 C23,15.776 22.776,16 22.5,16 L19.908,16 C19.964,16.157 20,16.324 20,16.5 C20,17.327 19.327,18 18.5,18 C17.673,18 17,17.327 17,16.5 C17,16.324 17.036,16.157 17.092,16 L14.618,16 C13.914,16.614 13.005,17 12,17 C10.995,17 10.086,16.614 9.382,16 L6.908,16 C6.964,16.157 7,16.324 7,16.5 C7,17.327 6.327,18 5.5,18 C4.673,18 4,17.327 4,16.5 C4,16.324 4.036,16.157 4.092,16 L1.5,16 C1.224,16 1,15.776 1,15.5 L1,14.5 C1,14.276 1.148,14.081 1.363,14.02 L8.114,12.091 C8.338,11.134 8.904,10.312 9.679,9.755 C8.773,9.545 8.054,9.254 7.648,9.088 C7.531,9.039 7.446,9.003 7.396,8.988 C7.122,8.955 6.948,8.71 6.982,8.436 C7.015,8.162 7.287,7.966 7.561,8.004 C7.674,8.018 7.785,8.063 8.027,8.162 C8.473,8.346 9.328,8.691 10.383,8.877 L11.544,6.295 C11.625,6.116 11.802,6.001 11.998,6 L12,6 C12.195,6 12.372,6.113 12.454,6.29 L13.619,8.815 C15.13,8.536 16.288,8.047 16.303,8.04 C16.556,7.931 16.85,8.049 16.959,8.303 C17.068,8.557 16.951,8.851 16.697,8.959 C16.636,8.985 15.634,9.404 14.259,9.704 C15.067,10.26 15.656,11.106 15.886,12.091 L22.637,14.02 Z M11.5,14 L12,14.001 C12,14.001 12,14 12,14 L11.5,14 Z M12,13 C12.551,13 13,13.448 13,14 C13,14.552 12.551,15 12,15 C11.449,15 11,14.552 11,14 C11,13.448 11.449,13 12,13 Z M13.5,11 C13.776,11 14,11.224 14,11.5 C14,11.776 13.776,12 13.5,12 L10.5,12 C10.224,12 10,11.776 10,11.5 C10,11.224 10.224,11 10.5,11 L13.5,11 Z" id="ic_flight_thematic" fill="currentColor"></path>
        <rect id="Padding" x="0" y="0" width="24" height="24"></rect>
    </g>
</svg>
