<?xml version="1.0" encoding="UTF-8"?>
<svg width="24px" height="24px"  version="1.1" xmlns="http://www.w3.org/2000/svg" xmlns:xlink="http://www.w3.org/1999/xlink">
    <!-- Generator: Sketch 52.6 (67491) - http://www.bohemiancoding.com/sketch -->
    <title>Universe/ic_flight+hotel_thematic</title>
    <desc>Created with Sketch.</desc>
    <g id="Universe/ic_flight+hotel_thematic" stroke="none" stroke-width="1" fill="none" fill-rule="evenodd">
        <path d="M16.8457,6.6258 C16.2827,6.9828 15.4837,7.3848 14.4837,7.6618 L14.1087,10.6658 C15.1457,10.3718 15.9997,9.9698 16.4297,9.7428 L16.8457,6.6258 Z M15.0297,20.2488 L16.2707,10.9378 C15.6847,11.2078 14.8797,11.5248 13.9737,11.7428 L12.9957,19.5638 C12.9647,19.8158 12.7487,20.0008 12.5007,20.0008 C12.4797,20.0008 12.4587,19.9998 12.4377,19.9968 C12.1637,19.9628 11.9697,19.7128 12.0037,19.4388 L12.9427,11.9338 C12.6337,11.9728 12.3207,11.9988 12.0037,12.0008 L11.9557,12.0008 C10.2617,12.0008 8.6877,11.3838 7.7277,10.9268 L8.9747,20.2798 C9.1807,20.4598 9.9667,21.0008 11.9997,21.0008 C13.8517,21.0008 14.7457,20.4638 15.0297,20.2488 Z M11.9997,8.0008 C9.7747,8.0008 8.1257,7.2418 7.1547,6.6258 L7.5677,9.7258 C8.2547,10.0908 10.0437,11.0008 11.9557,11.0008 L11.9957,11.0008 C12.3587,10.9978 12.7177,10.9558 13.0717,10.8978 L13.4487,7.8868 C12.9957,7.9568 12.5157,8.0008 11.9997,8.0008 Z M19.4027,2.0108 C19.6587,1.9538 19.9357,2.1308 19.9907,2.4028 C20.0447,2.6738 19.8687,2.9378 19.5977,2.9908 L14.9507,3.9208 L14.6207,6.5618 C15.8417,6.1468 16.6507,5.5648 16.9727,5.2968 C16.9357,5.1488 16.8307,5.0008 16.4997,5.0008 C16.2237,5.0008 15.9997,4.7768 15.9997,4.5008 C15.9997,4.2248 16.2237,4.0008 16.4997,4.0008 C17.2467,4.0008 17.9997,4.4648 17.9997,5.5008 C17.9997,5.5158 17.9927,5.5278 17.9917,5.5428 C17.9917,5.5518 17.9967,5.5588 17.9957,5.5668 L15.9957,20.5668 C15.9827,20.6658 15.9397,20.7588 15.8727,20.8338 C15.7667,20.9528 14.7527,22.0008 11.9997,22.0008 C8.9877,22.0008 8.1677,20.9028 8.0837,20.7778 C8.0417,20.7148 8.0147,20.6428 8.0037,20.5668 L6.0037,5.5668 C5.9767,5.3548 6.0857,5.1488 6.2777,5.0538 C6.4697,4.9578 6.7007,4.9958 6.8527,5.1468 C6.8707,5.1648 8.7667,7.0008 11.9997,7.0008 C12.5747,7.0008 13.0917,6.9298 13.5787,6.8338 L14.0037,3.4378 C14.0307,3.2258 14.1907,3.0528 14.4027,3.0108 L19.4027,2.0108 Z M7.5,3.0008 C6.121,3.0008 5,4.1218 5,5.5008 C5,5.9478 5.119,6.3868 5.346,6.7698 C5.486,7.0068 5.407,7.3128 5.169,7.4538 C5.09,7.5008 5.002,7.5228 4.915,7.5228 C4.744,7.5228 4.578,7.4358 4.484,7.2768 C4.168,6.7408 4,6.1268 4,5.5008 C4,3.5708 5.57,2.0008 7.5,2.0008 C9.43,2.0008 11,3.5708 11,5.5008 C11,5.7768 10.776,6.0008 10.5,6.0008 C10.224,6.0008 10,5.7768 10,5.5008 C10,4.1218 8.879,3.0008 7.5,3.0008 Z" id="ic_flight+hotel_thematic" fill="currentColor"></path>
        <rect id="Padding" x="0" y="0" width="24" height="24"></rect>
    </g>
</svg>
