<?xml version="1.0" encoding="UTF-8"?>
<svg width="24px" height="24px"  version="1.1" xmlns="http://www.w3.org/2000/svg" xmlns:xlink="http://www.w3.org/1999/xlink">
    <!-- Generator: Sketch 52.6 (67491) - http://www.bohemiancoding.com/sketch -->
    <title>Universe/ic_leather_luggage_thematic</title>
    <desc>Created with Sketch.</desc>
    <g id="Universe/ic_leather_luggage_thematic" stroke="none" stroke-width="1" fill="none" fill-rule="evenodd">
        <path d="M19.4177,19.2236 L18.5817,15.8796 C17.3267,16.5186 15.4297,17.0096 12.5217,17.0096 C12.4387,17.0096 12.3547,17.0096 12.2687,17.0086 L11.7297,17.0086 C11.6447,17.0096 11.5607,17.0096 11.4767,17.0096 C8.5707,17.0096 6.6757,16.5196 5.4217,15.8816 L4.5857,19.2236 C4.4647,19.7086 4.5397,20.1586 4.7977,20.4886 C5.0557,20.8186 5.4727,20.9996 5.9727,20.9996 L18.0307,20.9996 C18.5307,20.9996 18.9477,20.8186 19.2057,20.4886 C19.4637,20.1586 19.5387,19.7086 19.4177,19.2236 Z M4.0047,12.9306 C4.0057,12.9346 4.3547,16.0966 11.7247,16.0086 L12.2737,16.0086 C19.7147,16.0606 19.9977,12.9336 19.9997,12.9026 L19.9987,11.9486 C20.0007,11.8986 20.0237,11.5786 19.8097,11.3426 C19.6127,11.1266 18.8887,11.0106 18.4417,11.0096 L5.5617,11.0096 C5.1147,11.0106 4.3907,11.1266 4.1937,11.3436 C3.9817,11.5776 4.0007,11.8916 4.0017,11.8946 L4.0047,12.9306 Z M12.0017,2.9996 C9.5917,2.9996 7.4797,6.0396 7.0517,10.0096 L16.9517,10.0096 C16.5247,6.0396 14.4127,2.9996 12.0017,2.9996 Z M20.9987,12.9306 C20.9947,13.0346 20.9067,14.2576 19.4677,15.3386 C19.4727,15.3536 19.4827,15.3646 19.4867,15.3786 L20.3877,18.9816 C20.5847,19.7716 20.4457,20.5256 19.9937,21.1036 C19.5427,21.6816 18.8457,21.9996 18.0307,21.9996 L5.9727,21.9996 C5.1577,21.9996 4.4607,21.6816 4.0097,21.1036 C3.5577,20.5256 3.4177,19.7716 3.6157,18.9816 L4.5167,15.3786 C4.5207,15.3656 4.5297,15.3546 4.5347,15.3406 C3.0967,14.2626 3.0087,13.0436 3.0047,12.9516 L3.0047,11.9486 C2.9997,11.9256 2.9407,11.2366 3.4537,10.6706 C4.0257,10.0416 5.3097,10.0096 5.5617,10.0096 L6.0477,10.0096 C6.5047,5.4136 9.0107,1.9996 12.0017,1.9996 C14.9927,1.9996 17.4997,5.4136 17.9557,10.0096 L18.4417,10.0096 C18.6937,10.0096 19.9777,10.0416 20.5497,10.6696 C21.0627,11.2366 21.0037,11.9256 20.9957,12.0016 L20.9987,12.9306 Z M10.0017,15 C9.7257,15 9.5017,14.776 9.5017,14.5 C9.5017,14.224 9.7257,14 10.0017,14 L14.0017,14 C14.2777,14 14.5017,14.224 14.5017,14.5 C14.5017,14.776 14.2777,15 14.0017,15 L10.0017,15 Z M7.069,19.5049 C7.342,19.5419 7.534,19.7939 7.497,20.0669 C7.463,20.3179 7.249,20.4999 7.002,20.4999 C6.98,20.4999 6.957,20.4989 6.934,20.4949 C6.823,20.4809 5.835,20.3229 5.532,19.4909 C5.265,18.7589 5.874,17.5929 6.067,17.2529 C6.203,17.0119 6.508,16.9299 6.748,17.0659 C6.988,17.2009 7.072,17.5059 6.937,17.7459 C6.632,18.2859 6.405,18.9679 6.471,19.1499 C6.558,19.3869 6.971,19.4909 7.069,19.5049 Z" id="ic_leather_luggage_thematic" fill="currentColor"></path>
        <rect id="Padding" x="0" y="0" width="24" height="24"></rect>
    </g>
</svg>
