<?xml version="1.0" encoding="UTF-8"?>
<svg width="24px" height="24px"  version="1.1" xmlns="http://www.w3.org/2000/svg" xmlns:xlink="http://www.w3.org/1999/xlink">
    <!-- Generator: Sketch 52.6 (67491) - http://www.bohemiancoding.com/sketch -->
    <title>Universe/ic_leisure_category</title>
    <desc>Created with Sketch.</desc>
    <g id="Universe/ic_leisure_category" stroke="none" stroke-width="1" fill="none" fill-rule="evenodd">
        <path d="M6.5439,18.2115 L7.4849,19.6125 L10.6619,17.3995 L10.0409,16.4745 C9.8879,16.2465 9.9489,15.9405 10.1769,15.7885 C10.4019,15.6345 10.7109,15.6965 10.8629,15.9235 L11.4749,16.8335 L20.8279,10.3155 L19.8849,8.9115 C19.5409,9.0415 19.1709,9.0735 18.8029,9.0055 C18.2619,8.9035 17.7929,8.5945 17.4839,8.1335 C16.9449,7.3325 17.0379,6.2775 17.6489,5.5845 L16.7079,4.1835 L7.3549,10.6995 L7.9289,11.5545 C8.0809,11.7805 8.0209,12.0885 7.7929,12.2395 C7.7089,12.2965 7.6129,12.3235 7.5179,12.3235 C7.3579,12.3235 7.2009,12.2475 7.1059,12.1055 L6.5419,11.2655 L3.3639,13.4795 L4.3079,14.8845 C4.6509,14.7555 5.0239,14.7225 5.3899,14.7905 C5.9309,14.8925 6.3999,15.2015 6.7089,15.6625 C7.2479,16.4635 7.1549,17.5175 6.5439,18.2115 Z M21.8659,10.7745 C21.8429,10.8005 21.8239,10.8285 21.7939,10.8505 L11.6209,17.9365 C11.6209,17.9375 11.6209,17.9375 11.6199,17.9385 L11.6189,17.9385 L7.2239,20.9995 L5.2119,18.0045 L5.6099,17.7265 C6.0969,17.3885 6.2209,16.7095 5.8869,16.2135 C5.7259,15.9745 5.4839,15.8145 5.2069,15.7635 C4.9399,15.7095 4.6579,15.7715 4.4269,15.9325 L4.0129,16.2215 L1.9999,13.2245 L16.5549,3.0835 C16.5569,3.0825 16.5589,3.0825 16.5599,3.0815 C16.5619,3.0805 16.5619,3.0795 16.5629,3.0785 C16.5929,3.0585 16.6269,3.0515 16.6599,3.0375 C16.6869,3.0275 16.7099,3.0115 16.7369,3.0055 C16.7809,2.9965 16.8259,3.0005 16.8709,3.0035 C16.8899,3.0045 16.9079,3.0005 16.9269,3.0035 C16.9629,3.0105 16.9939,3.0275 17.0269,3.0425 C17.0539,3.0535 17.0809,3.0585 17.1059,3.0735 C17.1299,3.0895 17.1479,3.1135 17.1689,3.1345 C17.1939,3.1575 17.2239,3.1765 17.2449,3.2065 C17.2459,3.2075 17.2459,3.2095 17.2469,3.2115 L17.2499,3.2145 L18.9819,5.7915 L18.5819,6.0695 C18.0969,6.4075 17.9729,7.0855 18.3069,7.5825 C18.4669,7.8205 18.7079,7.9825 18.9859,8.0335 C19.2539,8.0815 19.5339,8.0245 19.7659,7.8635 L20.1799,7.5745 L21.9159,10.1595 C21.9159,10.1605 21.9169,10.1605 21.9169,10.1605 C21.9169,10.1615 21.9179,10.1615 21.9179,10.1625 L21.9219,10.1685 C21.9369,10.1905 21.9399,10.2155 21.9509,10.2375 C21.9679,10.2745 21.9879,10.3095 21.9959,10.3465 C22.0019,10.3745 21.9959,10.4025 21.9969,10.4325 C21.9979,10.4665 22.0029,10.5015 21.9969,10.5355 C21.9909,10.5655 21.9759,10.5915 21.9639,10.6195 C21.9519,10.6505 21.9449,10.6835 21.9269,10.7115 C21.9109,10.7345 21.8869,10.7525 21.8659,10.7745 Z M9.2012,13.4488 L9.7532,14.2688 C9.9052,14.4968 9.8452,14.8028 9.6172,14.9558 C9.5332,15.0118 9.4372,15.0398 9.3422,15.0398 C9.1812,15.0398 9.0252,14.9628 8.9302,14.8198 L8.3782,13.9988 C8.2252,13.7718 8.2862,13.4648 8.5142,13.3128 C8.7392,13.1618 9.0482,13.2208 9.2012,13.4488 Z M11.5674,11.5796 L11.1764,11.8506 L11.0804,11.7086 L12.0204,11.0546 L12.1164,11.1966 L11.7234,11.4706 L12.4394,12.5346 L12.2824,12.6436 L11.5674,11.5796 Z M12.3623,11.066 L12.2163,11.168 L12.1013,10.997 L12.2483,10.895 L12.3623,11.066 Z M12.9131,12.2046 L12.3261,11.3306 L12.4721,11.2286 L13.0591,12.1026 L12.9131,12.2046 Z M13.2783,11.8072 C13.1533,11.7792 13.0433,11.6922 12.9443,11.5452 C12.8813,11.4522 12.8413,11.3582 12.8243,11.2652 C12.8073,11.1732 12.8183,11.0872 12.8573,11.0082 C12.8963,10.9292 12.9533,10.8642 13.0263,10.8122 C13.1203,10.7472 13.2133,10.7182 13.3033,10.7252 C13.3953,10.7322 13.4793,10.7742 13.5553,10.8502 L13.4283,10.9712 C13.3763,10.9212 13.3223,10.8942 13.2683,10.8882 C13.2143,10.8822 13.1633,10.8972 13.1143,10.9302 C13.0413,10.9822 12.9993,11.0492 12.9893,11.1352 C12.9793,11.2202 13.0133,11.3222 13.0913,11.4372 C13.1713,11.5552 13.2503,11.6242 13.3303,11.6482 C13.4103,11.6702 13.4853,11.6572 13.5563,11.6072 C13.6143,11.5672 13.6493,11.5162 13.6643,11.4532 C13.6783,11.3912 13.6663,11.3192 13.6263,11.2382 L13.7823,11.1582 C13.8343,11.2692 13.8463,11.3742 13.8203,11.4772 C13.7943,11.5782 13.7343,11.6622 13.6403,11.7272 C13.5223,11.8092 13.4023,11.8362 13.2783,11.8072 Z M14.2559,11.2701 L14.1099,11.3711 L13.2989,10.1641 L13.4439,10.0621 L13.9069,10.7511 L14.0129,10.1551 L14.2009,10.0241 L14.0909,10.5781 L14.8209,10.8751 L14.6429,11.0001 L14.0579,10.7501 L14.0229,10.9221 L14.2559,11.2701 Z M14.7725,9.7749 C14.7065,9.8219 14.6655,9.8829 14.6505,9.9609 C14.6345,10.0389 14.6505,10.1169 14.6975,10.1969 L15.1765,9.8629 C15.1215,9.7939 15.0655,9.7509 15.0105,9.7349 C14.9255,9.7109 14.8465,9.7229 14.7725,9.7749 Z M14.9335,10.6529 C14.8065,10.6259 14.6955,10.5409 14.5995,10.3989 C14.5015,10.2519 14.4615,10.1109 14.4815,9.9779 C14.5015,9.8449 14.5705,9.7369 14.6895,9.6539 C14.8035,9.5739 14.9245,9.5479 15.0505,9.5779 C15.1775,9.6069 15.2895,9.6929 15.3855,9.8369 C15.3915,9.8459 15.4005,9.8599 15.4125,9.8789 L14.7715,10.3249 C14.8405,10.4169 14.9175,10.4709 14.9995,10.4889 C15.0815,10.5059 15.1595,10.4909 15.2305,10.4409 C15.2845,10.4039 15.3195,10.3569 15.3385,10.3019 C15.3575,10.2479 15.3565,10.1809 15.3355,10.1029 L15.5005,10.0169 C15.5365,10.1239 15.5395,10.2229 15.5075,10.3179 C15.4765,10.4119 15.4115,10.4939 15.3115,10.5629 C15.1855,10.6509 15.0595,10.6799 14.9335,10.6529 Z M15.1914,9.3335 L15.2974,9.2595 L15.1524,9.0425 L15.2374,8.8535 L15.4434,9.1585 L15.5894,9.0565 L15.6674,9.1715 L15.5204,9.2735 L15.8644,9.7855 C15.8924,9.8275 15.9134,9.8535 15.9264,9.8615 C15.9394,9.8705 15.9544,9.8735 15.9704,9.8725 C15.9874,9.8715 16.0064,9.8635 16.0284,9.8495 C16.0444,9.8375 16.0644,9.8205 16.0874,9.7985 L16.1974,9.9145 C16.1624,9.9515 16.1284,9.9825 16.0954,10.0055 C16.0434,10.0415 15.9964,10.0625 15.9564,10.0645 C15.9154,10.0675 15.8794,10.0605 15.8484,10.0405 C15.8184,10.0205 15.7734,9.9675 15.7134,9.8785 L15.3754,9.3745 L15.2684,9.4485 L15.1914,9.3335 Z" id="ic_leisure_category" fill="currentColor"></path>
        <rect id="Padding" x="0" y="0" width="24" height="24"></rect>
    </g>
</svg>