<?xml version="1.0" encoding="UTF-8"?>
<svg width="24px" height="24px"  version="1.1" xmlns="http://www.w3.org/2000/svg" xmlns:xlink="http://www.w3.org/1999/xlink">
    <!-- Generator: Sketch 52.6 (67491) - http://www.bohemiancoding.com/sketch -->
    <title>Universe/ic_shoes_thematic</title>
    <desc>Created with Sketch.</desc>
    <g id="Universe/ic_shoes_thematic" stroke="none" stroke-width="1" fill="none" fill-rule="evenodd">
        <path d="M14.6171,17.8305 C13.0091,18.1385 11.7531,18.0235 10.8821,17.4875 C10.2761,17.1145 9.6021,15.7285 9.0611,14.6155 C8.7011,13.8775 8.3911,13.2385 8.0891,12.8305 C7.3891,11.8845 5.7311,10.4965 4.9961,10.5935 C4.8971,10.6045 4.8031,10.6455 4.7271,10.7125 C4.5531,10.8645 4.1011,11.2575 4.0601,17.5575 L4.0571,11.4645 C3.9891,10.8905 3.7531,10.4125 3.5241,9.9505 C3.1861,9.2685 2.8671,8.6245 3.0551,7.6225 C3.2221,6.7355 3.8781,5.9185 4.3531,5.4235 C4.4711,5.5495 4.6221,5.7035 4.8581,5.9405 C5.4221,6.5085 6.1951,7.2845 6.6311,7.8455 C7.3541,8.7745 8.0871,10.1375 8.7951,11.4555 C9.3941,12.5685 10.0131,13.7215 10.6551,14.6735 C11.1771,15.4485 11.8941,15.9155 12.7871,16.0605 C12.9871,16.0935 13.1871,16.1075 13.3841,16.1075 C14.5091,16.1075 15.5261,15.6335 15.8671,15.3705 C15.9831,15.2815 16.1161,15.1685 16.2171,15.0305 C17.7011,15.1215 19.7051,15.7725 20.6131,16.2115 C19.2421,16.7165 15.7351,17.6165 14.6171,17.8305 M9.3021,9.9695 C9.5301,10.2665 9.7941,10.6495 10.0821,11.0675 C11.3811,12.9505 12.4601,14.4045 13.5271,14.5685 L14.7921,14.8175 C14.3401,15.0015 13.6421,15.1895 12.9481,15.0735 C12.3301,14.9735 11.8511,14.6595 11.4841,14.1145 C10.8701,13.2035 10.2631,12.0735 9.6761,10.9815 C9.3671,10.4075 9.0551,9.8255 8.7381,9.2685 C8.9541,9.5305 9.1471,9.7685 9.3021,9.9695 M15.8841,14.0135 C15.8691,14.0135 15.8571,14.0195 15.8431,14.0215 L13.7001,13.5845 C12.9521,13.4695 11.6711,11.6105 10.9051,10.4995 C10.6061,10.0655 10.3311,9.6675 10.0941,9.3595 C9.0141,7.9575 6.1501,4.7925 6.1261,4.7675 C5.7611,4.3725 5.0511,3.9585 4.5991,4.0035 L4.2651,4.0705 L4.1751,4.2145 C3.8631,4.4765 2.3821,5.7995 2.0731,7.4365 C1.8221,8.7675 2.2691,9.6705 2.6281,10.3945 C2.8371,10.8155 3.0161,11.1795 3.0611,11.5225 L3.0611,18.5005 C3.0611,18.7765 3.2841,19.0005 3.5611,19.0005 L4.5571,19.0005 C4.8341,19.0005 5.0571,18.7765 5.0571,18.5005 C5.0571,15.7265 5.1731,12.6395 5.3261,11.7075 C5.8171,11.9845 6.7401,12.6875 7.2851,13.4265 C7.5331,13.7595 7.8381,14.3885 8.1621,15.0535 C8.8221,16.4105 9.5041,17.8135 10.3581,18.3395 C11.4481,19.0105 12.9461,19.1725 14.8051,18.8125 C14.8771,18.7995 22.0291,17.3995 21.9991,16.2685 C21.9691,15.1355 17.4871,14.0135 15.8841,14.0135" id="ic_shoes_thematic" fill="currentColor"></path>
        <rect id="Padding" x="0" y="0" width="24" height="24"></rect>
    </g>
</svg>
