<?xml version="1.0" encoding="UTF-8"?>
<svg width="24px" height="24px"  version="1.1" xmlns="http://www.w3.org/2000/svg" xmlns:xlink="http://www.w3.org/1999/xlink">
    <!-- Generator: Sketch 52.6 (67491) - http://www.bohemiancoding.com/sketch -->
    <title>Universe/ic_sport_thematic</title>
    <desc>Created with Sketch.</desc>
    <g id="Universe/ic_sport_thematic" stroke="none" stroke-width="1" fill="none" fill-rule="evenodd">
        <path d="M20.922,12.7279 L19.923,13.0639 C20.039,11.8739 19.646,10.2209 19.409,9.4899 C19.038,8.3459 18.402,7.0649 17.738,6.3249 L18.683,5.9989 C18.994,6.0729 19.922,7.3089 20.505,9.1089 C21.098,10.9389 21.074,12.5149 20.922,12.7279 M17.854,11.9529 L17.857,11.9419 C17.928,11.6399 18.076,11.0129 17.885,10.1809 C17.67,9.2419 17.117,8.6649 16.757,8.3269 C16.756,8.2469 16.755,8.1619 16.753,8.0739 C16.747,7.7389 16.735,7.1159 16.788,6.7769 C17.185,7.0969 17.951,8.2359 18.458,9.7979 C19.011,11.5069 19.027,12.9939 18.903,13.3569 C18.682,13.1929 18.259,12.6859 17.854,11.9529 M7.732,13.4249 C7.603,13.0289 7.442,12.6169 7.259,12.2149 L16.217,9.1969 C16.458,9.4369 16.777,9.8229 16.911,10.4039 C17.034,10.9449 16.966,11.3439 16.905,11.6119 L8.038,14.5999 C7.937,14.1239 7.823,13.7069 7.732,13.4249 M7.197,17.3519 L6.295,17.6569 C6.411,16.4659 6.017,14.8129 5.78,14.0819 C5.41,12.9389 4.774,11.6569 4.11,10.9169 L4.958,10.6239 C5.269,10.6969 6.197,11.9339 6.78,13.7339 C7.373,15.5639 7.349,17.1389 7.197,17.3519 M3.482,14.8569 C2.939,13.1799 2.921,11.7209 3.088,11.3179 C3.457,11.5459 4.29,12.7279 4.829,14.3909 C5.376,16.0779 5.398,17.5469 5.234,17.9619 C4.86,17.7229 4.024,16.5289 3.482,14.8569 M21.456,8.7999 C20.97,7.2999 20.026,5.5529 19.163,5.1189 C18.847,4.9589 18.591,4.9889 18.433,5.0439 L16.385,5.7339 C15.714,5.9589 15.733,6.9479 15.753,8.0909 L15.755,8.2969 L6.799,11.3149 C6.376,10.5779 5.896,9.9729 5.438,9.7429 C5.123,9.5829 4.867,9.6129 4.708,9.6679 L2.861,10.2909 C2.851,10.2949 2.844,10.3029 2.834,10.3079 C2.807,10.3139 2.779,10.3189 2.757,10.3269 C1.437,10.7709 2.17,14.0509 2.531,15.1659 C3.023,16.6829 3.974,18.4479 4.841,18.8839 C5.015,18.9709 5.17,18.9999 5.3,18.9999 C5.405,18.9999 5.495,18.9809 5.566,18.9569 C5.585,18.9519 5.599,18.9389 5.616,18.9309 C5.634,18.9269 5.652,18.9279 5.67,18.9219 L7.517,18.2989 C8.288,18.0399 8.354,16.8049 8.205,15.5989 L17.076,12.6099 C17.534,13.4089 18.248,14.4039 18.956,14.4039 C18.982,14.4039 19.008,14.3939 19.034,14.3909 C19.087,14.3909 19.141,14.3819 19.194,14.3649 L21.241,13.6749 C22.562,13.2309 21.82,9.9229 21.456,8.7999" id="ic_sport_thematic" fill="currentColor"></path>
        <rect id="Padding" x="0" y="0" width="24" height="24"></rect>
    </g>
</svg>
