<?xml version="1.0" encoding="UTF-8"?>
<svg width="24px" height="24px"  version="1.1" xmlns="http://www.w3.org/2000/svg" xmlns:xlink="http://www.w3.org/1999/xlink">
    <!-- Generator: Sketch 52.6 (67491) - http://www.bohemiancoding.com/sketch -->
    <title>Universe/ic_tourist_circuit_thematic</title>
    <desc>Created with Sketch.</desc>
    <g id="Universe/ic_tourist_circuit_thematic" stroke="none" stroke-width="1" fill="none" fill-rule="evenodd">
        <path d="M16,3 C14.43,3 13,4.43 13,6 C13,7.11 14.837,10.012 15.996,11.644 C17.002,10.23 19,7.407 19,6 C19,4.43 17.57,3 16,3 Z M15.887,12.986 C15.259,12.839 12,7.594 12,6 C12,3.869 13.869,2 16,2 C18.131,2 20,3.869 20,6 C20,7.613 18.33,10.093 16.764,12.289 L16.411,12.786 C16.316,12.922 16.162,13 16.001,13 C15.963,13 15.925,12.996 15.887,12.986 Z M3.6055,16.0146 C3.8745,16.1306 4.2065,16.1876 4.5775,16.2036 C4.3445,15.5896 4.1785,14.9446 4.0885,14.2746 C3.4565,14.6496 2.9375,15.1176 2.9925,15.4066 C3.0765,15.6606 3.2765,15.8716 3.6055,16.0146 Z M20.7125,8.5076 C21.5545,9.8896 22.0005,11.4766 22.0005,13.0976 C22.0005,18.0066 17.9625,21.9996 13.0005,21.9996 C9.5335,21.9996 6.5235,20.0476 5.0215,17.1996 C4.9485,17.2016 4.8725,17.2076 4.8005,17.2076 C4.2005,17.2076 3.6565,17.1256 3.2085,16.9326 C2.6105,16.6736 2.2115,16.2436 2.0245,15.6516 C1.7915,14.4416 3.2895,13.5396 4.0045,13.1826 C4.0045,13.1546 4.0005,13.1256 4.0005,13.0976 C4.0005,9.1096 6.7115,5.5806 10.5925,4.5176 C10.8565,4.4456 11.1335,4.6006 11.2075,4.8686 C11.2805,5.1336 11.1235,5.4096 10.8575,5.4826 C7.4095,6.4266 5.0015,9.5586 5.0015,13.0976 C5.0015,14.1816 5.2245,15.2146 5.6255,16.1566 C7.5635,15.9226 10.0665,14.9906 11.6425,14.3056 L10.5015,13.7996 C10.2495,13.6876 10.1355,13.3916 10.2475,13.1396 C10.3605,12.8876 10.6575,12.7736 10.9085,12.8856 L13.4535,14.0166 L12.7395,16.7546 C12.6805,16.9796 12.4785,17.1286 12.2555,17.1286 C12.2135,17.1286 12.1705,17.1236 12.1285,17.1126 C11.8615,17.0426 11.7015,16.7706 11.7715,16.5026 L12.1125,15.1916 C10.8125,15.7646 8.3125,16.7686 6.1135,17.0976 C7.5065,19.4286 10.0685,20.9996 13.0005,20.9996 C17.4115,20.9996 20.9995,17.4546 20.9995,13.0976 C20.9995,11.6606 20.6045,10.2526 19.8575,9.0276 C19.7145,8.7916 19.7895,8.4846 20.0255,8.3406 C20.2635,8.1966 20.5695,8.2716 20.7125,8.5076 Z M16.5,6 L16,5.999 C16,5.999 16,6 16,6 L16.5,6 Z M17,6 C17,6.552 16.551,7 16,7 C15.448,7 15,6.552 15,6 C15,5.448 15.448,5 16,5 C16.551,5 17,5.448 17,6 Z" id="ic_tourist_circuit_thematic" fill="currentColor"></path>
        <rect id="Padding" x="0" y="0" width="24" height="24"></rect>
    </g>
</svg>
