<?xml version="1.0" encoding="UTF-8"?>
<svg width="24px" height="24px"  version="1.1" xmlns="http://www.w3.org/2000/svg" xmlns:xlink="http://www.w3.org/1999/xlink">
    <!-- Generator: Sketch 52.6 (67491) - http://www.bohemiancoding.com/sketch -->
    <title>Universe/ic_travel_category</title>
    <desc>Created with Sketch.</desc>
    <g id="Universe/ic_travel_category" stroke="none" stroke-width="1" fill="none" fill-rule="evenodd">
        <path d="M17,17.5029 L17,8.5129 C17,7.6859 16.327,7.0129 15.5,7.0129 L8.5,7.0129 C7.673,7.0129 7,7.6859 7,8.5129 L7,17.5029 C7,18.3299 7.673,19.0029 8.5,19.0029 L15.5,19.0029 C16.327,19.0029 17,18.3299 17,17.5029 Z M15.5,6.0129 C16.879,6.0129 18,7.1339 18,8.5129 L18,17.5029 C18,18.8819 16.879,20.0029 15.5,20.0029 L8.5,20.0029 C7.121,20.0029 6,18.8819 6,17.5029 L6,8.5129 C6,7.1339 7.121,6.0129 8.5,6.0129 L9.5,6.0129 L9.5,4.0149 L10.5,4.0149 L10.5,6.0129 L13.5,6.0129 L13.5,4.0149 L14.5,4.0149 L14.5,6.0129 L15.5,6.0129 Z M8.5,8.0107 C8.776,8.0107 9,8.2347 9,8.5107 L9,17.5037 C9,17.7807 8.776,18.0037 8.5,18.0037 C8.224,18.0037 8,17.7807 8,17.5037 L8,8.5107 C8,8.2347 8.224,8.0107 8.5,8.0107 Z M15.5,8.0107 C15.776,8.0107 16,8.2347 16,8.5107 L16,17.5037 C16,17.7807 15.776,18.0037 15.5,18.0037 C15.224,18.0037 15,17.7807 15,17.5037 L15,8.5107 C15,8.2347 15.224,8.0107 15.5,8.0107 Z M12,10.0098 C12.553,10.0098 13,10.2338 13,10.5088 C13,10.7848 12.553,11.0088 12,11.0088 C11.448,11.0088 11,10.7848 11,10.5088 C11,10.2338 11.448,10.0098 12,10.0098 Z M10.5,2.6904 L10.5,3.0154 L9.5,3.0154 L9.5,2.5714 C9.5,1.5004 11.382,1.5004 12,1.5004 C12.618,1.5004 14.5,1.5004 14.5,2.5714 L14.5,3.0154 L13.5,3.0154 L13.5,2.6904 C13.373,2.6284 12.987,2.5004 12,2.5004 C11.013,2.5004 10.627,2.6284 10.5,2.6904 Z M9.5,20.501 C9.776,20.501 10,20.725 10,21.001 C10,21.884 9.383,22.5 8.5,22.5 C7.617,22.5 7,21.884 7,21.001 C7,20.725 7.224,20.501 7.5,20.501 C7.776,20.501 8,20.725 8,21.001 C8,21.337 8.163,21.5 8.5,21.5 C8.837,21.5 9,21.337 9,21.001 C9,20.725 9.224,20.501 9.5,20.501 Z M16.5,20.501 C16.776,20.501 17,20.725 17,21.001 C17,21.884 16.383,22.5 15.5,22.5 C14.617,22.5 14,21.884 14,21.001 C14,20.725 14.224,20.501 14.5,20.501 C14.776,20.501 15,20.725 15,21.001 C15,21.337 15.163,21.5 15.5,21.5 C15.837,21.5 16,21.337 16,21.001 C16,20.725 16.224,20.501 16.5,20.501 Z" id="ic_travel_category" fill="currentColor"></path>
        <rect id="Padding" x="0" y="0" width="24" height="24"></rect>
    </g>
</svg>