<?xml version="1.0" encoding="UTF-8"?>
<svg width="24px" height="24px"  version="1.1" xmlns="http://www.w3.org/2000/svg" xmlns:xlink="http://www.w3.org/1999/xlink">
    <!-- Generator: Sketch 52.6 (67491) - http://www.bohemiancoding.com/sketch -->
    <title>Universe/ic_underwear_bath_thematic</title>
    <desc>Created with Sketch.</desc>
    <g id="Universe/ic_underwear_bath_thematic" stroke="none" stroke-width="1" fill="none" fill-rule="evenodd">
        <path d="M20.2593,17.6504 C20.1323,17.8334 19.4073,18.5704 18.1793,18.8454 C16.8693,19.1404 15.1823,19.0514 14.3623,18.1854 C13.3903,17.1624 12.5863,17.0314 11.9943,17.0314 C11.2393,17.0314 10.5433,17.3684 9.6653,18.1584 C8.4403,19.2604 6.9623,19.1044 5.8103,18.8444 C4.4323,18.5364 3.7233,17.6384 3.7033,17.6134 C3.3253,17.1264 2.9993,16.7054 3.0003,15.0524 C3.0003,13.7854 3.4143,12.7134 3.7163,11.9304 C3.8343,11.6254 3.9313,11.3684 3.9843,11.1664 C4.0263,11.0044 4.0333,10.7174 3.9763,10.1634 C5.2823,10.5174 8.4653,11.5784 9.5523,13.7544 C10.1913,15.0314 11.4583,15.0314 12.0003,15.0314 C12.5413,15.0314 13.8093,15.0314 14.4473,13.7544 C15.5333,11.5834 18.7173,10.5194 20.0233,10.1644 C19.9663,10.7174 19.9743,11.0044 20.0163,11.1664 C20.0693,11.3704 20.1743,11.6314 20.3013,11.9404 C20.6203,12.7164 21.0573,13.7794 20.9913,15.0264 C20.9023,16.7264 20.6043,17.1544 20.2593,17.6504 M20.9863,10.9224 C20.9383,10.6594 21.0553,9.4534 21.8823,5.2014 C21.9603,4.8014 22.0003,4.5504 22.0003,4.5314 C22.0003,4.2544 21.7783,4.0004 21.5023,4.0004 C21.2263,4.0004 21.0043,4.1934 21.0043,4.4684 C20.9963,4.5204 20.9583,4.7164 20.9013,5.0094 C20.5373,6.8794 20.3063,8.1774 20.1663,9.0934 C19.1343,9.3364 14.9733,10.4674 13.5523,13.3074 C13.2183,13.9754 12.6023,14.0314 12.0003,14.0314 C11.3973,14.0314 10.7813,13.9754 10.4473,13.3074 C9.0273,10.4674 4.8663,9.3364 3.8343,9.0934 C3.6943,8.1774 3.4633,6.8794 3.0993,5.0094 C3.0443,4.7284 3.0073,4.5374 2.9973,4.4764 C2.9693,4.2254 2.7573,4.0314 2.5003,4.0314 C2.2233,4.0314 2.0003,4.2544 2.0003,4.5314 C2.0003,4.5504 2.0403,4.8014 2.1173,5.2014 C2.9443,9.4534 3.0613,10.6594 3.0163,10.9164 C2.9713,11.0884 2.8843,11.3084 2.7833,11.5704 C2.4713,12.3784 2.0003,13.5984 2.0003,15.0524 C1.9993,17.0464 2.4643,17.6464 2.9263,18.2434 C3.2683,18.6834 4.2143,19.5114 5.5913,19.8214 C6.0843,19.9314 6.6663,20.0324 7.2873,20.0324 C8.2763,20.0324 9.3623,19.7774 10.3343,18.9024 C11.1863,18.1344 11.6523,18.0314 11.9943,18.0314 C12.4313,18.0314 12.9333,18.1334 13.6373,18.8744 C14.8023,20.1024 16.9303,20.1484 18.3993,19.8214 C19.9223,19.4794 20.8503,18.5504 21.0803,18.2214 C21.5513,17.5434 21.8933,16.9214 21.9903,15.0794 C22.0673,13.6074 21.5613,12.3754 21.2253,11.5594 C21.1193,11.3014 21.0283,11.0864 20.9863,10.9224" id="ic_underwear_bath_thematic" fill="currentColor"></path>
        <rect id="Padding" x="0" y="0" width="24" height="24"></rect>
    </g>
</svg>