<?xml version="1.0" encoding="UTF-8"?>
<svg width="24px" height="24px"  version="1.1" xmlns="http://www.w3.org/2000/svg" xmlns:xlink="http://www.w3.org/1999/xlink">
    <!-- Generator: Sketch 52.6 (67491) - http://www.bohemiancoding.com/sketch -->
    <title>Orders Status/ic_invoice_unavailable</title>
    <desc>Created with Sketch.</desc>
    <g id="Orders-Status/ic_invoice_unavailable" stroke="none" stroke-width="1" fill="none" fill-rule="evenodd">
        <path d="M17.5,15.6219 C17.608,15.6219 17.695,15.5399 17.695,15.4389 C17.695,15.3379 17.608,15.2559 17.5,15.2559 C17.392,15.2559 17.305,15.3379 17.305,15.4389 C17.305,15.5399 17.392,15.6219 17.5,15.6219 Z M17.367,13.4489 L17.367,14.8409 C17.367,14.9079 17.425,14.9619 17.497,14.9619 C17.568,14.9619 17.626,14.9079 17.626,14.8419 L17.626,13.4489 C17.626,13.3819 17.568,13.3279 17.497,13.3279 C17.425,13.3279 17.367,13.3819 17.367,13.4489 Z M17.683,11.9299 L20.188,16.0039 C20.227,16.0649 20.227,16.1399 20.188,16.2009 C20.15,16.2639 20.082,16.3009 20.006,16.3009 L14.994,16.3009 C14.918,16.3009 14.85,16.2639 14.812,16.2009 C14.773,16.1399 14.773,16.0649 14.812,16.0039 L17.317,11.9299 C17.355,11.8669 17.424,11.8299 17.5,11.8299 C17.576,11.8299 17.645,11.8669 17.683,11.9299 Z M20.4331,16.3338 C20.5221,16.1888 20.5221,16.0158 20.4331,15.8708 L17.9271,11.7968 C17.8381,11.6518 17.6781,11.5648 17.5001,11.5648 C17.3221,11.5648 17.1621,11.6518 17.0731,11.7968 L14.5671,15.8708 C14.4771,16.0158 14.4771,16.1888 14.5671,16.3338 C14.6561,16.4788 14.8151,16.5648 14.9941,16.5648 L20.0061,16.5648 C20.1841,16.5648 20.3441,16.4788 20.4331,16.3338 Z M17.5001,9.9998 C19.9851,9.9998 22.0001,12.0148 22.0001,14.4998 C22.0001,16.9848 19.9851,18.9998 17.5001,18.9998 C15.0151,18.9998 13.0001,16.9848 13.0001,14.4998 C13.0001,12.0148 15.0151,9.9998 17.5001,9.9998 Z" id="Warning" fill="#F7AC00"></path>
        <path d="M14,3.3848 L14,5.9998 L16.958,5.9998 L14,3.3848 Z M17.5,8.9998 C17.224,8.9998 17,8.7768 17,8.4998 L17,6.9998 L13.5,6.9998 C13.224,6.9998 13,6.7768 13,6.4998 L13,2.9998 L3.497,2.9998 C3.223,2.9998 3,3.2178 3,3.4858 L3,20.5148 C3,20.7818 3.223,20.9998 3.497,20.9998 L16.5,20.9998 C16.724,20.9998 17,20.7248 17,20.4998 C17,20.2238 17.224,19.9998 17.5,19.9998 C17.776,19.9998 18,20.2238 18,20.4998 C18,21.2718 17.271,21.9998 16.5,21.9998 L3.497,21.9998 C2.671,21.9998 2,21.3338 2,20.5148 L2,3.4858 C2,2.6658 2.671,1.9998 3.497,1.9998 L13.755,1.9998 C13.877,1.9998 13.995,2.0448 14.086,2.1248 L17.831,5.4368 C17.938,5.5318 18,5.6678 18,5.8118 L18,8.4998 C18,8.7768 17.776,8.9998 17.5,8.9998 Z M4,9 L4,8 L7,8 L7,9 L4,9 Z M4,7 L4,6 L10,6 L10,7 L4,7 Z M3.921,13 L3.921,12 L12,12 L12,13 L3.921,13 Z M3.921,15 L3.921,14 L11,14 L11,15 L3.921,15 Z M3.921,17 L3.921,16 L12,16 L12,17 L3.921,17 Z M3.921,19 L3.921,18 L9.039,18 L9.039,19 L3.921,19 Z" id="Invoice" fill="currentColor"></path>
        <rect id="Padding" x="0" y="0" width="24" height="24"></rect>
    </g>
</svg>
