<?xml version="1.0" encoding="UTF-8"?>
<svg width="24px" height="24px"  version="1.1" xmlns="http://www.w3.org/2000/svg" xmlns:xlink="http://www.w3.org/1999/xlink">
    <!-- Generator: Sketch 52.6 (67491) - http://www.bohemiancoding.com/sketch -->
    <title>Orders Status/ic_order_preparation_step</title>
    <desc>Created with Sketch.</desc>
    <g id="Orders-Status/ic_order_preparation_step" stroke="none" stroke-width="1" fill="none" fill-rule="evenodd">
        <path d="M5.500505,19 L18.500505,19 C18.776505,19 19.000505,18.775 19.000505,18.5 L19.000505,9.5 C19.000505,9.225 18.776505,9 18.500505,9 L5.500505,9 C5.224505,9 5.000505,9.225 5.000505,9.5 L5.000505,18.5 C5.000505,18.775 5.224505,19 5.500505,19 Z M4.266505,7.824 L5.711505,4.765 L3.635505,4.072 L1.344505,6.363 L4.266505,7.824 Z M19.738505,7.858 L22.660505,6.367 L20.365505,4.072 L18.200505,4.794 C18.207505,4.807 18.217505,4.816 18.224505,4.829 L19.738505,7.858 Z M20.499505,3.001 C20.630505,3.001 20.758505,3.051 20.854505,3.146 L23.854505,6.146 C23.967505,6.26 24.019505,6.42 23.994505,6.578 C23.969505,6.736 23.870505,6.873 23.728505,6.945 L20.000505,8.849 L20.000505,9.5 L20.000505,18.5 C20.000505,19.327 19.327505,20 18.500505,20 L5.500505,20 C4.673505,20 4.000505,19.327 4.000505,18.5 L4.000505,9.5 L4.000505,8.809 L0.276505004,6.947 C0.133505004,6.875 0.0325050036,6.738 0.0065050036,6.58 C-0.0194949964,6.422 0.0335050036,6.26 0.146505004,6.146 L3.146505,3.146 C3.242505,3.051 3.371505,3.001 3.501505,3.001 C3.554505,3.001 3.607505,3.009 3.658505,3.025 L6.658505,4.025 L6.653505,4.041 C6.766505,4.014 6.882505,4 7.000505,4 L8.500505,4 C8.776505,4 9.000505,4.224 9.000505,4.5 C9.000505,4.776 8.776505,5 8.500505,5 L7.000505,5 C6.857505,5 6.721505,5.062 6.627505,5.168 L5.279505,8.022 C5.352505,8.012 5.424505,8 5.500505,8 L18.500505,8 C18.569505,8 18.635505,8.012 18.701505,8.021 L17.329505,5.276 C17.244505,5.105 17.073505,5 16.882505,5 L15.500505,5 C15.224505,5 15.000505,4.776 15.000505,4.5 C15.000505,4.224 15.224505,4 15.500505,4 L16.882505,4 C17.050505,4 17.209505,4.035 17.362505,4.086 L17.342505,4.025 L20.342505,3.025 C20.393505,3.009 20.446505,3.001 20.499505,3.001 Z M7.000305,17 L7.000305,14 L12.000305,14 L12.000305,17 L7.000305,17 Z M8.000305,16 L11.000305,16 L11.000305,15 L8.000305,15 L8.000305,16 Z" id="Shpping_Box" fill="currentColor"></path>
        <path d="M13.9159106,5.2227 C13.7629106,4.9937 13.4519106,4.9307 13.2229106,5.0837 L12.4839106,5.5767 C12.4889106,5.5507 12.4999106,5.5277 12.4999106,5.4997 L12.4999106,0.9997 C12.4999106,0.7237 12.2759106,0.4997 11.9999106,0.4997 C11.7239106,0.4997 11.4999106,0.7237 11.4999106,0.9997 L11.4999106,5.4997 C11.4999106,5.5277 11.5109106,5.5507 11.5159106,5.5767 L10.7769106,5.0837 C10.5469106,4.9307 10.2359106,4.9937 10.0839106,5.2227 C9.93091062,5.4517 9.99291062,5.7627 10.2229106,5.9157 L11.7229106,6.9157 C11.8069106,6.9717 11.9029106,6.9997 11.9999106,6.9997 C12.0969106,6.9997 12.1929106,6.9717 12.2769106,6.9157 L13.7769106,5.9157 C14.0069106,5.7627 14.0689106,5.4517 13.9159106,5.2227" id="Arrow" fill="#EC008C"></path>
        <rect id="Padding" x="0" y="0" width="24" height="24"></rect>
    </g>
</svg>
