<?xml version="1.0" encoding="UTF-8"?>
<svg width="24px" height="24px"  version="1.1" xmlns="http://www.w3.org/2000/svg" xmlns:xlink="http://www.w3.org/1999/xlink">
    <!-- Generator: Sketch 52.6 (67491) - http://www.bohemiancoding.com/sketch -->
    <title>Orders Status/ic_order_refund_refused</title>
    <desc>Created with Sketch.</desc>
    <g id="Orders-Status/ic_order_refund_refused" stroke="none" stroke-width="1" fill="none" fill-rule="evenodd">
        <path d="M18.5,18 C20.43,18 22,16.43 22,14.5 C22,12.57 20.43,11 18.5,11 C16.57,11 15,12.57 15,14.5 C15,16.43 16.57,18 18.5,18 Z M2,16.453 C2,16.755 2.233,17 2.52,17 L14.762,17 C14.281,16.284 14,15.425 14,14.5 C14,13.079 14.675,11.825 15.706,11 L2,11 L2,16.453 Z M2.52,7 C2.233,7 2,7.245 2,7.547 L2,9 L18,9 L18,7.547 C18,7.245 17.767,7 17.48,7 L2.52,7 Z M19,10.051 C21.244,10.303 23,12.189 23,14.5 C23,16.981 20.981,19 18.5,19 C17.439,19 16.477,18.616 15.706,18 L2.52,18 C1.682,18 1,17.306 1,16.453 L1,7.547 C1,6.694 1.682,6 2.52,6 L17.48,6 C18.318,6 19,6.694 19,7.547 L19,10.051 Z M3,14 L3,13 L11,13 L11,14 L3,14 Z M3,16 L3,15 L9,15 L9,16 L3,16 Z" id="Card" fill="currentColor"></path>
        <path d="M18.9043,14.5 L20.4163,12.987 C20.5283,12.876 20.5283,12.695 20.4163,12.584 C20.3043,12.472 20.1243,12.472 20.0123,12.584 L18.5003,14.096 L16.9873,12.584 C16.8763,12.472 16.6953,12.472 16.5843,12.584 C16.4713,12.695 16.4713,12.876 16.5843,12.987 L18.0953,14.5 L16.5843,16.013 C16.4713,16.124 16.4713,16.305 16.5843,16.416 C16.6393,16.472 16.7133,16.5 16.7863,16.5 C16.8583,16.5 16.9313,16.472 16.9873,16.416 L18.5003,14.904 L20.0123,16.416 C20.0683,16.472 20.1413,16.5 20.2143,16.5 C20.2873,16.5 20.3603,16.472 20.4163,16.416 C20.5283,16.305 20.5283,16.124 20.4163,16.013 L18.9043,14.5 Z" id="Cross" fill="#FF0000"></path>
        <rect id="Padding" x="0" y="0" width="24" height="24"></rect>
    </g>
</svg>
