<?xml version="1.0" encoding="UTF-8"?>
<svg width="24px" height="24px"  version="1.1" xmlns="http://www.w3.org/2000/svg" xmlns:xlink="http://www.w3.org/1999/xlink">
    <!-- Generator: Sketch 52.6 (67491) - http://www.bohemiancoding.com/sketch -->
    <title>Orders Status/ic_order_waiting_step</title>
    <desc>Created with Sketch.</desc>
    <g id="Orders-Status/ic_order_waiting_step" stroke="none" stroke-width="1" fill="none" fill-rule="evenodd">
        <path d="M22.4995,13 C23.0515,13 23.4995,13.432 23.4995,13.963 C23.4995,14.494 23.0515,14.926 22.4995,14.926 C21.9475,14.926 21.4995,14.494 21.4995,13.963 C21.4995,13.432 21.9475,13 22.4995,13 Z M19.4995,13.0371 C20.0515,13.0371 20.4995,13.4691 20.4995,14.0001 C20.4995,14.5311 20.0515,14.9631 19.4995,14.9631 C18.9485,14.9631 18.4995,14.5311 18.4995,14.0001 C18.4995,13.4691 18.9485,13.0371 19.4995,13.0371 Z M16.5,13.0742 C17.052,13.0742 17.5,13.5062 17.5,14.0372 C17.5,14.5682 17.052,15.0002 16.5,15.0002 C15.948,15.0002 15.5,14.5682 15.5,14.0372 C15.5,13.5062 15.948,13.0742 16.5,13.0742 Z" id="Dots" fill="#EC008C"></path>
        <path d="M13,11 L11,11 L11,8.5 L11.889,5 L12.109,5 L13,8.562 L13,11 Z M7.601,5.2 C7.694,5.075 7.844,5 8,5 L10.857,5 L10.095,8 L5.5,8 L7.601,5.2 Z M16.329,5.276 C16.344,5.307 16.363,5.336 16.384,5.362 L18.468,8 L13.89,8 L13.14,5 L15.882,5 C16.073,5 16.244,5.105 16.329,5.276 Z M19.892,8.19 L17.197,4.779 C16.934,4.297 16.435,4 15.882,4 L12.5,4 L11.5,4 L8,4 C7.53,4 7.081,4.225 6.8,4.601 L4.1,8.2 C4.035,8.286 4,8.392 4,8.5 L4,9.5 L4,18.5 C4,19.327 4.673,20 5.5,20 L18.5,20 C19.327,20 20,19.327 20,18.5 L20,17.5 C20,17.224 19.776,17 19.5,17 C19.224,17 19,17.224 19,17.5 L19,18.5 C19,18.775 18.776,19 18.5,19 L5.5,19 C5.224,19 5,18.775 5,18.5 L5,9.5 C5,9.225 5.224,9 5.5,9 L10,9 L10,11.5 C10,11.776 10.224,12 10.5,12 L13.5,12 C13.776,12 14,11.776 14,11.5 L14,9 L18.5,9 C18.776,9 19,9.225 19,9.5 L19,10.5 C19,10.776 19.224,11 19.5,11 C19.776,11 20,10.776 20,10.5 L20,9.5 L20,8.5 C20,8.388 19.962,8.278 19.892,8.19 Z" id="Shipping_Box" fill="currentColor"></path>
        <rect id="Padding" x="0" y="0" width="24" height="24"></rect>
    </g>
</svg>
