<?xml version="1.0" encoding="UTF-8"?>
<svg width="24px" height="24px"  version="1.1" xmlns="http://www.w3.org/2000/svg" xmlns:xlink="http://www.w3.org/1999/xlink">
    <!-- Generator: Sketch 52.6 (67491) - http://www.bohemiancoding.com/sketch -->
    <title>Orders Status/ic_order_validated_step</title>
    <desc>Created with Sketch.</desc>
    <g id="Orders-Status/ic_order_validated_step" stroke="none" stroke-width="1" fill="none" fill-rule="evenodd">
        <path d="M13,11 L11,11 L11,8.5 L11.889,5 L12.109,5 L13,8.562 L13,11 Z M7.601,5.2 C7.694,5.075 7.844,5 8,5 L10.857,5 L10.095,8 L5.5,8 L7.601,5.2 Z M16.329,5.276 C16.344,5.307 16.363,5.336 16.384,5.362 L18.468,8 L13.89,8 L13.14,5 L15.882,5 C16.073,5 16.244,5.105 16.329,5.276 Z M19.892,8.19 L17.197,4.779 C16.934,4.297 16.435,4 15.882,4 L12.5,4 L11.5,4 L8,4 C7.53,4 7.081,4.225 6.8,4.601 L4.1,8.2 C4.035,8.286 4,8.392 4,8.5 L4,9.5 L4,18.5 C4,19.327 4.673,20 5.5,20 L18.5,20 C19.327,20 20,19.327 20,18.5 L20,17.5 C20,17.224 19.776,17 19.5,17 C19.224,17 19,17.224 19,17.5 L19,18.5 C19,18.775 18.776,19 18.5,19 L5.5,19 C5.224,19 5,18.775 5,18.5 L5,9.5 C5,9.225 5.224,9 5.5,9 L10,9 L10,11.5 C10,11.776 10.224,12 10.5,12 L13.5,12 C13.776,12 14,11.776 14,11.5 L14,9 L18.5,9 C18.776,9 19,9.225 19,9.5 L19,10.5 C19,10.776 19.224,11 19.5,11 C19.776,11 20,10.776 20,10.5 L20,9.5 L20,8.5 C20,8.388 19.962,8.278 19.892,8.19 Z" id="Shipping_Box" fill="currentColor"></path>
        <path d="M18.2412,15.99998 C18.2242,15.99998 18.2062,15.99898 18.1892,15.99698 C18.0572,15.98298 17.9402,15.91498 17.8712,15.81398 L17.0622,14.06598 C16.9392,13.88498 17.0042,13.64698 17.2092,13.53798 C17.4132,13.42798 17.6792,13.48598 17.8022,13.66798 L18.3252,14.67398 L21.2202,12.14898 C21.3892,11.99898 21.7352,11.93598 21.9042,12.08598 C22.0732,12.23598 22.0002,12.47898 21.8312,12.62998 L18.5472,15.88698 C18.4652,15.95998 18.3552,15.99998 18.2412,15.99998" id="Check" fill="#3FAE3E"></path>
        <rect id="Padding" x="0" y="0" width="24" height="24"></rect>
    </g>
</svg>
