<?xml version="1.0" encoding="UTF-8"?>
<svg width="24px" height="24px"  version="1.1" xmlns="http://www.w3.org/2000/svg" xmlns:xlink="http://www.w3.org/1999/xlink">
    <!-- Generator: Sketch 52.6 (67491) - http://www.bohemiancoding.com/sketch -->
    <title>Orders Status/ic_order_back_validated_step</title>
    <desc>Created with Sketch.</desc>
    <g id="Orders-Status/ic_order_back_validated_step" stroke="none" stroke-width="1" fill="none" fill-rule="evenodd">
        <path d="M22.5,13 C22.776,13 23,13.224 23,13.5 C23,13.776 22.776,14 22.5,14 L20.5,14 C20.224,14 20,13.776 20,13.5 C20,13.224 20.224,13 20.5,13 L22.5,13 Z M21.5,15 C21.776,15 22,15.224 22,15.5 C22,15.776 21.776,16 21.5,16 L20.5,16 C20.224,16 20,15.776 20,15.5 C20,15.224 20.224,15 20.5,15 L21.5,15 Z M18,18.5996 L18,16.9996 L7,16.9996 L6,16.9996 L2,16.9996 L2,18.5996 C2,18.8396 2.131,18.9996 2.217,18.9996 L2.278,18.9996 C2.625,18.4056 3.264,17.9996 4,17.9996 C4.736,17.9996 5.375,18.4056 5.722,18.9996 L13.778,18.9996 C14.125,18.4056 14.764,17.9996 15.5,17.9996 C16.236,17.9996 16.875,18.4056 17.222,18.9996 L17.783,18.9996 C17.869,18.9996 18,18.8396 18,18.5996 Z M15.5,20.9996 C16.052,20.9996 16.5,20.5516 16.5,19.9996 C16.5,19.4486 16.052,18.9996 15.5,18.9996 C14.948,18.9996 14.5,19.4486 14.5,19.9996 C14.5,20.5516 14.948,20.9996 15.5,20.9996 Z M4,20.9996 C4.552,20.9996 5,20.5516 5,19.9996 C5,19.4486 4.552,18.9996 4,18.9996 C3.448,18.9996 3,19.4486 3,19.9996 C3,20.5516 3.448,20.9996 4,20.9996 Z M2.223,13.6196 C2.083,13.7116 2,13.8676 2,14.0356 L2,15.9996 L6,15.9996 L6,11.9996 L4.803,11.9996 C4.704,11.9996 4.607,12.0296 4.525,12.0836 L2.223,13.6196 Z M8,8.9996 C7.383,8.9996 7,9.5196 7,9.9996 L7,15.9996 L18,15.9996 L18,10.9496 C16.654,10.7976 15.481,10.0726 14.762,8.9996 L8,8.9996 Z M18.5,2.9996 C16.57,2.9996 15,4.5706 15,6.4996 C15,8.4296 16.57,9.9996 18.5,9.9996 C20.43,9.9996 22,8.4296 22,6.4996 C22,4.5706 20.43,2.9996 18.5,2.9996 Z M23,6.4996 C23,8.8106 21.244,10.6976 19,10.9496 L19,16.4996 L19,16.9996 L19,18.5996 C19,19.3716 18.454,19.9996 17.783,19.9996 L17.5,19.9996 C17.5,21.1026 16.603,21.9996 15.5,21.9996 C14.397,21.9996 13.5,21.1026 13.5,19.9996 L6,19.9996 C6,21.1026 5.103,21.9996 4,21.9996 C2.897,21.9996 2,21.1026 2,19.9996 C2,19.9916 2.002,19.9836 2.003,19.9746 C1.434,19.8576 1,19.2866 1,18.5996 L1,16.9996 L1,16.4996 L1,14.0356 C1,13.5326 1.25,13.0666 1.668,12.7876 L3.971,11.2516 C4.218,11.0866 4.506,10.9996 4.803,10.9996 L6,10.9996 L6,9.9996 C6,8.8976 6.897,7.9996 8,7.9996 L14.276,7.9996 C14.108,7.5286 14,7.0286 14,6.4996 C14,4.0186 16.019,1.9996 18.5,1.9996 C20.981,1.9996 23,4.0186 23,6.4996 Z" id="Truck" fill="currentColor"></path>
        <path d="M17.4929185,8.09944933 C17.4789185,8.09944933 17.4649185,8.09944933 17.4509185,8.09744933 C17.3459185,8.08544933 17.2519185,8.03244933 17.1969185,7.95144933 L16.5499185,6.55344933 C16.4509185,6.40744933 16.5039185,6.21744933 16.6669185,6.12944933 C16.8299185,6.04144933 17.0429185,6.08844933 17.1409185,6.23444933 L17.5599185,7.03844933 L19.8759185,5.01944933 C20.0119185,4.89944933 20.2879185,4.84844933 20.4229185,4.96844933 C20.5579185,5.08844933 20.4999185,5.28444933 20.3649185,5.40444933 L17.7369185,8.00944933 C17.6719185,8.06844933 17.5839185,8.09944933 17.4929185,8.09944933" id="Check" fill="#3FAE3E"></path>
        <rect id="Padding" x="0" y="0" width="24" height="24"></rect>
    </g>
</svg>
