<?xml version="1.0" encoding="UTF-8"?>
<svg width="24px" height="24px"  version="1.1" xmlns="http://www.w3.org/2000/svg" xmlns:xlink="http://www.w3.org/1999/xlink">
    <!-- Generator: Sketch 52.6 (67491) - http://www.bohemiancoding.com/sketch -->
    <title>Orders Status/ic_order_routing</title>
    <desc>Created with Sketch.</desc>
    <g id="Orders-Status/ic_order_routing" stroke="none" stroke-width="1" fill="none" fill-rule="evenodd">
        <path d="M4.6006,5.2002 L2.5006,8.0002 L7.0946,8.0002 L7.8566,5.0002 L4.9996,5.0002 C4.8436,5.0002 4.6946,5.0752 4.6006,5.2002 Z M9.1096,5.0002 L8.8886,5.0002 L7.9996,8.5002 L7.9996,11.0002 L9.9996,11.0002 L9.9996,8.5612 L9.1096,5.0002 Z M16.4996,13.0002 C16.7766,13.0002 16.9996,13.2232 16.9996,13.5002 L16.9996,18.5002 C16.9996,19.3272 16.3276,20.0002 15.4996,20.0002 L2.4996,20.0002 C1.6726,20.0002 0.9996,19.3272 0.9996,18.5002 L0.9996,9.5002 L0.9996,8.5002 C0.9996,8.3912 1.0356,8.2862 1.1006,8.2002 L3.8006,4.6002 C4.0806,4.2242 4.5296,4.0002 4.9996,4.0002 L8.4996,4.0002 L9.4996,4.0002 L12.4996,4.0002 C12.7766,4.0002 12.9996,4.2232 12.9996,4.5002 C12.9996,4.7762 12.7766,5.0002 12.4996,5.0002 L10.1406,5.0002 L10.8906,8.0002 L11.4996,8.0002 C11.7766,8.0002 11.9996,8.2232 11.9996,8.5002 C11.9996,8.7762 11.7766,9.0002 11.4996,9.0002 L10.9996,9.0002 L10.9996,11.5002 C10.9996,11.7762 10.7766,12.0002 10.4996,12.0002 L7.4996,12.0002 C7.2236,12.0002 6.9996,11.7762 6.9996,11.5002 L6.9996,9.0002 L2.4996,9.0002 C2.2246,9.0002 1.9996,9.2242 1.9996,9.5002 L1.9996,18.5002 C1.9996,18.7752 2.2246,19.0002 2.4996,19.0002 L15.4996,19.0002 C15.7756,19.0002 15.9996,18.7752 15.9996,18.5002 L15.9996,13.5002 C15.9996,13.2232 16.2236,13.0002 16.4996,13.0002 Z M4,17 L4,14 L9,14 L9,17 L4,17 Z M5,16 L8,16 L8,15 L5,15 L5,16 Z" id="Shipping_Box" fill="currentColor"></path>
        <path d="M16.195,6.524 L16.195,3.451 L16.707,3.451 L16.707,6.524 L16.195,6.524 Z M16.195,7.549 L16.195,7.036 L16.707,7.036 L16.707,7.549 L16.195,7.549 Z M17.22,6.524 L17.22,3.451 L17.732,3.451 L17.732,6.524 L17.22,6.524 Z M17.22,7.549 L17.22,7.036 L17.732,7.036 L17.732,7.549 L17.22,7.549 Z M18.244,6.524 L18.244,3.451 L18.756,3.451 L18.756,6.524 L18.244,6.524 Z M18.244,7.549 L18.244,7.036 L18.756,7.036 L18.756,7.549 L18.244,7.549 Z M19.268,6.524 L19.268,3.451 L19.78,3.451 L19.78,6.524 L19.268,6.524 Z M19.268,7.549 L19.268,7.036 L19.78,7.036 L19.78,7.549 L19.268,7.549 Z M20.292,6.524 L20.292,3.451 L20.804,3.451 L20.804,6.524 L20.292,6.524 Z M20.292,7.549 L20.292,7.036 L20.804,7.036 L20.804,7.549 L20.292,7.549 Z M19.8706,8.7197 C21.1206,8.1847 21.9996,6.9437 21.9996,5.4997 C21.9996,3.5707 20.4296,1.9997 18.4996,1.9997 C16.5706,1.9997 14.9996,3.5707 14.9996,5.4997 C14.9996,7.4297 16.5706,8.9997 18.4996,8.9997 C18.9706,8.9997 19.4176,8.9047 19.8286,8.7347 L19.8446,8.7267 C19.8526,8.7227 19.8616,8.7227 19.8706,8.7197 Z M14.2876,7.0347 L12.3806,12.4947 L17.5376,9.8907 C16.0266,9.5597 14.8106,8.4657 14.2876,7.0347 Z M22.9996,5.4997 C22.9996,7.3677 21.8546,8.9727 20.2306,9.6517 L11.7256,13.9467 C11.6536,13.9827 11.5766,13.9997 11.4996,13.9997 C11.3816,13.9997 11.2636,13.9577 11.1706,13.8757 C11.0166,13.7407 10.9606,13.5277 11.0276,13.3347 L14.1136,4.5007 C14.1166,4.4907 14.1246,4.4847 14.1286,4.4757 C14.5956,2.4887 16.3726,0.9997 18.4996,0.9997 C20.9816,0.9997 22.9996,3.0187 22.9996,5.4997 Z" id="bar-code" fill="#EC008C"></path>
        <rect id="Padding" x="0" y="0" width="24" height="24"></rect>
    </g>
</svg>
