<?xml version="1.0" encoding="UTF-8"?>
<svg width="24px" height="24px"  version="1.1" xmlns="http://www.w3.org/2000/svg" xmlns:xlink="http://www.w3.org/1999/xlink">
    <!-- Generator: Sketch 52.6 (67491) - http://www.bohemiancoding.com/sketch -->
    <title>Orders Status/ic_order_shipping_in_progress</title>
    <desc>Created with Sketch.</desc>
    <g id="Orders-Status/ic_order_shipping_in_progress" stroke="none" stroke-width="1" fill="none" fill-rule="evenodd">
        <path d="M9,14 C7.273,14 6.547,13.862 6.508,12.602 C6.675,12.391 6.796,12.194 6.867,12.03 C7.687,12.675 8.635,13 9,13 C9.366,13 10.315,12.674 11.135,12.028 C11.208,12.196 11.318,12.392 11.492,12.609 C11.45,13.862 10.723,14 9,14 M5.94,7.851 C6.688,7.98 7.708,8 9,8 C10.291,8 11.31,7.98 12.058,7.852 C12.201,8.572 12.093,8.866 12.047,8.936 C12.013,8.988 11.98,8.999 12,9 C11.724,9 11.5,9.224 11.5,9.5 C11.5,11.151 9.299,11.986 9.003,12 C8.701,11.986 6.5,11.151 6.5,9.5 C6.5,9.224 6.241,8.953 5.965,8.953 C5.864,8.823 5.819,8.458 5.94,7.851 M9,2 C11.292,2 11.971,2.855 12,3 L12,5.019 C11.874,5.008 11.736,5.001 11.573,5 C11.253,4.858 10.314,4.5 9,4.5 C7.679,4.5 6.713,4.861 6.391,5 C6.243,5.001 6.116,5.006 6,5.015 L5.999,3.013 C6.029,2.855 6.708,2 9,2 M5.512,6.721 L5.567,6.608 C5.697,6.345 5.831,6.072 5.888,6.032 C5.946,6 6.241,6 6.5,6 L6.618,6 L6.724,5.947 C6.732,5.942 7.634,5.5 9,5.5 C10.339,5.5 11.216,5.937 11.231,5.944 L11.338,6 L11.46,6 C12.133,6 12.133,6 12.526,6.661 C12.217,7 10.044,7 9,7 C7.956,7 5.783,7 5.512,6.721 M13.327,12.839 C12.115,12.133 12.006,11.522 12,11.479 C11.996,11.391 11.963,11.312 11.919,11.241 C12.203,10.85 12.411,10.393 12.477,9.865 C12.599,9.798 12.72,9.701 12.823,9.569 C13.161,9.137 13.218,8.445 13.013,7.528 C13.16,7.436 13.287,7.331 13.369,7.198 C13.467,7.042 13.599,6.714 13.385,6.279 C13.237,5.979 13.118,5.752 13,5.574 L13,3 C13,2.17 11.759,1 9,1 C6.241,1 5,2.17 5,3 L5,5.561 C4.897,5.717 4.793,5.915 4.669,6.168 L4.615,6.279 C4.401,6.714 4.533,7.042 4.631,7.198 C4.713,7.331 4.84,7.436 4.987,7.528 C4.782,8.445 4.839,9.137 5.177,9.569 C5.28,9.701 5.401,9.798 5.523,9.865 C5.59,10.397 5.801,10.859 6.089,11.254 C6.044,11.32 6.009,11.395 6.001,11.477 C6,11.484 5.907,12.237 4.342,13.025 C1,14.14 1,16.456 1,18.5 C1,20.819 7.123,21 9,21 C9.05,21 10.235,20.998 11.679,20.87 C11.954,20.846 12.157,20.603 12.132,20.328 C12.108,20.053 11.878,19.859 11.59,19.874 C10.193,19.998 9.012,20 9,20 C7.618,20 6.174,19.891 4.956,19.701 C4.983,19.64 5,19.572 5,19.5 L5,17.5 C5,17.224 4.776,17 4.5,17 C4.224,17 4,17.224 4,17.5 L4,19.5 C4,19.509 4.005,19.517 4.005,19.525 C2.81,19.266 2,18.912 2,18.5 C2,16.547 2,14.86 4.724,13.947 C5.08,13.77 5.363,13.589 5.617,13.411 C6.063,14.995 7.731,15 9,15 C10.269,15 11.936,14.995 12.382,13.412 C12.52,13.509 12.657,13.605 12.823,13.702 C12.903,13.749 12.989,13.771 13.075,13.771 C13.247,13.771 13.414,13.682 13.507,13.522 C13.646,13.283 13.565,12.978 13.327,12.839" id="Delivery_Man" fill="currentColor"></path>
        <path d="M22,21.9131 C22,21.9631 21.967,22.0001 21.938,22.0001 L14.063,22.0001 C14.033,22.0001 14,21.9641 14,21.9131 L14,17.5001 L14,17.1261 C14,17.0581 14.046,17.0001 14.1,17.0001 L16.6,17.0001 L16.6,17.5001 C16.6,17.7761 16.824,18.0001 17.1,18.0001 L18.9,18.0001 C19.176,18.0001 19.4,17.7761 19.4,17.5001 L19.398,17.0001 L21.9,17.0001 C21.954,17.0001 22,17.0581 22,17.1261 L22,17.5001 L22,21.9131 Z M15.6,14.0001 L16.915,14.0001 L16.6,16.0001 L14.1,16.0001 C14.081,16.0001 14.065,16.0101 14.046,16.0111 L15.6,14.0001 Z M18.075,14.0001 L18.4,16.0001 L18.4,17.0001 L17.598,17.0001 L17.596,16.5221 C17.596,16.5151 17.6,16.5081 17.6,16.5001 C17.6,16.4921 17.596,16.4851 17.596,16.4761 L17.594,16.0791 L17.926,14.0001 L18.075,14.0001 Z M20.418,14.0551 C20.434,14.0861 20.452,14.1151 20.474,14.1421 L21.949,16.0101 C21.932,16.0101 21.917,16.0001 21.9,16.0001 L19.394,16.0001 L19.394,15.9211 L19.086,14.0001 L20.329,14.0001 C20.367,14.0001 20.401,14.0201 20.418,14.0551 Z M22.892,15.5911 L21.286,13.5571 C21.09,13.2121 20.729,13.0001 20.329,13.0001 L18.5,13.0001 L17.5,13.0001 L15.6,13.0001 C15.255,13.0001 14.926,13.1651 14.72,13.4401 L13.1,15.6011 C13.035,15.6861 13,15.7921 13,15.9001 L13,17.1261 L13,17.5001 L13,21.9131 C13,22.5131 13.477,23.0001 14.063,23.0001 L21.938,23.0001 C22.523,23.0001 23,22.5131 23,21.9131 L23,17.5001 L23,17.1261 L23,15.9001 C23,15.7881 22.962,15.6791 22.892,15.5911 Z" id="Shipping_Box" fill="#EC008C"></path>
        <rect id="Padding" x="0" y="0" width="24" height="24"></rect>
    </g>
</svg>
