<?xml version="1.0" encoding="UTF-8"?>
<svg width="24px" height="24px"  version="1.1" xmlns="http://www.w3.org/2000/svg" xmlns:xlink="http://www.w3.org/1999/xlink">
    <!-- Generator: Sketch 52.6 (67491) - http://www.bohemiancoding.com/sketch -->
    <title>Orders Status/ic_order_delivery_step</title>
    <desc>Created with Sketch.</desc>
    <g id="Orders-Status/ic_order_delivery_step" stroke="none" stroke-width="1" fill="none" fill-rule="evenodd">
        <path d="M10,20.0107 L14,20.0107 L14,13.9997 L10,13.9997 L10,20.0107 Z M21.973,10.3127 C21.79,9.4297 20.708,8.8017 20.63,8.7617 L19.844,8.2057 C19.619,8.0457 19.307,8.1007 19.147,8.3247 C18.988,8.5507 19.042,8.8637 19.267,9.0227 L20.097,9.6057 C20.43,9.7937 20.93,10.2007 20.994,10.5157 C21.007,10.5777 21.007,10.6507 20.935,10.7447 C20.767,10.9507 20.615,10.9887 20.515,10.9967 C20.191,11.0317 19.802,10.7787 19.645,10.6497 L18.264,9.6927 C18.037,9.5347 17.726,9.5917 17.568,9.8187 C17.411,10.0457 17.468,10.3577 17.695,10.5147 L19,11.4157 L19,19.6107 C19,19.8267 18.771,20.0107 18.5,20.0107 L15,20.0107 L15,13.4997 C15,13.2237 14.776,12.9997 14.5,12.9997 L9.5,12.9997 C9.224,12.9997 9,13.2237 9,13.4997 L9,20.0107 L5.5,20.0107 C5.229,20.0107 5,19.8267 5,19.6107 L5,11.4197 L11.724,6.7647 C11.89,6.6557 12.114,6.6547 12.271,6.7577 L12.764,7.0987 C12.991,7.2567 13.302,7.1977 13.459,6.9717 C13.617,6.7447 13.56,6.4337 13.333,6.2767 L12.831,5.9287 C12.328,5.5997 11.678,5.5967 11.165,5.9357 L4.317,10.6787 C4.198,10.7787 3.812,11.0317 3.485,10.9967 C3.385,10.9887 3.233,10.9507 3.074,10.7567 C2.993,10.6507 2.993,10.5777 3.006,10.5157 C3.07,10.2007 3.57,9.7937 3.947,9.5777 L11.723,4.0847 C11.893,3.9707 12.121,3.9707 12.281,4.0787 L13.204,4.7337 C13.43,4.8907 13.742,4.8397 13.901,4.6147 C14.061,4.3887 14.007,4.0767 13.782,3.9167 L12.849,3.2557 C12.345,2.9157 11.666,2.9157 11.155,3.2627 L3.415,8.7337 C3.292,8.8017 2.21,9.4297 2.027,10.3127 C1.95,10.6837 2.038,11.0467 2.29,11.3757 C2.586,11.7407 2.97,11.9547 3.398,11.9937 C3.447,11.9977 3.496,11.9997 3.544,11.9997 C3.706,11.9997 3.856,11.9687 4,11.9317 L4,19.6107 C4,20.3827 4.673,21.0107 5.5,21.0107 L18.5,21.0107 C19.327,21.0107 20,20.3827 20,19.6107 L20,11.9317 C20.144,11.9687 20.294,11.9997 20.456,11.9997 C20.504,11.9997 20.553,11.9977 20.602,11.9937 C21.03,11.9547 21.414,11.7407 21.72,11.3647 C21.962,11.0467 22.05,10.6837 21.973,10.3127 Z" id="House" fill="currentColor"></path>
        <path d="M16.2344,10 C16.2034,10 16.1724,9.998 16.1404,9.994 C15.9034,9.966 15.6924,9.831 15.5684,9.628 L14.1124,6.133 C13.8904,5.769 14.0074,5.296 14.3764,5.075 C14.7434,4.855 15.2214,4.972 15.4444,5.336 L16.3864,7.348 L21.5964,2.3 C21.9004,1.999 22.5234,1.871 22.8264,2.171 C23.1304,2.472 23.0014,2.96 22.6974,3.261 L16.7844,9.774 C16.6374,9.92 16.4394,10 16.2344,10" id="Check" fill="#EC008C"></path>
        <rect id="Padding" x="0" y="0" width="24" height="24"></rect>
    </g>
</svg>
