<?xml version="1.0" encoding="UTF-8"?>
<svg width="24px" height="24px"  version="1.1" xmlns="http://www.w3.org/2000/svg" xmlns:xlink="http://www.w3.org/1999/xlink">
    <!-- Generator: Sketch 52.6 (67491) - http://www.bohemiancoding.com/sketch -->
    <title>Orders Status/ic_order_refund_validated</title>
    <desc>Created with Sketch.</desc>
    <g id="Orders-Status/ic_order_refund_validated" stroke="none" stroke-width="1" fill="none" fill-rule="evenodd">
        <path d="M18.5,18 C20.43,18 22,16.43 22,14.5 C22,12.57 20.43,11 18.5,11 C16.57,11 15,12.57 15,14.5 C15,16.43 16.57,18 18.5,18 Z M2,16.453 C2,16.755 2.233,17 2.52,17 L14.762,17 C14.281,16.284 14,15.425 14,14.5 C14,13.079 14.675,11.825 15.706,11 L2,11 L2,16.453 Z M2.52,7 C2.233,7 2,7.245 2,7.547 L2,9 L18,9 L18,7.547 C18,7.245 17.767,7 17.48,7 L2.52,7 Z M19,10.051 C21.244,10.303 23,12.189 23,14.5 C23,16.981 20.981,19 18.5,19 C17.439,19 16.477,18.616 15.706,18 L2.52,18 C1.682,18 1,17.306 1,16.453 L1,7.547 C1,6.694 1.682,6 2.52,6 L17.48,6 C18.318,6 19,6.694 19,7.547 L19,10.051 Z M3,14 L3,13 L11,13 L11,14 L3,14 Z M3,16 L3,15 L9,15 L9,16 L3,16 Z" id="Card" fill="currentColor"></path>
        <path d="M17.4932,16.0996 C17.4792,16.0996 17.4652,16.0996 17.4512,16.0976 C17.3462,16.0856 17.2522,16.0326 17.1972,15.9516 L16.5502,14.5536 C16.4512,14.4076 16.5042,14.2176 16.6672,14.1296 C16.8302,14.0416 17.0432,14.0886 17.1412,14.2346 L17.5602,15.0386 L19.8762,13.0196 C20.0122,12.8996 20.2882,12.8486 20.4232,12.9686 C20.5582,13.0886 20.5002,13.2846 20.3652,13.4046 L17.7372,16.0096 C17.6722,16.0686 17.5842,16.0996 17.4932,16.0996" id="Check" fill="#3FAE3E"></path>
        <rect id="Padding" x="0" y="0" width="24" height="24"></rect>
    </g>
</svg>
