<?xml version="1.0" encoding="UTF-8"?>
<svg width="24px" height="24px"  version="1.1" xmlns="http://www.w3.org/2000/svg" xmlns:xlink="http://www.w3.org/1999/xlink">
    <!-- Generator: Sketch 52.6 (67491) - http://www.bohemiancoding.com/sketch -->
    <title>Orders Status/ic_order_back_canceled_step</title>
    <desc>Created with Sketch.</desc>
    <g id="Orders-Status/ic_order_back_canceled_step" stroke="none" stroke-width="1" fill="none" fill-rule="evenodd">
        <path d="M22.5,13 C22.776,13 23,13.224 23,13.5 C23,13.776 22.776,14 22.5,14 L20.5,14 C20.224,14 20,13.776 20,13.5 C20,13.224 20.224,13 20.5,13 L22.5,13 Z M21.5,15 C21.776,15 22,15.224 22,15.5 C22,15.776 21.776,16 21.5,16 L20.5,16 C20.224,16 20,15.776 20,15.5 C20,15.224 20.224,15 20.5,15 L21.5,15 Z M18,18.5996 L18,16.9996 L7,16.9996 L6,16.9996 L2,16.9996 L2,18.5996 C2,18.8396 2.131,18.9996 2.217,18.9996 L2.278,18.9996 C2.625,18.4056 3.264,17.9996 4,17.9996 C4.736,17.9996 5.375,18.4056 5.722,18.9996 L13.778,18.9996 C14.125,18.4056 14.764,17.9996 15.5,17.9996 C16.236,17.9996 16.875,18.4056 17.222,18.9996 L17.783,18.9996 C17.869,18.9996 18,18.8396 18,18.5996 Z M15.5,20.9996 C16.052,20.9996 16.5,20.5516 16.5,19.9996 C16.5,19.4486 16.052,18.9996 15.5,18.9996 C14.948,18.9996 14.5,19.4486 14.5,19.9996 C14.5,20.5516 14.948,20.9996 15.5,20.9996 Z M4,20.9996 C4.552,20.9996 5,20.5516 5,19.9996 C5,19.4486 4.552,18.9996 4,18.9996 C3.448,18.9996 3,19.4486 3,19.9996 C3,20.5516 3.448,20.9996 4,20.9996 Z M2.223,13.6196 C2.083,13.7116 2,13.8676 2,14.0356 L2,15.9996 L6,15.9996 L6,11.9996 L4.803,11.9996 C4.704,11.9996 4.607,12.0296 4.525,12.0836 L2.223,13.6196 Z M8,8.9996 C7.383,8.9996 7,9.5196 7,9.9996 L7,15.9996 L18,15.9996 L18,10.9496 C16.654,10.7976 15.481,10.0726 14.762,8.9996 L8,8.9996 Z M18.5,2.9996 C16.57,2.9996 15,4.5706 15,6.4996 C15,8.4296 16.57,9.9996 18.5,9.9996 C20.43,9.9996 22,8.4296 22,6.4996 C22,4.5706 20.43,2.9996 18.5,2.9996 Z M23,6.4996 C23,8.8106 21.244,10.6976 19,10.9496 L19,16.4996 L19,16.9996 L19,18.5996 C19,19.3716 18.454,19.9996 17.783,19.9996 L17.5,19.9996 C17.5,21.1026 16.603,21.9996 15.5,21.9996 C14.397,21.9996 13.5,21.1026 13.5,19.9996 L6,19.9996 C6,21.1026 5.103,21.9996 4,21.9996 C2.897,21.9996 2,21.1026 2,19.9996 C2,19.9916 2.002,19.9836 2.003,19.9746 C1.434,19.8576 1,19.2866 1,18.5996 L1,16.9996 L1,16.4996 L1,14.0356 C1,13.5326 1.25,13.0666 1.668,12.7876 L3.971,11.2516 C4.218,11.0866 4.506,10.9996 4.803,10.9996 L6,10.9996 L6,9.9996 C6,8.8976 6.897,7.9996 8,7.9996 L14.276,7.9996 C14.108,7.5286 14,7.0286 14,6.4996 C14,4.0186 16.019,1.9996 18.5,1.9996 C20.981,1.9996 23,4.0186 23,6.4996 Z" id="Truck" fill="currentColor"></path>
        <path d="M18.90475,6.5 L20.41675,4.987 C20.52875,4.876 20.52875,4.695 20.41675,4.584 C20.30475,4.472 20.12475,4.472 20.01275,4.584 L18.50075,6.096 L16.98775,4.584 C16.87675,4.472 16.69575,4.472 16.58475,4.584 C16.47175,4.695 16.47175,4.876 16.58475,4.987 L18.09575,6.5 L16.58475,8.013 C16.47175,8.124 16.47175,8.305 16.58475,8.416 C16.63975,8.472 16.71375,8.5 16.78675,8.5 C16.85875,8.5 16.93175,8.472 16.98775,8.416 L18.50075,6.904 L20.01275,8.416 C20.06875,8.472 20.14175,8.5 20.21475,8.5 C20.28775,8.5 20.36075,8.472 20.41675,8.416 C20.52875,8.305 20.52875,8.124 20.41675,8.013 L18.90475,6.5 Z" id="Cross" fill="#FF0000"></path>
        <rect id="Padding" x="0" y="0" width="24" height="24"></rect>
    </g>
</svg>
