<?xml version="1.0" encoding="UTF-8"?>
<svg width="24px" height="24px"  version="1.1" xmlns="http://www.w3.org/2000/svg" xmlns:xlink="http://www.w3.org/1999/xlink">
    <!-- Generator: Sketch 52.6 (67491) - http://www.bohemiancoding.com/sketch -->
    <title>Player/ic_chapters</title>
    <desc>Created with Sketch.</desc>
    <g id="Player/ic_chapters" stroke="none" stroke-width="1" fill="none" fill-rule="evenodd">
        <path d="M4.0004,6.2983 L3.9964,6.2983 L3.9964,7.6983 C3.9964,7.8633 3.8624,7.9973 3.6984,7.9973 L2.2984,7.9973 C2.1334,7.9973 2.0004,7.8633 2.0004,7.6983 L2.0004,6.2983 C2.0004,6.1333 2.1334,6.0003 2.2984,6.0003 L3.7014,6.0003 C3.8664,6.0003 4.0004,6.1333 4.0004,6.2983 Z M22.0004,6.2983 L21.9964,6.2983 L21.9964,7.7013 C21.9964,7.8663 21.8434,8.0003 21.6544,8.0003 L6.3424,8.0003 C6.1524,8.0003 6.0004,7.8663 6.0004,7.7013 L6.0004,6.2983 C6.0004,6.1333 6.1524,6.0003 6.3424,6.0003 L21.6584,6.0003 C21.8474,6.0003 22.0004,6.1333 22.0004,6.2983 Z M4.0004,16.2983 L3.9964,16.2983 L3.9964,17.6983 C3.9964,17.8633 3.8624,17.9973 3.6984,17.9973 L2.2984,17.9973 C2.1334,17.9973 2.0004,17.8633 2.0004,17.6983 L2.0004,16.2983 C2.0004,16.1333 2.1334,16.0003 2.2984,16.0003 L3.7014,16.0003 C3.8664,16.0003 4.0004,16.1333 4.0004,16.2983 Z M22.0004,16.2983 L21.9964,16.2983 L21.9964,17.7013 C21.9964,17.8663 21.8434,18.0003 21.6544,18.0003 L6.3424,18.0003 C6.1524,18.0003 6.0004,17.8663 6.0004,17.7013 L6.0004,16.2983 C6.0004,16.1333 6.1524,16.0003 6.3424,16.0003 L21.6584,16.0003 C21.8474,16.0003 22.0004,16.1333 22.0004,16.2983 Z M4.0004,11.2983 L3.9964,11.2983 L3.9964,12.6983 C3.9964,12.8633 3.8624,12.9973 3.6984,12.9973 L2.2984,12.9973 C2.1334,12.9973 2.0004,12.8633 2.0004,12.6983 L2.0004,11.2983 C2.0004,11.1333 2.1334,11.0003 2.2984,11.0003 L3.7014,11.0003 C3.8664,11.0003 4.0004,11.1333 4.0004,11.2983 Z M22.0004,11.2983 L21.9964,11.2983 L21.9964,12.7013 C21.9964,12.8663 21.8434,13.0003 21.6544,13.0003 L6.3424,13.0003 C6.1524,13.0003 6.0004,12.8663 6.0004,12.7013 L6.0004,11.2983 C6.0004,11.1333 6.1524,11.0003 6.3424,11.0003 L21.6584,11.0003 C21.8474,11.0003 22.0004,11.1333 22.0004,11.2983 Z" id="ic_chapters" fill="currentColor"></path>
        <rect id="Padding" x="0" y="0" width="24" height="24"></rect>
    </g>
</svg>