<?xml version="1.0" encoding="UTF-8"?>
<svg width="24px" height="24px"  version="1.1" xmlns="http://www.w3.org/2000/svg" xmlns:xlink="http://www.w3.org/1999/xlink">
    <!-- Generator: Sketch 52.6 (67491) - http://www.bohemiancoding.com/sketch -->
    <title>Player/ic_fullscreen_enter</title>
    <desc>Created with Sketch.</desc>
    <g id="Player/ic_fullscreen_enter" stroke="none" stroke-width="1" fill="none" fill-rule="evenodd">
        <path d="M20.9184,14.0005 C21.5144,14.0005 22.0004,14.4845 22.0004,15.0785 L22.0004,20.9285 C22.0004,21.5225 21.5184,22.0005 20.9224,22.0005 L15.0774,22.0005 C14.4814,22.0005 14.0004,21.5155 14.0004,20.9215 C14.0004,20.3265 14.4814,19.8425 15.0774,19.8425 L19.8374,19.8425 L19.8374,15.0755 C19.8374,14.4805 20.3224,14.0005 20.9184,14.0005 Z M3.0814,10.0005 C2.4854,10.0005 2.0004,9.5165 2.0004,8.9225 L2.0004,3.0815 C2.0004,2.4875 2.4854,2.0005 3.0774,2.0005 L8.9224,2.0005 C9.5184,2.0005 10.0004,2.4835 10.0004,3.0775 C10.0004,3.6715 9.5184,4.1545 8.9224,4.1545 L4.1634,4.1545 L4.1634,8.9265 C4.1634,9.5205 3.6774,10.0005 3.0814,10.0005 Z M21.9584,2.7183 C21.9854,2.8093 22.0004,2.9043 22.0004,3.0013 L22.0004,8.4133 C22.0004,8.9633 21.5524,9.4073 21.0024,9.4073 C20.4524,9.4073 20.0044,8.9633 20.0044,8.4133 L20.0044,5.4063 L15.6954,9.7123 C15.5024,9.9053 15.2504,10.0033 14.9954,10.0033 C14.7394,10.0033 14.4874,9.9083 14.2914,9.7123 C13.9024,9.3233 13.9024,8.6943 14.2914,8.3053 L18.6014,3.9993 L15.6144,3.9993 C15.0644,3.9993 14.6204,3.5513 14.6204,3.0013 C14.6204,2.4513 15.0644,2.0043 15.6144,2.0043 L21.0064,2.0043 C21.0904,2.0043 21.1664,2.0183 21.2434,2.0353 L21.2434,2.0383 C21.2614,2.0423 21.2754,2.0463 21.2894,2.0493 L21.2934,2.0493 C21.3074,2.0533 21.3204,2.0603 21.3354,2.0633 L21.3384,2.0633 C21.3524,2.0673 21.3624,2.0733 21.3774,2.0773 C21.3804,2.0773 21.3804,2.0803 21.3844,2.0803 C21.3944,2.0843 21.4084,2.0883 21.4194,2.0953 C21.4224,2.0953 21.4264,2.0983 21.4294,2.0983 C21.4394,2.1053 21.4504,2.1093 21.4614,2.1153 C21.4644,2.1193 21.4684,2.1193 21.4714,2.1223 C21.4814,2.1303 21.4924,2.1333 21.5034,2.1403 C21.5064,2.1403 21.5104,2.1443 21.5064,2.1473 C21.5174,2.1513 21.5274,2.1573 21.5374,2.1643 C21.5414,2.1683 21.5454,2.1683 21.5484,2.1723 C21.5594,2.1793 21.5694,2.1863 21.5794,2.1933 C21.5834,2.1973 21.5834,2.1973 21.5874,2.1993 C21.6014,2.2063 21.6114,2.2173 21.6254,2.2283 C21.6914,2.2813 21.7514,2.3433 21.8004,2.4093 C21.8004,2.4133 21.8044,2.4133 21.8044,2.4173 C21.8144,2.4273 21.8214,2.4383 21.8284,2.4483 C21.8324,2.4513 21.8324,2.4553 21.8354,2.4593 C21.8424,2.4693 21.8494,2.4803 21.8564,2.4903 C21.8594,2.4933 21.8594,2.4973 21.8634,2.5013 C21.8704,2.5113 21.8744,2.5223 21.8814,2.5323 C21.8844,2.5353 21.8844,2.5393 21.8884,2.5433 C21.8954,2.5573 21.8984,2.5683 21.9054,2.5773 C21.9054,2.5813 21.9084,2.5853 21.9084,2.5883 C21.9164,2.5993 21.9234,2.6103 21.9264,2.6233 C21.9304,2.6273 21.9304,2.6273 21.9304,2.6303 C21.9344,2.6413 21.9404,2.6553 21.9434,2.6693 L21.9434,2.6723 C21.9474,2.6903 21.9544,2.7033 21.9584,2.7183 Z M8.3021,14.2915 C8.6911,13.9025 9.3211,13.9025 9.7081,14.2915 C10.0971,14.6835 10.0971,15.3105 9.7081,15.6985 L5.4011,20.0045 L8.3931,20.0045 C8.9431,20.0045 9.3871,20.4525 9.3871,21.0025 C9.3871,21.5525 8.9431,22.0005 8.3931,22.0005 L3.0041,22.0005 L2.8151,22.0005 C2.8011,21.9655 2.7831,21.9855 2.7701,21.9825 L2.7701,21.9755 C2.7561,21.9725 2.7411,21.9685 2.7281,21.9655 L2.7241,21.9655 C2.7101,21.9615 2.6971,21.9545 2.6821,21.9505 C2.6791,21.9475 2.6791,21.9475 2.6751,21.9475 C2.6611,21.9435 2.6511,21.9375 2.6371,21.9335 C2.6331,21.9335 2.6301,21.9305 2.6261,21.9305 C2.6131,21.9265 2.6021,21.9195 2.5911,21.9155 C2.5881,21.9155 2.5841,21.9155 2.5801,21.9125 C2.5711,21.9085 2.5601,21.9015 2.5491,21.8985 C2.5461,21.8955 2.5381,21.8955 2.5351,21.8915 C2.5251,21.8845 2.5181,21.8815 2.5071,21.8735 C2.5041,21.8735 2.4961,21.8705 2.4931,21.8665 C2.4831,21.8595 2.4761,21.8565 2.4651,21.8495 C2.4581,21.8495 2.4541,21.8465 2.4511,21.8425 C2.4411,21.8355 2.4301,21.8285 2.4201,21.8215 C2.4161,21.8175 2.4121,21.8175 2.4091,21.8145 C2.3991,21.8045 2.3851,21.7975 2.3741,21.7865 L2.3701,21.7825 C2.3191,21.7405 2.2701,21.6915 2.2281,21.6395 C2.2241,21.6395 2.2241,21.6365 2.2241,21.6365 C2.2131,21.6255 2.2061,21.6115 2.1961,21.6015 C2.1931,21.5975 2.1931,21.5945 2.1891,21.5905 C2.1821,21.5795 2.1751,21.5695 2.1681,21.5595 C2.1681,21.5525 2.1641,21.5485 2.1601,21.5445 C2.1541,21.5345 2.1511,21.5275 2.1441,21.5175 C2.1401,21.5135 2.1401,21.5065 2.1361,21.5025 C2.1291,21.4955 2.1221,21.4855 2.1181,21.4755 C2.1151,21.4685 2.1151,21.4645 2.1121,21.4605 C2.1091,21.4505 2.1021,21.4395 2.0981,21.4295 C2.0981,21.4265 2.0941,21.4225 2.0941,21.4185 C2.0911,21.4085 2.0841,21.3945 2.0801,21.3845 C2.0801,21.3845 2.0761,21.3805 2.0761,21.3765 C2.0731,21.3625 2.0671,21.3525 2.0631,21.3385 C2.0601,21.3385 2.0601,21.3345 2.0601,21.3345 C2.0561,21.3205 2.0491,21.3075 2.0451,21.2925 L2.0451,21.2895 C2.0381,21.2745 2.0341,21.2585 2.0311,21.2435 C2.0101,21.1665 2.0001,21.0865 2.0001,21.0055 L2.0001,15.5975 C2.0001,15.0475 2.4481,14.5995 2.9971,14.5995 C3.5461,14.5995 3.9941,15.0445 3.9941,15.5935 L3.9941,18.6015 L8.3021,14.2915 Z" id="ic_fullscreen_enter" fill="currentColor"></path>
        <rect id="Padding" x="0" y="0" width="24" height="24"></rect>
    </g>
</svg>