<?xml version="1.0" encoding="UTF-8"?>
<svg width="24px" height="24px"  version="1.1" xmlns="http://www.w3.org/2000/svg" xmlns:xlink="http://www.w3.org/1999/xlink">
    <!-- Generator: Sketch 52.6 (67491) - http://www.bohemiancoding.com/sketch -->
    <title>Player/ic_fullscreen_exit</title>
    <desc>Created with Sketch.</desc>
    <g id="Player/ic_fullscreen_exit" stroke="none" stroke-width="1" fill="none" fill-rule="evenodd">
        <path d="M20.9179,14.0005 C21.5139,14.0005 21.9989,14.4805 21.9989,15.0755 L21.9989,20.9285 C21.9989,21.5225 21.5139,22.0005 20.9179,22.0005 L15.0769,22.0005 C14.4809,22.0005 13.9989,21.5155 13.9989,20.9205 C13.9989,20.3255 14.4809,19.8415 15.0769,19.8415 L19.8369,19.8415 L19.8369,15.0755 C19.8369,14.4805 20.3229,14.0005 20.9179,14.0005 Z M3.0814,10.0005 C2.4854,10.0005 1.9994,9.5205 1.9994,8.9265 L1.9994,3.0855 C1.9994,2.4915 2.4814,2.0005 3.0784,2.0005 L8.9224,2.0005 C9.5184,2.0005 9.9994,2.4835 9.9994,3.0775 C9.9994,3.6715 9.5184,4.1545 8.9224,4.1545 L4.1634,4.1545 L4.1634,8.9265 C4.1634,9.5205 3.6774,10.0005 3.0814,10.0005 Z M14.0487,9.2759 C14.0207,9.1889 13.9997,9.0939 13.9997,8.9929 L13.9997,3.5909 C13.9997,3.0419 14.4467,2.5979 14.9957,2.5979 C15.5437,2.5979 15.9907,3.0419 15.9907,3.5909 L15.9907,6.5939 L20.2987,2.2909 C20.4937,2.0979 20.7527,2.0009 21.0067,2.0009 C21.2587,2.0009 21.5137,2.0979 21.7097,2.2939 C22.0967,2.6819 22.0967,3.3149 21.7097,3.7029 L17.4197,8.0069 L20.3997,8.0069 C20.9477,8.0069 21.3917,8.4549 21.3917,9.0039 C21.3917,9.5519 20.9477,10.0009 20.3997,10.0009 L15.0197,10.0009 C14.9357,10.0009 14.8597,9.9789 14.7827,9.9619 L14.7827,9.9509 C14.7647,9.9479 14.7507,9.9439 14.7367,9.9409 L14.7337,9.9409 C14.7197,9.9369 14.7057,9.9299 14.6917,9.9259 L14.6887,9.9259 C14.6737,9.9229 14.6637,9.9169 14.6497,9.9129 C14.6467,9.9129 14.6467,9.9089 14.6427,9.9089 C14.6317,9.9059 14.6177,9.9019 14.6077,9.8949 C14.6047,9.8949 14.6007,9.8919 14.5977,9.8919 C14.5867,9.8839 14.5767,9.8809 14.5657,9.8749 C14.5627,9.8709 14.5587,9.8709 14.5557,9.8669 C14.5447,9.8599 14.5347,9.8569 14.5237,9.8499 C14.5167,9.8459 14.5137,9.8459 14.5097,9.8419 C14.4997,9.8389 14.4887,9.8329 14.4787,9.8249 C14.4747,9.8219 14.4717,9.8219 14.4677,9.8179 C14.4577,9.8109 14.4467,9.8039 14.4367,9.7969 C14.4327,9.7939 14.4327,9.7939 14.4297,9.7909 C14.4157,9.7839 14.4047,9.7729 14.3907,9.7619 C14.3247,9.7099 14.2657,9.6469 14.2167,9.5809 C14.2167,9.5769 14.2137,9.5769 14.2137,9.5739 C14.2027,9.5629 14.1957,9.5519 14.1887,9.5419 C14.1847,9.5389 14.1847,9.5349 14.1817,9.5319 C14.1747,9.5209 14.1677,9.5099 14.1607,9.5009 C14.1567,9.4969 14.1567,9.4929 14.1537,9.4899 C14.1467,9.4789 14.1437,9.4679 14.1357,9.4589 C14.1327,9.4549 14.1327,9.4509 14.1297,9.4479 C14.1227,9.4329 14.1187,9.4229 14.1117,9.4129 C14.1117,9.4089 14.1087,9.4059 14.1087,9.4019 C14.1017,9.3919 14.0937,9.3809 14.0907,9.3669 C14.0907,9.3639 14.0877,9.3639 14.0877,9.3599 C14.0837,9.3499 14.0767,9.3359 14.0727,9.3219 L14.0697,9.3179 C14.0627,9.3039 14.0557,9.2909 14.0527,9.2759 L14.0487,9.2759 Z M3.6976,21.7017 C3.3096,22.0917 2.6806,22.0977 2.2926,21.7087 C1.9046,21.3187 1.9016,20.6937 2.2896,20.3047 L6.5886,15.9977 L3.6066,15.9977 C3.0576,15.9977 2.6146,15.5487 2.6146,14.9977 C2.6146,14.4467 3.0576,13.9977 3.6066,13.9977 L8.9896,13.9977 L9.1786,13.9977 C9.1926,14.0317 9.2096,14.0007 9.2236,14.0047 L9.2236,14.0007 C9.2386,14.0047 9.2516,14.0077 9.2656,14.0117 L9.2696,14.0117 C9.2836,14.0147 9.2976,14.0217 9.3116,14.0247 C9.3146,14.0287 9.3146,14.0287 9.3186,14.0287 C9.3326,14.0317 9.3426,14.0397 9.3566,14.0427 C9.3606,14.0427 9.3636,14.0467 9.3676,14.0467 C9.3816,14.0497 9.3916,14.0567 9.4026,14.0597 C9.4056,14.0597 9.4086,14.0597 9.4126,14.0637 C9.4236,14.0667 9.4336,14.0747 9.4446,14.0777 C9.4476,14.0817 9.4546,14.0817 9.4586,14.0847 C9.4686,14.0927 9.4756,14.0957 9.4866,14.1017 C9.4896,14.1017 9.4966,14.1057 9.5006,14.1097 C9.5106,14.1167 9.5176,14.1197 9.5286,14.1277 C9.5346,14.1277 9.5386,14.1307 9.5416,14.1347 C9.5526,14.1407 9.5626,14.1477 9.5736,14.1547 C9.5766,14.1587 9.5806,14.1587 9.5836,14.1617 C9.5946,14.1727 9.6086,14.1797 9.6186,14.1897 L9.6226,14.1937 C9.6746,14.2357 9.7236,14.2847 9.7656,14.3377 C9.7696,14.3377 9.7696,14.3417 9.7696,14.3417 C9.7796,14.3517 9.7866,14.3657 9.7976,14.3767 C9.8006,14.3797 9.8006,14.3837 9.8036,14.3867 C9.8116,14.3967 9.8186,14.4077 9.8246,14.4187 C9.8246,14.4257 9.8286,14.4297 9.8326,14.4317 C9.8396,14.4427 9.8426,14.4497 9.8496,14.4607 C9.8536,14.4647 9.8536,14.4717 9.8566,14.4737 C9.8636,14.4817 9.8706,14.4917 9.8746,14.5027 C9.8776,14.5097 9.8776,14.5137 9.8816,14.5157 C9.8846,14.5267 9.8916,14.5377 9.8946,14.5487 C9.8946,14.5517 9.8986,14.5557 9.8986,14.5587 C9.9026,14.5687 9.9086,14.5837 9.9126,14.5947 C9.9126,14.5947 9.9156,14.5977 9.9156,14.6007 C9.9196,14.6147 9.9266,14.6257 9.9296,14.6397 C9.9336,14.6397 9.9336,14.6427 9.9336,14.6427 C9.9366,14.6567 9.9446,14.6717 9.9476,14.6847 L9.9476,14.6887 C9.9506,14.7027 9.9576,14.7207 9.9616,14.7337 L9.9656,14.7337 C9.9826,14.8107 9.9996,14.8917 9.9996,14.9727 L9.9996,20.3957 C9.9996,20.9467 9.5526,21.3917 9.0036,21.3917 C8.4546,21.3917 8.0076,20.9467 8.0076,20.3957 L8.0076,17.3807 L3.6976,21.7017 Z" id="ic_fullscreen_exit" fill="currentColor"></path>
        <rect id="Padding" x="0" y="0" width="24" height="24"></rect>
    </g>
</svg>