<?xml version="1.0" encoding="UTF-8"?>
<svg width="24px" height="24px"  version="1.1" xmlns="http://www.w3.org/2000/svg" xmlns:xlink="http://www.w3.org/1999/xlink">
    <!-- Generator: Sketch 52.6 (67491) - http://www.bohemiancoding.com/sketch -->
    <title>Player/ic_play_circle</title>
    <desc>Created with Sketch.</desc>
    <g id="Player/ic_play_circle" stroke="none" stroke-width="1" fill="none" fill-rule="evenodd">
        <path d="M12.0004,22.9995 C18.0654,22.9995 23.0004,18.0655 23.0004,11.9995 C23.0004,5.9355 18.0654,0.9995 12.0004,0.9995 C5.9354,0.9995 1.0004,5.9355 1.0004,11.9995 C1.0004,18.0655 5.9354,22.9995 12.0004,22.9995 Z M12.0004,-0.0005 C18.6274,-0.0005 24.0004,5.3725 24.0004,11.9995 C24.0004,18.6275 18.6274,23.9995 12.0004,23.9995 C5.3724,23.9995 0.0004,18.6275 0.0004,11.9995 C0.0004,5.3725 5.3724,-0.0005 12.0004,-0.0005 Z M9.7709,7.0796 L16.7709,11.5796 C16.9139,11.6726 16.9999,11.8306 16.9999,12.0006 C16.9999,12.1706 16.9139,12.3286 16.7709,12.4216 L9.7709,16.9216 C9.6889,16.9746 9.5939,17.0006 9.4999,17.0006 C9.4179,17.0006 9.3349,16.9796 9.2609,16.9386 C9.0999,16.8516 8.9999,16.6836 8.9999,16.5006 L8.9999,7.5006 C8.9999,7.3176 9.0999,7.1486 9.2609,7.0616 C9.4199,6.9746 9.6169,6.9796 9.7709,7.0796 Z" id="ic_play_circle" fill="currentColor"></path>
        <rect id="Padding" x="0" y="0" width="24" height="24"></rect>
    </g>
</svg>