<?xml version="1.0" encoding="UTF-8"?>
<svg width="24px" height="24px"  version="1.1" xmlns="http://www.w3.org/2000/svg" xmlns:xlink="http://www.w3.org/1999/xlink">
    <!-- Generator: Sketch 52.6 (67491) - http://www.bohemiancoding.com/sketch -->
    <title>Player/ic_subtitles</title>
    <desc>Created with Sketch.</desc>
    <g id="Player/ic_subtitles" stroke="none" stroke-width="1" fill="none" fill-rule="evenodd">
        <path d="M10,14.009 L20,14.009 L20,12 L10,12 L10,14.009 Z M16,17.971 L20,17.971 L20,16 L16,16 L16,17.971 Z M4,18 L14,18 L14,16 L4,16 L4,18 Z M4,14.009 L8,14.009 L8,12 L4,12 L4,14.009 Z M22,5.999 C22,4.893 21.094,4 19.98,4 L4.019,4 C2.906,4 2,4.897 2,5.999 L2,18.001 C2,19.103 2.906,20 4.019,20 L19.98,20 C21.098,20 22,19.103 22,18.001 L22,5.999 Z" id="ic_subtitles" fill="currentColor"></path>
        <rect id="Padding" x="0" y="0" width="24" height="24"></rect>
    </g>
</svg>