<?xml version="1.0" encoding="UTF-8"?>
<svg width="24px" height="24px"  version="1.1" xmlns="http://www.w3.org/2000/svg" xmlns:xlink="http://www.w3.org/1999/xlink">
    <!-- Generator: Sketch 52.6 (67491) - http://www.bohemiancoding.com/sketch -->
    <title>Player/ic_volume_mute</title>
    <desc>Created with Sketch.</desc>
    <g id="Player/ic_volume_mute" stroke="none" stroke-width="1" fill="none" fill-rule="evenodd">
        <path d="M21.793,13.79 C22.069,14.065 22.069,14.516 21.793,14.791 C21.652,14.93 21.475,15 21.291,15 C21.107,15 20.927,14.93 20.789,14.791 L19,13.001 L17.211,14.791 C17.069,14.93 16.893,15 16.709,15 C16.525,15 16.345,14.93 16.207,14.791 C15.931,14.516 15.931,14.065 16.207,13.79 L17.996,11.999 L16.207,10.209 C15.931,9.933 15.931,9.483 16.207,9.207 C16.482,8.931 16.932,8.931 17.208,9.207 L18.997,10.998 L20.786,9.207 C21.062,8.931 21.51,8.931 21.786,9.207 C22.062,9.483 22.062,9.933 21.786,10.209 L19.997,11.999 L21.793,13.79 Z M12.3511,4.084 C12.5981,3.891 13.0041,4.057 13.0001,4.327 L13.0001,11.976 L13.0001,12.057 L13.0001,19.705 C13.0001,19.976 12.5941,20.1 12.3471,19.906 L6.0001,15 L3.0001,15 C2.4481,15 2.0001,14.553 2.0001,14 L2.0001,10 C2.0001,9.447 2.4481,9 3.0001,9 L6.0001,9 L12.3511,4.084 Z" id="ic_volume_mute" fill="currentColor"></path>
        <rect id="Padding" x="0" y="0" width="24" height="24"></rect>
    </g>
</svg>