<?xml version="1.0" encoding="UTF-8"?>
<svg width="24px" height="24px"  version="1.1" xmlns="http://www.w3.org/2000/svg" xmlns:xlink="http://www.w3.org/1999/xlink">
    <!-- Generator: Sketch 52.6 (67491) - http://www.bohemiancoding.com/sketch -->
    <title>Reinsurance/ic_reinsurance_payment</title>
    <desc>Created with Sketch.</desc>
    <g id="Reinsurance/ic_reinsurance_payment" stroke="none" stroke-width="1" fill="none" fill-rule="evenodd">
        <path d="M18.5,18 C20.43,18 22,16.43 22,14.5 C22,12.57 20.43,11 18.5,11 C16.57,11 15,12.57 15,14.5 C15,16.43 16.57,18 18.5,18 Z M2,16.453 C2,16.755 2.233,17 2.52,17 L14.762,17 C14.281,16.284 14,15.425 14,14.5 C14,13.079 14.675,11.825 15.706,11 L2,11 L2,16.453 Z M2.52,7 C2.233,7 2,7.245 2,7.547 L2,9 L18,9 L18,7.547 C18,7.245 17.767,7 17.48,7 L2.52,7 Z M19,10.051 C21.244,10.303 23,12.189 23,14.5 C23,16.981 20.981,19 18.5,19 C17.439,19 16.477,18.616 15.706,18 L2.52,18 C1.682,18 1,17.306 1,16.453 L1,7.547 C1,6.694 1.682,6 2.52,6 L17.48,6 C18.318,6 19,6.694 19,7.547 L19,10.051 Z M17.75,13.6152 L17.75,14.0002 L19.25,14.0002 L19.25,13.6152 C19.25,13.5262 19.226,12.7502 18.5,12.7502 C17.774,12.7502 17.75,13.5262 17.75,13.6152 Z M19.75,13.6152 L19.75,14.0002 L20,14.0002 L20,15.8942 C20,16.1752 19.94,16.4412 19.55,16.4412 L17.45,16.4412 C17.135,16.4412 17,16.2902 17,15.8942 L17,14.0002 L17.25,14.0002 L17.25,13.6152 C17.25,13.1422 17.512,12.2502 18.5,12.2502 C19.488,12.2502 19.75,13.1422 19.75,13.6152 Z M3,14 L3,13 L11,13 L11,14 L3,14 Z M3,16 L3,15 L9,15 L9,16 L3,16 Z" id="ic_reinsurance_payment" fill="currentColor"></path>
        <rect id="Padding" x="0" y="0" width="24" height="24"></rect>
    </g>
</svg>
