<?xml version="1.0" encoding="UTF-8"?>
<svg width="24px" height="24px"  version="1.1" xmlns="http://www.w3.org/2000/svg" xmlns:xlink="http://www.w3.org/1999/xlink">
    <!-- Generator: Sketch 52.6 (67491) - http://www.bohemiancoding.com/sketch -->
    <title>Reinsurance/ic_reinsurance_delivery</title>
    <desc>Created with Sketch.</desc>
    <g id="Reinsurance/ic_reinsurance_delivery" stroke="none" stroke-width="1" fill="none" fill-rule="evenodd">
        <path d="M22,15.5996 C22,15.8286 21.87,15.9996 21.753,15.9996 L21.722,15.9996 C21.375,15.4056 20.737,14.9996 20,14.9996 C19.263,14.9996 18.625,15.4056 18.278,15.9996 L10.722,15.9996 C10.375,15.4056 9.737,14.9996 9,14.9996 C8.263,14.9996 7.625,15.4056 7.278,15.9996 L6.247,15.9996 C6.13,15.9996 6,15.8286 6,15.5996 L6,14.0616 L6,13.9996 L22,13.9996 L22,15.5996 Z M20,17.9996 C19.449,17.9996 19,17.5516 19,16.9996 C19,16.4486 19.449,15.9996 20,15.9996 C20.551,15.9996 21,16.4486 21,16.9996 C21,17.5516 20.551,17.9996 20,17.9996 Z M9,17.9996 C8.449,17.9996 8,17.5516 8,16.9996 C8,16.4486 8.449,15.9996 9,15.9996 C9.551,15.9996 10,16.4486 10,16.9996 C10,17.5516 9.551,17.9996 9,17.9996 Z M6.5,6.9996 L16.5,6.9996 C16.776,6.9996 17,7.2246 17,7.4996 L17,12.9996 L6,12.9996 L6,7.4996 C6,7.2246 6.225,6.9996 6.5,6.9996 Z M19.035,9.9996 C19.395,9.9996 19.75,10.1226 20.003,10.3316 L21.481,11.5986 C21.815,11.9116 22,12.3266 22,12.7646 L22,12.9996 L18,12.9996 L18,9.9996 L19.035,9.9996 Z M23,13.4996 L23,12.7646 C23,12.0576 22.696,11.3676 22.149,10.8546 L20.647,9.5666 C20.211,9.2066 19.624,8.9996 19.035,8.9996 L18,8.9996 L18,7.4996 C18,6.6726 17.327,5.9996 16.5,5.9996 L6.5,5.9996 C5.673,5.9996 5,6.6726 5,7.4996 L5,13.4996 L5,15.5996 C5,16.3716 5.559,16.9996 6.247,16.9996 L7,16.9996 C7,18.1026 7.897,18.9996 9,18.9996 C10.103,18.9996 11,18.1026 11,16.9996 L18,16.9996 C18,18.1026 18.897,18.9996 20,18.9996 C21.103,18.9996 22,18.1026 22,16.9996 C22,16.9906 21.997,16.9816 21.997,16.9726 C22.568,16.8446 23,16.2786 23,15.5996 L23,13.4996 Z" id="Truck" fill="currentColor"></path>
        <path d="M3.5,10 C3.776,10 4,10.224 4,10.5 C4,10.776 3.776,11 3.5,11 L1.5,11 C1.224,11 1,10.776 1,10.5 C1,10.224 1.224,10 1.5,10 L3.5,10 Z M3.5,13 C3.776,13 4,13.224 4,13.5 C4,13.776 3.776,14 3.5,14 L2.5,14 C2.224,14 2,13.776 2,13.5 C2,13.224 2.224,13 2.5,13 L3.5,13 Z" id="Speed" fill="currentColor"></path>
        <rect id="Padding" x="0" y="0" width="24" height="24"></rect>
    </g>
</svg>
