<?xml version="1.0" encoding="UTF-8"?>
<svg width="24px" height="24px"  version="1.1" xmlns="http://www.w3.org/2000/svg" xmlns:xlink="http://www.w3.org/1999/xlink">
    <!-- Generator: Sketch 52.6 (67491) - http://www.bohemiancoding.com/sketch -->
    <title>Reinsurance/ic_reinsurance_commitment_vp</title>
    <desc>Created with Sketch.</desc>
    <g id="Reinsurance/ic_reinsurance_commitment_vp" stroke="none" stroke-width="1" fill="none" fill-rule="evenodd">
        <path d="M20.3937,12.7846 C20.1007,13.0476 19.6277,13.4756 19.3897,14.0906 C17.8817,13.3966 16.7657,12.8586 15.9487,12.4496 C16.2757,12.3616 16.5657,12.2376 16.7827,12.0896 C17.0097,11.9326 17.0687,11.6216 16.9137,11.3936 C16.7557,11.1666 16.4447,11.1096 16.2177,11.2636 C15.7767,11.5666 14.7527,11.7046 14.0647,11.4446 C13.8847,11.3376 13.8137,11.2866 13.8007,11.2766 C13.7907,11.2686 13.7797,11.2676 13.7687,11.2616 C13.5847,11.1246 13.4457,10.9576 13.3967,10.7106 C13.2067,10.0266 12.9067,9.5876 12.4797,9.3666 C11.8647,9.0476 11.1887,9.2866 10.5927,9.4976 C10.2607,9.6146 9.9187,9.7366 9.6517,9.7366 C9.2457,9.7366 8.9587,9.6426 8.8017,9.4576 C8.6777,9.3116 8.6207,9.0926 8.6307,8.8026 C10.6947,8.2166 11.0867,8.0206 11.8347,7.6476 C12.1437,7.4946 12.5167,7.3076 13.1167,7.0456 C14.0287,6.6446 14.8177,7.0546 15.6497,7.4876 C16.4277,7.8926 17.2307,8.3056 18.1017,7.9756 L20.4467,12.7356 C20.4267,12.7536 20.4147,12.7656 20.3937,12.7846 M19.0237,16.0776 C18.8127,16.3256 18.4977,16.3976 18.3447,16.4196 L15.7917,15.2566 C15.5417,15.1446 15.2457,15.2526 15.1297,15.5046 C15.0157,15.7556 15.1257,16.0526 15.3777,16.1666 L17.4457,17.1086 C17.4117,17.4026 17.2787,17.9486 16.7717,17.9486 C16.2517,17.9486 14.8717,17.2776 14.0577,16.8016 C13.8167,16.6636 13.5117,16.7436 13.3727,16.9796 C13.2337,17.2186 13.3137,17.5246 13.5517,17.6646 C13.7977,17.8076 14.7247,18.3336 15.6037,18.6666 C15.3587,18.8726 15.0947,19.0116 14.8087,19.0596 C14.4027,19.1326 14.0057,19.0336 13.7097,18.9146 C13.6817,18.9016 13.6557,18.8856 13.6257,18.8776 C13.3767,18.7676 13.2127,18.6556 13.2087,18.6526 C13.0287,18.5216 12.7897,18.5366 12.6177,18.6656 C12.6317,18.4266 12.6117,18.1966 12.5197,17.9876 C12.3377,17.5736 11.9977,17.3396 11.7087,17.2056 C11.7197,16.8416 11.6057,16.3896 11.1967,15.9716 C10.7667,15.5296 10.3177,15.4666 10.0337,15.4836 C9.7997,15.5006 9.5917,15.5786 9.4107,15.6766 C9.3797,15.6396 9.3647,15.6006 9.3297,15.5666 C8.8577,15.1066 7.8997,14.8516 7.0757,15.3246 C6.9657,15.0786 6.7497,14.7306 6.3497,14.5486 C6.0707,14.4216 5.6037,14.3376 4.9197,14.6906 C4.9177,14.6916 4.9167,14.6926 4.9157,14.6936 C4.5847,14.3316 4.3977,13.9106 4.2187,13.5006 C4.0597,13.1336 3.8907,12.7626 3.6227,12.4776 L5.9907,7.5796 C6.1697,7.6116 6.3467,7.6326 6.5167,7.6326 C7.3207,7.6326 8.0257,7.3056 8.6677,7.0076 C9.5917,6.5786 10.3607,6.2396 11.3267,6.7846 C10.6387,7.1266 10.2257,7.3176 8.0347,7.9306 C7.8467,7.9836 7.7067,8.1396 7.6757,8.3326 C7.5537,9.0816 7.6767,9.6776 8.0397,10.1056 C8.3967,10.5246 8.9387,10.7366 9.6517,10.7366 C10.0907,10.7366 10.5167,10.5856 10.9277,10.4396 C11.3507,10.2886 11.7897,10.1326 12.0197,10.2546 C12.1817,10.3386 12.3247,10.5896 12.4237,10.9406 C12.5497,11.5836 12.9817,12.0856 13.6387,12.3556 C13.6437,12.3576 13.6487,12.3576 13.6527,12.3596 C14.3137,12.7456 15.8597,13.5736 19.2437,15.1226 C19.2617,15.5286 19.2057,15.8646 19.0237,16.0776 M12.2497,19.7506 C12.3407,19.5936 12.4197,19.4396 12.4777,19.2916 C12.5117,19.3546 12.5567,19.4146 12.6197,19.4606 C12.6237,19.4646 12.6467,19.4796 12.6797,19.5016 C12.5187,19.6336 12.3747,19.7126 12.2497,19.7506 M10.3377,19.9856 C10.0707,19.9306 9.8757,19.7356 9.8067,19.6146 L10.7317,18.6666 L11.2787,18.1056 C11.4077,18.1656 11.5477,18.2586 11.6047,18.3906 C11.6957,18.6036 11.5907,18.9606 11.3097,19.3926 C11.1017,19.7116 10.7757,20.0736 10.3377,19.9856 M8.1197,18.3036 L9.4167,16.9726 C9.4237,16.9666 9.4247,16.9576 9.4317,16.9506 L9.4617,16.9196 C9.5227,16.8376 9.8257,16.5016 10.1037,16.4816 C10.1857,16.4726 10.3067,16.4906 10.4807,16.6696 C10.7347,16.9296 10.7237,17.1616 10.7017,17.2646 L9.0847,18.9236 C8.9557,18.9556 8.6977,18.9996 8.4907,18.8836 C8.2957,18.7746 8.1837,18.5376 8.1197,18.3036 M6.4897,17.2366 L7.3387,16.3656 C7.6747,16.0206 8.0477,16.0456 8.2447,16.0876 C8.5147,16.1496 8.6727,16.3006 8.7007,16.2756 L8.6967,16.2796 L7.2387,17.7736 C7.1277,17.8086 6.7327,17.7206 6.5317,17.4726 C6.4507,17.3746 6.4497,17.3116 6.4897,17.2366 M5.2637,16.5796 C5.1307,16.4436 4.9767,16.2476 4.9937,16.0816 C5.0097,15.9226 5.1837,15.7226 5.4307,15.5496 C5.5807,15.4726 5.7867,15.3956 5.9317,15.4566 C6.0877,15.5256 6.1807,15.7596 6.1997,15.8236 C6.1997,15.8266 6.2237,16.0776 5.8077,16.5036 C5.6577,16.6576 5.3657,16.6836 5.2637,16.5796 M22.9457,12.9756 C22.8187,12.7296 22.5167,12.6356 22.2717,12.7596 L21.7127,13.0466 L18.8697,7.2726 L22.7577,4.9276 C22.9957,4.7846 23.0707,4.4776 22.9277,4.2416 C22.7857,4.0046 22.4767,3.9306 22.2427,4.0716 L17.9597,6.6536 C17.8167,6.7396 17.7397,6.8886 17.7277,7.0446 C17.3027,7.1956 16.8327,6.9756 16.1127,6.6006 C15.2017,6.1266 14.0667,5.5386 12.7137,6.1296 C12.5837,6.1866 12.4697,6.2386 12.3587,6.2886 C10.7047,4.9876 9.3487,5.5916 8.2477,6.0996 C7.5717,6.4136 6.9677,6.6696 6.3047,6.5986 C6.2657,6.4806 6.1827,6.3766 6.0637,6.3146 L1.7317,4.0556 C1.4887,3.9306 1.1847,4.0226 1.0567,4.2676 C0.9287,4.5136 1.0247,4.8146 1.2687,4.9426 L5.1707,6.9766 L2.5617,12.3746 C2.5577,12.3816 2.5517,12.3846 2.5487,12.3906 C2.5447,12.3976 2.5457,12.4056 2.5427,12.4126 L2.3627,12.7866 L1.7527,12.4696 C1.5087,12.3446 1.2067,12.4356 1.0787,12.6806 C0.9507,12.9266 1.0457,13.2276 1.2897,13.3556 L2.3567,13.9116 C2.4287,13.9486 2.5077,13.9686 2.5877,13.9686 C2.6407,13.9686 2.6947,13.9596 2.7457,13.9426 C2.8737,13.8996 2.9797,13.8076 3.0387,13.6856 L3.1227,13.5116 C3.1817,13.6296 3.2407,13.7586 3.3017,13.8986 C3.4987,14.3506 3.7467,14.9106 4.2097,15.4046 C4.0957,15.5916 4.0187,15.7826 3.9977,15.9826 C3.9547,16.4226 4.1387,16.8576 4.5467,17.2766 C4.7767,17.5136 5.1137,17.6476 5.4687,17.6476 C5.4877,17.6476 5.5057,17.6426 5.5257,17.6416 C5.5997,17.9006 5.7517,18.1476 6.0067,18.3506 C6.3317,18.6116 6.7737,18.7826 7.1787,18.7826 C7.1947,18.7826 7.2087,18.7756 7.2247,18.7746 C7.3867,19.2246 7.6447,19.5556 8.0017,19.7566 C8.2797,19.9116 8.5657,19.9606 8.8147,19.9606 C8.8357,19.9606 8.8527,19.9576 8.8727,19.9566 C9.0657,20.4176 9.5867,20.9056 10.2767,20.9876 C10.3327,20.9946 10.3977,20.9996 10.4667,20.9996 C10.7347,20.9996 11.0887,20.9306 11.4557,20.6776 C11.6107,20.7396 11.7987,20.7936 12.0337,20.7936 C12.0857,20.7936 12.1407,20.7916 12.1967,20.7856 C12.7057,20.7346 13.1927,20.4446 13.6537,19.9476 C13.9147,20.0246 14.2097,20.0836 14.5297,20.0836 C14.6707,20.0836 14.8177,20.0726 14.9657,20.0476 C15.6417,19.9346 16.2257,19.5546 16.7137,18.9416 C16.7327,18.9426 16.7537,18.9486 16.7717,18.9486 C17.8337,18.9486 18.2687,18.1136 18.4037,17.4186 C18.6887,17.3916 19.3107,17.2716 19.7727,16.7406 C20.1967,16.2546 20.3507,15.5776 20.2377,14.7996 C20.2377,14.3436 20.5967,13.9596 20.9077,13.6726 L21.0407,13.9436 C21.0997,14.0636 21.2057,14.1556 21.3317,14.1976 C21.3837,14.2146 21.4367,14.2226 21.4897,14.2226 C21.5687,14.2226 21.6467,14.2046 21.7177,14.1686 L22.7287,13.6496 C22.9737,13.5226 23.0717,13.2216 22.9457,12.9756" id="ic_reinsurance_commitment_vp" fill="currentColor"></path>
        <rect id="Padding" x="0" y="0" width="24" height="24"></rect>
    </g>
</svg>
