<?xml version="1.0" encoding="UTF-8"?>
<svg width="24px" height="24px"  version="1.1" xmlns="http://www.w3.org/2000/svg" xmlns:xlink="http://www.w3.org/1999/xlink">
    <!-- Generator: Sketch 52.6 (67491) - http://www.bohemiancoding.com/sketch -->
    <title>Reinsurance/ic_reinsurance_return</title>
    <desc>Created with Sketch.</desc>
    <g id="Reinsurance/ic_reinsurance_return" stroke="none" stroke-width="1" fill="none" fill-rule="evenodd">
        <path d="M6.6006,5.2002 C6.6946,5.0752 6.8436,5.0002 6.9996,5.0002 L9.8566,5.0002 L9.0946,8.0002 L4.5006,8.0002 L6.6006,5.2002 Z M11.1096,5.0002 L11.9996,8.5612 L11.9996,11.0002 L9.9996,11.0002 L9.9996,8.5002 L10.8886,5.0002 L11.1096,5.0002 Z M15.3296,5.2762 C15.3446,5.3062 15.3626,5.3362 15.3846,5.3622 L17.4676,8.0002 L12.8906,8.0002 L12.1406,5.0002 L14.8816,5.0002 C15.0726,5.0002 15.2446,5.1052 15.3296,5.2762 Z M18.4996,17.0002 C18.2236,17.0002 17.9996,17.2232 17.9996,17.5002 L17.9996,18.5002 C17.9996,18.7752 17.7756,19.0002 17.4996,19.0002 L4.4996,19.0002 C4.2246,19.0002 3.9996,18.7752 3.9996,18.5002 L3.9996,9.5002 C3.9996,9.2242 4.2246,9.0002 4.4996,9.0002 L8.9996,9.0002 L8.9996,11.5002 C8.9996,11.7762 9.2236,12.0002 9.4996,12.0002 L12.4996,12.0002 C12.7766,12.0002 12.9996,11.7762 12.9996,11.5002 L12.9996,9.0002 L17.4996,9.0002 C17.7756,9.0002 17.9996,9.2242 17.9996,9.5002 L17.9996,10.5002 C17.9996,10.7762 18.2236,11.0002 18.4996,11.0002 C18.7766,11.0002 18.9996,10.7762 18.9996,10.5002 L18.9996,9.5002 L18.9996,8.5002 C18.9996,8.3882 18.9616,8.2782 18.8926,8.1902 L16.1976,4.7792 C15.9336,4.2972 15.4346,4.0002 14.8816,4.0002 L11.4996,4.0002 L10.4996,4.0002 L6.9996,4.0002 C6.5296,4.0002 6.0806,4.2242 5.8006,4.6002 L3.1006,8.2002 C3.0356,8.2862 2.9996,8.3912 2.9996,8.5002 L2.9996,9.5002 L2.9996,18.5002 C2.9996,19.3272 3.6726,20.0002 4.4996,20.0002 L17.4996,20.0002 C18.3276,20.0002 18.9996,19.3272 18.9996,18.5002 L18.9996,17.5002 C18.9996,17.2232 18.7766,17.0002 18.4996,17.0002 Z" id="Shipping_Box" fill="currentColor"></path>
        <path d="M19,12.5 C19,12.776 18.776,13 18.5,13 L15.707,13 L16.354,13.646 C16.549,13.842 16.549,14.158 16.354,14.354 C16.256,14.451 16.128,14.5 16,14.5 C15.872,14.5 15.744,14.451 15.646,14.354 L14.147,12.854 C14.101,12.808 14.064,12.752 14.039,12.691 C13.988,12.568 13.988,12.432 14.039,12.309 C14.064,12.248 14.101,12.192 14.147,12.146 L15.646,10.646 C15.842,10.451 16.158,10.451 16.354,10.646 C16.549,10.842 16.549,11.158 16.354,11.354 L15.707,12 L18.5,12 C18.776,12 19,12.224 19,12.5 Z M22,15.4561 C22,15.4641 21.996,15.4711 21.996,15.4781 C21.996,15.4861 22,15.4921 22,15.5001 C22,15.6861 21.894,15.8421 21.744,15.9281 L20.358,17.3491 C20.26,17.4491 20.13,17.5001 20,17.5001 C19.874,17.5001 19.748,17.4531 19.651,17.3581 C19.453,17.1651 19.449,16.8491 19.642,16.6511 L20.277,16.0001 L17.5,16.0001 C17.224,16.0001 17,15.7761 17,15.5001 C17,15.2241 17.224,15.0001 17.5,15.0001 L20.31,15.0001 L19.651,14.3581 C19.453,14.1651 19.449,13.8491 19.642,13.6511 C19.835,13.4531 20.152,13.4501 20.349,13.6421 L21.849,15.1031 C21.944,15.1961 21.998,15.3231 22,15.4561 Z" id="Arrows" fill="currentColor"></path>
        <rect id="Padding" x="0" y="0" width="24" height="24"></rect>
    </g>
</svg>
