<?xml version="1.0" encoding="UTF-8"?>
<svg width="24px" height="24px"  version="1.1" xmlns="http://www.w3.org/2000/svg" xmlns:xlink="http://www.w3.org/1999/xlink">
    <!-- Generator: Sketch 52.6 (67491) - http://www.bohemiancoding.com/sketch -->
    <title>Reinsurance/ic_reinsurance_wine_marketplace</title>
    <desc>Created with Sketch.</desc>
    <g id="Reinsurance/ic_reinsurance_wine_marketplace" stroke="none" stroke-width="1" fill="none" fill-rule="evenodd">
        <path d="M19,20.5 L19,10.313 C19,10.213 18.971,10.115 18.914,10.032 L17.191,7.491 C17.055,7.228 17,6.996 17,6.765 L17,6 L16,6 L16,6.765 C16,6.996 15.945,7.228 15.842,7.435 L14.086,10.032 C14.029,10.115 14,10.213 14,10.313 L14,20.5 C14,20.775 14.225,21 14.5,21 L18.5,21 C18.775,21 19,20.775 19,20.5 Z M16,5 L17,5 L17,3 L16,3 L16,5 Z M19.742,9.472 C19.911,9.721 20,10.012 20,10.313 L20,20.5 C20,21.327 19.327,22 18.5,22 L14.5,22 C13.673,22 13,21.327 13,20.5 L13,10.313 C13,10.012 13.089,9.721 13.258,9.472 L14.98,6.931 C14.981,6.918 15,6.842 15,6.765 L15,2 L18,2 L18,6.765 C18,6.842 18.019,6.918 18.053,6.987 L19.742,9.472 Z M14.75,10.417 L16.3,8.35 L16.7,8.65 L15.25,10.583 L15.25,20 L14.75,20 L14.75,10.417 Z" id="Bottle_02" fill="currentColor"></path>
        <path d="M10,20.5 L10,10.313 C10,10.213 9.971,10.115 9.914,10.032 L8.191,7.491 C8.055,7.228 8,6.996 8,6.765 L8,6 L7,6 L7,6.765 C7,6.996 6.945,7.228 6.842,7.435 L5.086,10.032 C5.029,10.115 5,10.213 5,10.313 L5,20.5 C5,20.775 5.225,21 5.5,21 L9.5,21 C9.775,21 10,20.775 10,20.5 Z M7,5 L8,5 L8,3 L7,3 L7,5 Z M9.053,6.987 L10.742,9.472 C10.911,9.721 11,10.012 11,10.313 L11,20.5 C11,21.327 10.327,22 9.5,22 L5.5,22 C4.673,22 4,21.327 4,20.5 L4,10.313 C4,10.012 4.089,9.721 4.258,9.472 L5.98,6.931 C5.981,6.918 6,6.842 6,6.765 L6,2 L9,2 L9,6.765 C9,6.842 9.019,6.918 9.053,6.987 Z M5.75,10.417 L7.3,8.35 L7.7,8.65 L6.25,10.583 L6.25,20 L5.75,20 L5.75,10.417 Z" id="Bottle_01" fill="currentColor"></path>
        <rect id="Padding" x="0" y="0" width="24" height="24"></rect>
    </g>
</svg>
