<?xml version="1.0" encoding="UTF-8"?>
<svg width="24px" height="24px"  version="1.1" xmlns="http://www.w3.org/2000/svg" xmlns:xlink="http://www.w3.org/1999/xlink">
    <!-- Generator: Sketch 52.6 (67491) - http://www.bohemiancoding.com/sketch -->
    <title>Reinsurance/ic_reinsurance_brand_marketplace</title>
    <desc>Created with Sketch.</desc>
    <g id="Reinsurance/ic_reinsurance_brand_marketplace" stroke="none" stroke-width="1" fill="none" fill-rule="evenodd">
        <path d="M21.5,22 C21.776,22 22,22.224 22,22.5 C22,22.776 21.776,23 21.5,23 L2.5,23 C2.224,23 2,22.776 2,22.5 C2,22.224 2.224,22 2.5,22 L4,22 L4,16.5 C4,16.224 4.224,16 4.5,16 C4.776,16 5,16.224 5,16.5 L5,22 L19,22 L19,16.5 C19,16.224 19.224,16 19.5,16 C19.776,16 20,16.224 20,16.5 L20,22 L21.5,22 Z M21.335,11.0283 C21.596,10.9343 21.882,11.0743 21.972,11.3353 C22.17,11.9013 22.06,12.9553 21.465,13.7923 C21.073,14.3423 20.328,15.0003 19,15.0003 C17.726,15.0003 16.935,14.4483 16.479,13.8253 C16.065,14.4483 15.361,15.0003 14.247,15.0003 C13.194,15.0003 12.445,14.4953 12,13.9053 C11.555,14.4953 10.806,15.0003 9.753,15.0003 C8.639,15.0003 7.935,14.4483 7.522,13.8253 C7.065,14.4483 6.274,15.0003 5,15.0003 C3.687,15.0003 2.96,14.3643 2.582,13.8313 C2,13.0103 1.901,11.9533 2.105,11.3753 C2.357,10.6493 3.966,6.4963 4.034,6.3193 C4.108,6.1273 4.294,6.0003 4.5,6.0003 L12.5,6.0003 C12.776,6.0003 13,6.2233 13,6.5003 C13,6.7763 12.776,7.0003 12.5,7.0003 L4.843,7.0003 C4.452,8.0113 3.256,11.1093 3.048,11.7053 C2.965,11.9433 2.981,12.6653 3.398,13.2533 C3.75,13.7483 4.289,14.0003 5,14.0003 C6.825,14.0003 7.036,12.5223 7.044,12.4603 C7.076,12.2113 7.287,12.0243 7.538,12.0233 L7.54,12.0233 C7.79,12.0233 8.002,12.2083 8.035,12.4563 C8.059,12.6123 8.303,14.0003 9.753,14.0003 C10.966,14.0003 11.488,12.9683 11.488,12.6413 C11.488,12.3653 11.712,12.1413 11.988,12.1413 C12.265,12.1413 12.512,12.3653 12.512,12.6413 C12.512,12.9683 13.034,14.0003 14.247,14.0003 C15.738,14.0003 15.956,12.5193 15.965,12.4563 C15.998,12.2083 16.21,12.0233 16.46,12.0233 C16.697,11.9943 16.924,12.2103 16.956,12.4603 C16.979,12.6143 17.229,14.0003 19,14.0003 C19.724,14.0003 20.278,13.7353 20.649,13.2133 C21.06,12.6343 21.113,11.9093 21.028,11.6653 C20.937,11.4043 21.074,11.1193 21.335,11.0283 Z M7.5,16 C7.776,16 8,16.224 8,16.5 L8,19 L16,19 L16,16.5 C16,16.224 16.224,16 16.5,16 C16.776,16 17,16.224 17,16.5 L17,19.5 C17,19.776 16.776,20 16.5,20 L7.5,20 C7.224,20 7,19.776 7,19.5 L7,16.5 C7,16.224 7.224,16 7.5,16 Z" id="Shop" fill="currentColor"></path>
        <path d="M18.5,3 C16.57,3 15,4.57 15,6.5 C15,8.43 16.57,10 18.5,10 C20.43,10 22,8.43 22,6.5 C22,4.57 20.43,3 18.5,3 Z M18.5,11 C16.019,11 14,8.981 14,6.5 C14,4.019 16.019,2 18.5,2 C20.981,2 23,4.019 23,6.5 C23,8.981 20.981,11 18.5,11 Z M17.1973,8.3145 L16.5503,6.5665 C16.4513,6.3845 16.5043,6.1475 16.6673,6.0385 C16.8303,5.9275 17.0433,5.9865 17.1413,6.1685 L17.5603,7.1735 L19.8763,4.6495 C20.0113,4.4995 20.2883,4.4355 20.4233,4.5855 C20.5583,4.7365 20.5003,4.9795 20.3653,5.1295 L17.7373,8.3865 C17.6723,8.4605 17.5843,8.5005 17.4933,8.5005 C17.4793,8.5005 17.4653,8.4995 17.4513,8.4975 C17.3453,8.4825 17.2523,8.4155 17.1973,8.3145 Z" id="Check" fill="currentColor"></path>
        <rect id="Padding" x="0" y="0" width="24" height="24"></rect>
    </g>
</svg>
