<?xml version="1.0" encoding="UTF-8"?>
<svg width="24px" height="24px"  version="1.1" xmlns="http://www.w3.org/2000/svg" xmlns:xlink="http://www.w3.org/1999/xlink">
    <!-- Generator: Sketch 52.6 (67491) - http://www.bohemiancoding.com/sketch -->
    <title>Travel/ic_travel_thematic</title>
    <desc>Created with Sketch.</desc>
    <g id="Travel/ic_travel_thematic" stroke="none" stroke-width="1" fill="none" fill-rule="evenodd">
        <path d="M21.7343,17.559 C21.9783,17.689 22.0713,17.991 21.9413,18.235 C21.3453,19.357 20.4103,20 19.3753,20 C18.3393,20 17.4043,19.357 16.8083,18.235 C16.3913,17.451 15.7783,17 15.1253,17 C14.4713,17 13.8583,17.451 13.4413,18.235 C12.8453,19.357 11.9103,20 10.8753,20 C9.8393,20 8.9043,19.357 8.3083,18.235 C7.8913,17.451 7.2783,17 6.6253,17 C5.9713,17 5.3583,17.451 4.9413,18.235 C4.8113,18.479 4.5073,18.573 4.2653,18.442 C4.0213,18.312 3.9283,18.01 4.0583,17.766 C4.6543,16.644 5.5893,16 6.6253,16 C7.6603,16 8.5953,16.644 9.1913,17.766 C9.6083,18.55 10.2213,19 10.8753,19 C11.5283,19 12.1413,18.55 12.5583,17.766 C13.1543,16.644 14.0893,16 15.1253,16 C16.1603,16 17.0953,16.644 17.6913,17.766 C18.1083,18.55 18.7213,19 19.3753,19 C20.0283,19 20.6413,18.55 21.0583,17.766 C21.1883,17.522 21.4923,17.428 21.7343,17.559 Z M4.0586,14.766 C4.6546,13.644 5.5896,13 6.6246,13 C7.6606,13 8.5956,13.644 9.1916,14.766 C9.6086,15.55 10.2216,16 10.8746,16 C11.5286,16 12.1416,15.55 12.5586,14.766 C13.1546,13.644 14.0896,13 15.1246,13 C16.1606,13 17.0956,13.644 17.6916,14.766 C18.1086,15.55 18.7216,16 19.3746,16 C20.0286,16 20.6416,15.55 21.0586,14.766 C21.1886,14.522 21.4926,14.429 21.7346,14.559 C21.9786,14.689 22.0716,14.991 21.9416,15.235 C21.3456,16.357 20.4106,17 19.3746,17 C18.3396,17 17.4046,16.357 16.8086,15.235 C16.3916,14.451 15.7786,14 15.1246,14 C14.4716,14 13.8586,14.451 13.4416,15.235 C12.8456,16.357 11.9106,17 10.8746,17 C9.8396,17 8.9046,16.357 8.3086,15.235 C7.8916,14.451 7.2786,14 6.6246,14 C5.9716,14 5.3586,14.451 4.9416,15.235 C4.8116,15.478 4.5076,15.573 4.2656,15.442 C4.0216,15.312 3.9286,15.01 4.0586,14.766 Z M7.4961,12.4399 C7.2201,12.4379 6.9981,12.2109 7.0001,11.9359 C7.0181,9.7579 8.8091,8.0009 10.9991,8.0009 L11.0341,8.0009 C12.1021,8.0089 13.1021,8.4309 13.8511,9.1859 C14.6011,9.9429 15.0091,10.9439 15.0001,12.0039 C14.9981,12.2799 14.7741,12.5009 14.5001,12.5009 L14.4961,12.5009 C14.2201,12.4989 13.9981,12.2719 14.0001,11.9969 C14.0071,11.2039 13.7021,10.4559 13.1421,9.8899 C12.5791,9.3239 11.8281,9.0069 11.0261,9.0009 L11.0001,9.0009 C9.3571,9.0009 8.0141,10.3159 8.0001,11.9439 C7.9981,12.2189 7.7741,12.4399 7.5001,12.4399 L7.4961,12.4399 Z M5.5,11.0004 C5.425,11.0004 5.349,10.9834 5.276,10.9474 L3.276,9.9474 C3.029,9.8234 2.93,9.5234 3.053,9.2764 C3.177,9.0304 3.478,8.9304 3.724,9.0534 L5.724,10.0534 C5.971,10.1774 6.07,10.4774 5.947,10.7244 C5.859,10.8984 5.683,11.0004 5.5,11.0004 Z M8.0527,6.724 L7.0527,4.724 C6.9297,4.477 7.0297,4.177 7.2767,4.053 C7.5247,3.929 7.8237,4.03 7.9477,4.277 L8.9477,6.277 C9.0707,6.524 8.9707,6.824 8.7237,6.948 C8.6517,6.984 8.5747,7 8.4997,7 C8.3177,7 8.1407,6.899 8.0527,6.724 Z M13.2763,6.9477 C13.0293,6.8237 12.9293,6.5237 13.0523,6.2767 L14.0523,4.2767 C14.1763,4.0307 14.4763,3.9297 14.7233,4.0527 C14.9703,4.1767 15.0703,4.4767 14.9473,4.7237 L13.9473,6.7237 C13.8593,6.8987 13.6823,7.0007 13.5003,7.0007 C13.4243,7.0007 13.3483,6.9837 13.2763,6.9477 Z M16.5,11.0004 C16.317,11.0004 16.141,10.8984 16.053,10.7244 C15.93,10.4774 16.029,10.1774 16.276,10.0534 L18.276,9.0534 C18.523,8.9294 18.823,9.0294 18.947,9.2764 C19.07,9.5234 18.971,9.8234 18.724,9.9474 L16.724,10.9474 C16.651,10.9834 16.575,11.0004 16.5,11.0004 Z" id="ic_travel_thematic" fill="currentColor"></path>
        <rect id="Padding" x="0" y="0" width="24" height="24"></rect>
    </g>
</svg>
