<?xml version="1.0" encoding="UTF-8"?>
<svg width="24px" height="24px"  version="1.1" xmlns="http://www.w3.org/2000/svg" xmlns:xlink="http://www.w3.org/1999/xlink">
    <!-- Generator: Sketch 52.6 (67491) - http://www.bohemiancoding.com/sketch -->
    <title>Travel/ic_travel_destination</title>
    <desc>Created with Sketch.</desc>
    <g id="Travel/ic_travel_destination" stroke="none" stroke-width="1" fill="none" fill-rule="evenodd">
        <path d="M20,11.1201 C19.107,11.5061 16.275,12.5631 14.831,11.1101 C14.049,10.3241 12.905,10.0671 11.744,10.0671 C10.302,10.0671 8.833,10.4631 8,10.7331 L8,3.7241 C8.906,3.3421 11.824,2.2921 13.688,3.7931 C15.762,5.4601 18.673,4.7931 20,4.3541 L20,11.1201 Z M11,19.9891 C11,20.2811 9.773,20.9941 7.5,20.9941 C5.227,20.9941 4,20.2811 4,19.9891 C4,19.7211 5.055,19.0991 7,19.0031 L7,19.4861 C7,19.7651 7.224,19.9891 7.5,19.9891 C7.776,19.9891 8,19.7651 8,19.4861 L8,19.0031 C9.945,19.0991 11,19.7211 11,19.9891 Z M20.773,3.2101 C20.631,3.1161 20.452,3.1011 20.298,3.1711 C20.26,3.1871 16.55,4.8081 14.313,3.0071 C11.594,0.8201 7.452,2.8621 7.276,2.9501 C7.107,3.0361 7,3.2101 7,3.4001 L7,11.4371 L7,11.4491 L7,18.0261 C4.929,18.1181 3,18.7661 3,19.9891 C3,21.3091 5.264,22.0001 7.5,22.0001 C9.736,22.0001 12,21.3091 12,19.9891 C12,18.7661 10.071,18.1181 8,18.0261 L8,11.7921 C9.504,11.2581 12.78,10.4721 14.124,11.8211 C16.354,14.0631 20.547,11.9811 20.725,11.8911 C20.894,11.8071 21,11.6341 21,11.4431 L21,3.6311 C21,3.4611 20.915,3.3021 20.773,3.2101 Z" id="Flag" fill="currentColor"></path>
        <rect id="Padding" x="0" y="0" width="24" height="24"></rect>
    </g>
</svg>