<?xml version="1.0" encoding="UTF-8"?>
<svg width="24px" height="24px"  version="1.1" xmlns="http://www.w3.org/2000/svg" xmlns:xlink="http://www.w3.org/1999/xlink">
    <!-- Generator: Sketch 52.6 (67491) - http://www.bohemiancoding.com/sketch -->
    <title>Travel/ic_travel_type</title>
    <desc>Created with Sketch.</desc>
    <g id="Travel/ic_travel_type" stroke="none" stroke-width="1" fill="none" fill-rule="evenodd">
        <path d="M5.02861388,19.0610411 C5.41883789,19.4731916 5.93686026,19.7713431 6.49585616,19.9194445 C5.76906394,19.3289877 5.030565,18.4959174 5.030565,17.4806434 C5.030565,15.0671754 9.61081932,11.8216115 11.0292836,10.9281315 L10.8234404,10.3425464 L10.141524,9.8105506 L10.043968,9.87875519 C8.11918804,11.232129 4.53107827,13.7527756 4.34377074,17.26044 C4.30865058,17.9307937 4.54571167,18.5534041 5.02861388,19.0610411 Z M8.1445526,19.8746243 C8.38941817,20.0246744 8.58257905,20.1435453 8.57477457,20.4358506 C8.54941001,21 7.88602919,21 7.29971762,21 C6.18660363,21 5.0744652,20.5264653 4.3203573,19.7313947 C3.649172,19.0249901 3.31943271,18.1519714 3.37016184,17.2097738 C3.58283392,13.2285747 7.56897218,10.4273149 9.48399651,9.08076154 L9.87324496,8.8079432 C10.0488458,8.68420059 10.2849313,8.688098 10.4556543,8.81963541 L11.5375504,9.66244922 C11.6107174,9.71993594 11.6672999,9.79690969 11.6975422,9.88557565 L12.0809373,10.9817208 C12.1628843,11.2145907 12.0575239,11.4718194 11.8360717,11.5799724 C11.1863488,11.8966366 6.00612502,15.4491211 6.00612502,17.4806434 C6.00612502,18.1967915 6.72511276,19.00258 8.1445526,19.8746243 Z M18.5035367,6.46199777 C18.8752251,6.20671775 20.0137036,5.37754486 20.7473248,4.33596341 C19.5005591,4.56396159 18.2625734,5.25575096 17.873325,5.48764655 C17.5728525,5.66595282 17.1777507,5.65133756 16.8919116,5.44769815 L14.3622844,3.65489191 L16.0743923,5.42333937 C16.2616998,5.62113267 16.3504758,5.88323315 16.3221845,6.14825668 C16.289991,6.41815196 16.1446326,6.65589366 15.9222049,6.8030207 L13.2218548,8.59387824 C13.112592,8.66695458 12.9896715,8.71469779 12.859922,8.73418481 L13.0960075,8.96315735 C13.2052702,9.05961812 13.2979484,9.2038221 13.347702,9.3655644 L13.4501358,9.65592106 C13.5233028,9.54776808 13.6179321,9.45325601 13.7330482,9.38310272 L16.4909564,7.68285985 C16.6324126,7.59516824 16.7972822,7.54742503 16.9650786,7.54742503 C17.3396936,7.54742503 17.6704085,7.77347451 17.8069869,8.12131789 L18.7045021,10.4168894 L18.1269706,7.37301616 C18.0625836,7.01835232 18.2098932,6.66271412 18.5035367,6.46199777 Z M21.8984856,3.62078961 C22.0243329,3.82637772 22.0331129,4.07483728 21.9218991,4.2862715 C21.1697423,5.71272168 19.6664043,6.84589215 19.0547281,7.26583752 L19.8107872,11.0102693 C19.8107872,11.012218 19.8907831,11.450676 19.8498096,11.7166739 C19.8166405,11.9349286 19.7210356,12.1853368 19.5942128,12.3850788 C19.4634878,12.5857952 19.2508157,12.701743 19.0186324,12.701743 C18.73572,12.701743 18.4859766,12.5312315 18.3825673,12.269131 L16.9299584,8.55685289 L14.2442417,10.2142243 L14.265704,10.9732439 C14.265704,11.1145248 14.216926,11.2616519 14.1301011,11.378574 L13.9262091,11.6484693 C13.8169464,11.7936476 13.6393944,11.8647753 13.4618425,11.8374934 C13.2842906,11.8092373 13.1360055,11.6874434 13.0764963,11.5179062 L12.42092,9.67053633 L10.9156309,8.20413775 C10.7868569,8.07844644 10.7371034,7.89331971 10.7868569,7.71988519 C10.8366105,7.54742503 10.9770911,7.41588761 11.1536675,7.37788791 L11.4843823,7.30773463 C11.6151074,7.2824015 11.7926593,7.29993982 11.9165554,7.35742654 L12.762366,7.78126932 L15.3124799,6.03815499 L12.5389627,3.17258805 C12.3584841,2.98356392 12.3009261,2.71756604 12.3848242,2.47592693 C12.4628691,2.2469544 12.6589566,2.07839164 12.9087,2.02869972 C13.16137,1.97900781 13.4550136,1.99459743 13.6696368,2.06962247 C13.9125512,2.15633973 14.1749769,2.32587685 14.2149749,2.35510738 L17.4548097,4.65360191 C17.8713738,4.35447608 19.6195774,3.38304792 21.2858339,3.29535631 L21.287785,3.29535631 C21.5599663,3.29535631 21.7736139,3.41325281 21.8984856,3.62078961 Z M2.8316527,11.2233599 C2.8316527,12.2620183 2.98774231,13.098986 3.40430644,14.1649262 C3.09212723,14.5322566 2.9438421,15.1607131 2.9438421,15.1607131 C2.33997045,13.9788251 1.9995,12.6400665 1.9995,11.2233599 C1.9995,6.42565447 5.89783786,2.53701875 10.7053977,2.53701875 C10.955141,2.53701875 11.2507357,2.54578792 11.4477988,2.56819799 C11.3551206,3.03004047 11.6575443,3.42367836 11.6575443,3.42367836 C11.345365,3.38665302 11.0273325,3.36716599 10.7053977,3.36716599 C6.36317999,3.36716599 2.8316527,6.89139435 2.8316527,11.2233599 Z M18.2738899,13.3938246 C18.6446027,13.7251041 19.1001892,13.5312082 19.1001892,13.5312082 C18.0875579,17.2074353 14.7130958,19.9093112 10.7054952,19.9093112 C10.182595,19.9093112 9.70944844,19.8917729 9.17484154,19.7748508 C9.13777026,19.4075204 7.24908605,18.6475264 7.39737118,18.3513236 C8.46268272,18.7995252 9.52409203,19.079164 10.7054952,19.079164 C14.2926294,19.079164 17.3061344,16.6803113 18.2738899,13.3938246 Z" id="ic_travel_type" fill="currentColor"></path>
        <rect id="Padding" x="0" y="0" width="24" height="24"></rect>
    </g>
</svg>
