<?xml version="1.0" encoding="UTF-8"?>
<svg width="24px" height="24px"  version="1.1" xmlns="http://www.w3.org/2000/svg" xmlns:xlink="http://www.w3.org/1999/xlink">
    <!-- Generator: Sketch 52.6 (67491) - http://www.bohemiancoding.com/sketch -->
    <title>Action/ic_account_man</title>
    <desc>Created with Sketch.</desc>
    <g id="Action/ic_account_man" stroke="none" stroke-width="1" fill="none" fill-rule="evenodd">
        <path d="M12,21 C9.427,21 7.108,19.908 5.466,18.171 C5.485,18.118 5.5,18.063 5.5,18.003 C5.5,17.329 6.3,16.972 6.359,16.942 C7.047,16.548 8.248,15.854 9.248,15.252 C9.383,15.457 9.576,15.688 9.871,15.954 C10.728,16.725 11.242,17.197 11.268,17.219 C11.326,17.266 11.638,17.501 12,17.501 C12.362,17.501 12.674,17.266 12.757,17.197 C12.758,17.197 13.272,16.725 14.13,15.954 C14.483,15.635 14.698,15.364 14.828,15.132 C15.84,15.741 17.071,16.451 17.796,16.864 C17.804,16.868 18.601,17.224 18.601,17.898 C18.601,17.956 18.615,18.01 18.634,18.062 C16.986,19.862 14.627,21 12,21 M10.981,12.641 C10.948,12.585 10.905,12.536 10.854,12.496 C10.386,12.137 9.994,11.581 9.778,10.969 C9.708,10.769 9.519,10.635 9.307,10.635 L9.16,10.635 C9.139,10.629 9.116,10.621 9.095,10.613 C9.191,10.61 9.288,10.582 9.366,10.529 C9.599,10.372 9.599,10.151 9.599,9.896 C9.599,9.83 9.585,9.765 9.561,9.705 L9.561,8.447 C9.561,6.643 10.844,6 12.044,6 C13.505,6 14.343,6.892 14.343,8.447 L14.343,10.11 C14.343,10.303 14.509,10.481 14.696,10.567 C14.726,10.593 14.757,10.616 14.789,10.635 L14.744,10.635 C14.532,10.635 14.343,10.769 14.272,10.969 C14.083,11.507 13.748,11.998 13.346,12.332 C13.252,12.375 13.173,12.445 13.119,12.536 C12.921,12.877 12.714,13.584 13.198,14.068 C13.294,14.163 13.584,14.36 13.979,14.609 C13.938,14.694 13.819,14.887 13.461,15.21 C12.624,15.963 12.112,16.432 12.108,16.437 C12.071,16.465 12.012,16.497 12.014,16.502 C11.988,16.497 11.927,16.464 11.919,16.461 C11.919,16.461 11.402,15.986 10.54,15.21 C10.299,14.993 10.171,14.839 10.097,14.73 C10.503,14.474 10.805,14.27 10.902,14.173 C11.387,13.689 11.18,12.982 10.981,12.641 M12,3 C16.963,3 21,7.038 21,12 C21,13.89 20.412,15.644 19.412,17.093 C19.043,16.323 18.246,15.97 18.239,15.97 C16.295,14.856 14.142,13.573 13.905,13.361 C13.891,13.329 13.905,13.232 13.939,13.138 C14.422,12.751 14.821,12.223 15.089,11.621 C15.525,11.525 16.026,11.231 16.026,10.711 C16.026,10.258 15.744,9.872 15.343,9.721 L15.343,8.447 C15.343,6.353 14.048,5 12.044,5 C9.96,5 8.561,6.385 8.561,8.447 L8.561,9.701 C8.314,9.932 8.039,10.268 8.039,10.711 C8.039,11.224 8.526,11.517 8.959,11.617 C9.236,12.248 9.649,12.804 10.15,13.214 C10.188,13.308 10.215,13.426 10.2,13.461 C10.109,13.544 9.74,13.781 9.216,14.102 C9.21,14.105 9.204,14.107 9.199,14.112 C8.343,14.635 7.081,15.378 5.916,16.048 C5.87,16.067 5.05,16.432 4.681,17.218 C3.627,15.744 3,13.946 3,12 C3,7.038 7.037,3 12,3 M12,2 C6.486,2 2,6.486 2,12 C2,17.514 6.486,22 12,22 C17.514,22 22,17.514 22,12 C22,6.486 17.514,2 12,2" id="ic_account_man" fill="currentColor"></path>
        <rect id="Padding" x="0" y="0" width="24" height="24"></rect>
    </g>
</svg>
