<?xml version="1.0" encoding="UTF-8"?>
<svg width="24px" height="24px"  version="1.1" xmlns="http://www.w3.org/2000/svg" xmlns:xlink="http://www.w3.org/1999/xlink">
    <!-- Generator: Sketch 52.6 (67491) - http://www.bohemiancoding.com/sketch -->
    <title>Action/ic_account_woman</title>
    <desc>Created with Sketch.</desc>
    <g id="Action/ic_account_woman" stroke="none" stroke-width="1" fill="none" fill-rule="evenodd">
        <path d="M12,21 C9.451,21 7.151,19.93 5.512,18.222 C5.533,18.166 5.548,18.106 5.548,18.043 C5.548,17.369 6.348,17.012 6.407,16.982 C6.859,16.724 7.534,16.334 8.228,15.927 C8.804,17.18 10.464,18 12,18 C13.608,18 15.361,17.104 15.854,15.75 C16.594,16.186 17.33,16.608 17.828,16.893 C17.836,16.896 18.633,17.252 18.633,17.927 C18.633,17.966 18.646,18.001 18.655,18.038 C17.008,19.853 14.639,21 12,21 M10.95,14.212 C11.168,13.994 11.281,13.718 11.278,13.413 C11.275,13.053 11.108,12.731 10.944,12.572 C10.929,12.557 10.84,12.487 10.822,12.474 C10.531,12.259 9.647,11.606 9.647,9.936 C9.647,9.726 9.701,9.431 9.761,9.165 C10.079,9.282 10.451,9.371 10.851,9.371 C11.438,9.371 12.069,9.186 12.605,8.646 C13.159,8.902 13.723,8.855 14.165,8.713 C14.26,9.177 14.375,9.819 14.375,10.138 C14.375,11.345 13.822,11.873 13.456,12.223 C13.339,12.334 13.238,12.431 13.166,12.542 C13.005,12.788 12.577,13.442 13.23,14.096 C13.392,14.258 14.109,14.709 14.961,15.221 C14.766,16.148 13.402,17 12,17 C10.697,17 9.42,16.266 9.088,15.417 C9.993,14.875 10.78,14.383 10.95,14.212 M8.829,11.205 C9.06,12.047 9.516,12.749 10.232,13.272 C10.233,13.274 10.328,13.42 10.248,13.501 C10.123,13.613 9.479,14.016 8.628,14.525 C8.609,14.521 8.595,14.509 8.576,14.506 C8.541,14.5 7.798,14.369 7.178,13.601 C8.042,12.859 8.531,12.032 8.829,11.205 M14.208,7.594 C14.201,7.6 13.465,8.116 12.807,7.605 C12.7,7.521 12.562,7.487 12.43,7.505 C12.296,7.524 12.175,7.597 12.096,7.706 C11.237,8.89 9.911,8.161 9.756,8.07 C9.688,8.03 9.616,8.013 9.543,8.006 C9.51,7.997 9.477,7.998 9.443,7.997 C9.659,6.707 10.062,6 12,6 C13.68,6 14.204,6.531 14.455,7.51 C14.368,7.518 14.283,7.54 14.208,7.594 M15.625,14.451 C14.736,13.92 14.063,13.502 13.937,13.389 C13.896,13.347 13.881,13.321 13.877,13.32 C13.882,13.294 13.908,13.233 13.999,13.094 C14.031,13.052 14.084,13.005 14.146,12.945 C14.436,12.669 14.948,12.172 15.21,11.299 C15.51,12.095 15.99,12.888 16.822,13.601 C16.387,14.141 15.895,14.363 15.625,14.451 M12,3 C16.963,3 21,7.037 21,12 C21,13.882 20.418,15.629 19.427,17.074 C19.048,16.335 18.278,15.998 18.271,15.998 C17.731,15.688 17.179,15.367 16.651,15.059 C17.073,14.8 17.544,14.4 17.929,13.757 C18.062,13.535 18.004,13.25 17.796,13.098 C16.065,11.823 15.862,10.227 15.666,8.683 C15.436,6.872 15.197,5 12,5 C8.803,5 8.564,6.872 8.334,8.684 C8.137,10.228 7.934,11.824 6.204,13.098 C5.996,13.25 5.938,13.535 6.071,13.757 C6.514,14.497 7.074,14.925 7.538,15.172 C7.022,15.475 6.484,15.788 5.964,16.088 C5.918,16.106 5.088,16.478 4.723,17.274 C3.645,15.79 3,13.971 3,12 C3,7.037 7.037,3 12,3 M12,2 C6.486,2 2,6.486 2,12 C2,17.514 6.486,22 12,22 C17.514,22 22,17.514 22,12 C22,6.486 17.514,2 12,2" id="ic_account_woman" fill="currentColor"></path>
        <rect id="Padding" x="0" y="0" width="24" height="24"></rect>
    </g>
</svg>
