<?xml version="1.0" encoding="UTF-8"?>
<svg width="24px" height="24px"  version="1.1" xmlns="http://www.w3.org/2000/svg" xmlns:xlink="http://www.w3.org/1999/xlink">
    <!-- Generator: Sketch 52.6 (67491) - http://www.bohemiancoding.com/sketch -->
    <title>Action/ic_apps</title>
    <desc>Created with Sketch.</desc>
    <g id="Action/ic_apps" stroke="none" stroke-width="1" fill="none" fill-rule="evenodd">
        <path d="M20.5,21 C20.775,21 21,20.776 21,20.5 L21,19 L14,19 L14,20.5 C14,20.776 14.225,21 14.5,21 L16,21 L20.5,21 Z M3,20.5 C3,20.776 3.225,21 3.5,21 L13.092,21 C13.036,20.843 13,20.676 13,20.5 L13,18 L3,18 L3,20.5 Z M3.5,3 C3.225,3 3,3.224 3,3.5 L3,5 L16,5 L16,3.5 C16,3.224 15.775,3 15.5,3 L3.5,3 Z M14.5,7 L16,7 L16,6 L3,6 L3,17 L13,17 L13,8.5 C13,7.673 13.673,7 14.5,7 Z M14,17 L14,18 L21,18 L21,10 L14,10 L14,17 Z M20.5,8 L17,8 L16,8 L14.5,8 C14.225,8 14,8.224 14,8.5 L14,9 L21,9 L21,8.5 C21,8.224 20.775,8 20.5,8 Z M20.5,7 C21.327,7 22,7.673 22,8.5 L22,20.5 C22,21.327 21.327,22 20.5,22 L16,22 L14.5,22 L3.5,22 C2.673,22 2,21.327 2,20.5 L2,3.5 C2,2.673 2.673,2 3.5,2 L15.5,2 C16.327,2 17,2.673 17,3.5 L17,7 L20.5,7 Z M17.5,19.5 C17.776,19.5 18,19.724 18,20 C18,20.276 17.776,20.5 17.5,20.5 C17.224,20.5 17,20.276 17,20 C17,19.724 17.224,19.5 17.5,19.5 Z M9.5,19 C9.776,19 10,19.224 10,19.5 C10,19.776 9.776,20 9.5,20 C9.224,20 9,19.776 9,19.5 C9,19.224 9.224,19 9.5,19 Z" id="ic_apps" fill="currentColor"></path>
        <rect id="Padding" x="0" y="0" width="24" height="24"></rect>
    </g>
</svg>
