<?xml version="1.0" encoding="UTF-8"?>
<svg width="24px" height="24px"  version="1.1" xmlns="http://www.w3.org/2000/svg" xmlns:xlink="http://www.w3.org/1999/xlink">
    <!-- Generator: Sketch 52.6 (67491) - http://www.bohemiancoding.com/sketch -->
    <title>Action/ic_communication</title>
    <desc>Created with Sketch.</desc>
    <g id="Action/ic_communication" stroke="none" stroke-width="1" fill="none" fill-rule="evenodd">
        <path d="M4.0527,19.9999 L19.9477,19.9999 C19.9097,19.3179 19.7927,18.4819 19.5777,17.9839 C19.5517,17.9879 19.5277,17.9999 19.4997,17.9999 L4.4997,17.9999 C4.4717,17.9999 4.4487,17.9879 4.4217,17.9839 C4.2067,18.4819 4.0897,19.3189 4.0527,19.9999 Z M11.9997,21.9999 C13.3257,21.9999 13.8037,21.6129 13.9447,20.9999 L10.0547,20.9999 C10.1967,21.6129 10.6737,21.9999 11.9997,21.9999 Z M6.2137,15.3879 C5.8617,15.8709 5.4207,16.4779 5.0507,16.9999 L18.9497,16.9999 C18.5787,16.4789 18.1387,15.8719 17.7867,15.3889 L17.2797,14.6879 C16.3097,13.3269 16.2607,12.2769 16.2127,11.2609 C16.1877,10.7359 16.1637,10.2399 16.0167,9.6829 C15.5627,7.9679 14.6957,5.9999 11.9997,5.9999 C9.3037,5.9999 8.4377,7.9679 7.9837,9.6829 C7.8357,10.2399 7.8127,10.7359 7.7877,11.2609 C7.7397,12.2769 7.6907,13.3269 6.7197,14.6879 L6.2137,15.3879 Z M18.5957,14.8009 C19.1517,15.5649 19.9487,16.6609 20.3097,17.2039 C20.9447,18.1569 20.9617,20.2629 20.9617,20.4999 C20.9617,20.7759 20.7377,20.9999 20.4617,20.9999 L14.9597,20.9999 C14.7667,22.3239 13.7777,22.9999 11.9997,22.9999 C10.2227,22.9999 9.2337,22.3239 9.0407,20.9999 L3.5377,20.9999 C3.2617,20.9999 3.0377,20.7759 3.0377,20.4999 C3.0377,20.2629 3.0557,18.1569 3.6897,17.2039 C4.0507,16.6609 4.8487,15.5639 5.4047,14.7999 L5.9057,14.1079 C6.7047,12.9859 6.7437,12.1649 6.7887,11.2139 C6.8147,10.6599 6.8417,10.0859 7.0167,9.4269 C7.2467,8.5579 7.8557,6.2849 9.9997,5.3819 L9.9997,5.0419 C9.9997,4.0599 10.9997,2.9999 11.9997,2.9999 C12.9997,2.9999 13.9997,4.0599 13.9997,5.0419 L13.9997,5.3819 C16.1447,6.2849 16.7537,8.5579 16.9837,9.4269 C17.1577,10.0859 17.1847,10.6599 17.2107,11.2139 C17.2557,12.1649 17.2947,12.9859 18.0947,14.1079 L18.5957,14.8009 Z M4.0005,9.5185 C3.8905,6.5615 6.1415,5.1345 6.2365,5.0745 C6.4715,4.9295 6.7795,5.0015 6.9255,5.2365 C7.0705,5.4715 6.9985,5.7785 6.7645,5.9245 C6.6795,5.9775 4.9125,7.1255 4.9995,9.4815 C5.0095,9.7575 4.7945,9.9895 4.5185,9.9995 C4.5125,9.9995 4.5055,9.9995 4.4995,9.9995 C4.2315,9.9995 4.0105,9.7885 4.0005,9.5185 Z M5.7246,2.9467 C5.5726,3.0237 1.9996,4.8837 1.9996,9.4997 C1.9996,9.7767 1.7766,9.9997 1.4996,9.9997 C1.2236,9.9997 0.9996,9.7767 0.9996,9.4997 C0.9996,4.2517 5.1016,2.1397 5.2766,2.0527 C5.5226,1.9297 5.8226,2.0297 5.9466,2.2757 C6.0696,2.5217 5.9706,2.8217 5.7246,2.9467 Z M17.2354,5.9242 C17.0024,5.7772 16.9314,5.4692 17.0764,5.2362 C17.2234,5.0022 17.5294,4.9312 17.7634,5.0742 C17.8594,5.1342 20.1094,6.5612 19.9994,9.5182 C19.9894,9.7882 19.7684,10.0002 19.5004,10.0002 C19.4944,10.0002 19.4874,10.0002 19.4814,9.9992 C19.2054,9.9892 18.9904,9.7572 19.0004,9.4812 C19.0884,7.1192 17.3114,5.9712 17.2354,5.9242 Z M18.7236,2.0526 C18.8986,2.1396 22.9996,4.2516 22.9996,9.4996 C22.9996,9.7766 22.7766,9.9996 22.4996,9.9996 C22.2236,9.9996 21.9996,9.7766 21.9996,9.4996 C21.9996,4.8626 18.3136,2.9656 18.2766,2.9476 C18.0296,2.8236 17.9296,2.5236 18.0526,2.2766 C18.1766,2.0296 18.4756,1.9296 18.7236,2.0526 Z" id="ic_communication" fill="currentColor"></path>
        <rect id="Padding" x="0" y="0" width="24" height="24"></rect>
    </g>
</svg>
