<?xml version="1.0" encoding="UTF-8"?>
<svg width="24px" height="24px"  version="1.1" xmlns="http://www.w3.org/2000/svg" xmlns:xlink="http://www.w3.org/1999/xlink">
    <!-- Generator: Sketch 52.6 (67491) - http://www.bohemiancoding.com/sketch -->
    <title>Action/ic_filters</title>
    <desc>Created with Sketch.</desc>
    <g id="Action/ic_filters" stroke="none" stroke-width="1" fill="none" fill-rule="evenodd">
        <path d="M17.5,13 C18.327,13 19,12.327 19,11.5 C19,10.673 18.327,10 17.5,10 C16.673,10 16,10.673 16,11.5 C16,12.327 16.673,13 17.5,13 Z M21.5,11 C21.776,11 22,11.224 22,11.5 C22,11.776 21.776,12 21.5,12 L19.949,12 C19.717,13.14 18.708,14 17.5,14 C16.292,14 15.283,13.14 15.051,12 L2.5,12 C2.224,12 2,11.776 2,11.5 C2,11.224 2.224,11 2.5,11 L15.051,11 C15.283,9.86 16.292,9 17.5,9 C18.708,9 19.717,9.86 19.949,11 L21.5,11 Z M9.5,21 C10.327,21 11,20.327 11,19.5 C11,18.673 10.327,18 9.5,18 C8.673,18 8,18.673 8,19.5 C8,20.327 8.673,21 9.5,21 Z M21.5,19 C21.776,19 22,19.224 22,19.5 C22,19.776 21.776,20 21.5,20 L11.949,20 C11.717,21.14 10.708,22 9.5,22 C8.292,22 7.283,21.14 7.051,20 L2.5,20 C2.224,20 2,19.776 2,19.5 C2,19.224 2.224,19 2.5,19 L7.051,19 C7.283,17.86 8.292,17 9.5,17 C10.708,17 11.717,17.86 11.949,19 L21.5,19 Z M12.5,2 C11.673,2 11,2.673 11,3.5 C11,4.327 11.673,5 12.5,5 C13.327,5 14,4.327 14,3.5 C14,2.673 13.327,2 12.5,2 Z M2.5,4 C2.224,4 2,3.776 2,3.5 C2,3.224 2.224,3 2.5,3 L10.051,3 C10.283,1.86 11.292,1 12.5,1 C13.708,1 14.717,1.86 14.949,3 L21.5,3 C21.776,3 22,3.224 22,3.5 C22,3.776 21.776,4 21.5,4 L14.949,4 C14.717,5.14 13.708,6 12.5,6 C11.292,6 10.283,5.14 10.051,4 L2.5,4 Z" id="ic_filters" fill="currentColor"></path>
        <rect id="Padding" x="0" y="0" width="24" height="24"></rect>
    </g>
</svg>
