<?xml version="1.0" encoding="UTF-8"?>
<svg width="24px" height="24px"  version="1.1" xmlns="http://www.w3.org/2000/svg" xmlns:xlink="http://www.w3.org/1999/xlink">
    <!-- Generator: Sketch 52.6 (67491) - http://www.bohemiancoding.com/sketch -->
    <title>Action/ic_4cols</title>
    <desc>Created with Sketch.</desc>
    <g id="Action/ic_4cols" stroke="none" stroke-width="1" fill="none" fill-rule="evenodd">
        <path d="M5.5,3 C5.776,3 6,3.224 6,3.5 L6,5.5 C6,5.776 5.776,6 5.5,6 L3.5,6 C3.224,6 3,5.776 3,5.5 L3,3.5 C3,3.224 3.224,3 3.5,3 L5.5,3 Z M10.5,3 C10.776,3 11,3.224 11,3.5 L11,5.5 C11,5.776 10.776,6 10.5,6 L8.5,6 C8.224,6 8,5.776 8,5.5 L8,3.5 C8,3.224 8.224,3 8.5,3 L10.5,3 Z M15.5,3 C15.776,3 16,3.224 16,3.5 L16,5.5 C16,5.776 15.776,6 15.5,6 L13.5,6 C13.224,6 13,5.776 13,5.5 L13,3.5 C13,3.224 13.224,3 13.5,3 L15.5,3 Z M20.5,3 C20.776,3 21,3.224 21,3.5 L21,5.5 C21,5.776 20.776,6 20.5,6 L18.5,6 C18.224,6 18,5.776 18,5.5 L18,3.5 C18,3.224 18.224,3 18.5,3 L20.5,3 Z M5.5,8 C5.776,8 6,8.224 6,8.5 L6,10.5 C6,10.776 5.776,11 5.5,11 L3.5,11 C3.224,11 3,10.776 3,10.5 L3,8.5 C3,8.224 3.224,8 3.5,8 L5.5,8 Z M10.5,8 C10.776,8 11,8.224 11,8.5 L11,10.5 C11,10.776 10.776,11 10.5,11 L8.5,11 C8.224,11 8,10.776 8,10.5 L8,8.5 C8,8.224 8.224,8 8.5,8 L10.5,8 Z M15.5,8 C15.776,8 16,8.224 16,8.5 L16,10.5 C16,10.776 15.776,11 15.5,11 L13.5,11 C13.224,11 13,10.776 13,10.5 L13,8.5 C13,8.224 13.224,8 13.5,8 L15.5,8 Z M20.5,8 C20.776,8 21,8.224 21,8.5 L21,10.5 C21,10.776 20.776,11 20.5,11 L18.5,11 C18.224,11 18,10.776 18,10.5 L18,8.5 C18,8.224 18.224,8 18.5,8 L20.5,8 Z M5.5,13 C5.776,13 6,13.224 6,13.5 L6,15.5 C6,15.776 5.776,16 5.5,16 L3.5,16 C3.224,16 3,15.776 3,15.5 L3,13.5 C3,13.224 3.224,13 3.5,13 L5.5,13 Z M10.5,13 C10.776,13 11,13.224 11,13.5 L11,15.5 C11,15.776 10.776,16 10.5,16 L8.5,16 C8.224,16 8,15.776 8,15.5 L8,13.5 C8,13.224 8.224,13 8.5,13 L10.5,13 Z M15.5,13 C15.776,13 16,13.224 16,13.5 L16,15.5 C16,15.776 15.776,16 15.5,16 L13.5,16 C13.224,16 13,15.776 13,15.5 L13,13.5 C13,13.224 13.224,13 13.5,13 L15.5,13 Z M20.5,13 C20.776,13 21,13.224 21,13.5 L21,15.5 C21,15.776 20.776,16 20.5,16 L18.5,16 C18.224,16 18,15.776 18,15.5 L18,13.5 C18,13.224 18.224,13 18.5,13 L20.5,13 Z M5.5,18 C5.776,18 6,18.224 6,18.5 L6,20.5 C6,20.776 5.776,21 5.5,21 L3.5,21 C3.224,21 3,20.776 3,20.5 L3,18.5 C3,18.224 3.224,18 3.5,18 L5.5,18 Z M10.5,18 C10.776,18 11,18.224 11,18.5 L11,20.5 C11,20.776 10.776,21 10.5,21 L8.5,21 C8.224,21 8,20.776 8,20.5 L8,18.5 C8,18.224 8.224,18 8.5,18 L10.5,18 Z M15.5,18 C15.776,18 16,18.224 16,18.5 L16,20.5 C16,20.776 15.776,21 15.5,21 L13.5,21 C13.224,21 13,20.776 13,20.5 L13,18.5 C13,18.224 13.224,18 13.5,18 L15.5,18 Z M20.5,18 C20.776,18 21,18.224 21,18.5 L21,20.5 C21,20.776 20.776,21 20.5,21 L18.5,21 C18.224,21 18,20.776 18,20.5 L18,18.5 C18,18.224 18.224,18 18.5,18 L20.5,18 Z" id="ic_4cols" fill="currentColor"></path>
        <rect id="Padding" x="0" y="0" width="24" height="24"></rect>
    </g>
</svg>
