<?xml version="1.0" encoding="UTF-8"?>
<svg width="24px" height="24px"  version="1.1" xmlns="http://www.w3.org/2000/svg" xmlns:xlink="http://www.w3.org/1999/xlink">
    <!-- Generator: Sketch 52.6 (67491) - http://www.bohemiancoding.com/sketch -->
    <title>Action/ic_hide_password</title>
    <desc>Created with Sketch.</desc>
    <g id="Action/ic_hide_password" stroke="none" stroke-width="1" fill="none" fill-rule="evenodd">
        <path d="M5.4175,16.3183 C5.3385,16.3183 5.2585,16.2993 5.1845,16.2593 C2.7595,14.9753 1.0005,13.1843 1.0005,12.0003 C1.0005,9.9723 5.9795,6.0003 12.0005,6.0003 C13.0295,6.0003 14.0755,6.1183 15.1085,6.3523 C15.3775,6.4133 15.5475,6.6803 15.4865,6.9503 C15.4255,7.2193 15.1555,7.3883 14.8885,7.3273 C13.9275,7.1103 12.9555,7.0003 12.0005,7.0003 C6.2615,7.0003 2.0005,10.8283 2.0005,12.0003 C2.0005,12.5893 3.3005,14.1303 5.6515,15.3773 C5.8965,15.5063 5.9895,15.8083 5.8595,16.0523 C5.7705,16.2213 5.5965,16.3183 5.4175,16.3183 Z M19.1904,7.9247 C21.4334,9.1867 23.0004,10.8627 23.0004,11.9997 C23.0004,14.0277 18.0204,17.9997 12.0004,17.9997 C11.0794,17.9997 10.1434,17.9037 9.2164,17.7137 C8.9464,17.6577 8.7724,17.3937 8.8274,17.1227 C8.8824,16.8527 9.1444,16.6797 9.4184,16.7337 C10.2784,16.9097 11.1474,16.9997 12.0004,16.9997 C17.7384,16.9997 22.0004,13.1717 22.0004,11.9997 C22.0004,11.4567 20.9514,10.0627 18.7004,8.7957 C18.4594,8.6607 18.3744,8.3557 18.5094,8.1147 C18.6444,7.8737 18.9494,7.7877 19.1904,7.9247 Z M14.0229,9.1015 C13.8979,9.3475 13.5959,9.4425 13.3509,9.3215 C12.9309,9.1085 12.4769,8.9995 11.9999,8.9995 C10.3459,8.9995 8.9999,10.3455 8.9999,11.9995 C8.9999,12.3895 9.0729,12.7675 9.2179,13.1245 C9.3209,13.3805 9.1979,13.6715 8.9419,13.7765 C8.8799,13.8005 8.8169,13.8125 8.7539,13.8125 C8.5569,13.8125 8.3699,13.6945 8.2909,13.4995 C8.0979,13.0235 7.9999,12.5185 7.9999,11.9995 C7.9999,9.7935 9.7939,7.9995 11.9999,7.9995 C12.6269,7.9995 13.2499,8.1485 13.8029,8.4285 C14.0499,8.5535 14.1479,8.8545 14.0229,9.1015 Z M12,14.9999 C13.654,14.9999 15,13.6539 15,11.9999 C15,11.7639 14.973,11.5279 14.918,11.3019 C14.854,11.0329 15.02,10.7639 15.289,10.6989 C15.558,10.6329 15.827,10.8009 15.891,11.0689 C15.963,11.3719 16,11.6859 16,11.9999 C16,14.2059 14.206,15.9999 12,15.9999 C11.598,15.9999 11.202,15.9399 10.822,15.8229 C10.558,15.7419 10.411,15.4619 10.492,15.1979 C10.573,14.9339 10.854,14.7829 11.117,14.8679 C11.401,14.9559 11.698,14.9999 12,14.9999 Z M12.25,9.9999 C12.351,9.9999 12.442,10.0609 12.481,10.1539 C12.52,10.2479 12.498,10.3549 12.427,10.4269 L10.427,12.4269 C10.379,12.4749 10.315,12.4999 10.25,12.4999 C10.218,12.4999 10.185,12.4939 10.154,12.4809 C10.061,12.4419 10,12.3519 10,12.2499 C10,11.0099 11.009,9.9999 12.25,9.9999 Z M20.8647,4.1581 C21.0537,4.3591 21.0437,4.6761 20.8417,4.8651 L4.8417,19.8651 C4.7457,19.9551 4.6227,20.0001 4.4997,20.0001 C4.3667,20.0001 4.2337,19.9471 4.1357,19.8421 C3.9467,19.6401 3.9567,19.3241 4.1577,19.1351 L20.1577,4.1351 C20.3587,3.9471 20.6757,3.9561 20.8647,4.1581 Z" id="ic_hide_password" fill="currentColor"></path>
        <rect id="Padding" x="0" y="0" width="24" height="24"></rect>
    </g>
</svg>
