<?xml version="1.0" encoding="UTF-8"?>
<svg width="24px" height="24px"  version="1.1" xmlns="http://www.w3.org/2000/svg" xmlns:xlink="http://www.w3.org/1999/xlink">
    <!-- Generator: Sketch 52.6 (67491) - http://www.bohemiancoding.com/sketch -->
    <title>Action/ic_home</title>
    <desc>Created with Sketch.</desc>
    <g id="Action/ic_home" stroke="none" stroke-width="1" fill="none" fill-rule="evenodd">
        <path d="M20.9258,10.2274 C20.7568,10.4484 20.6068,10.4864 20.5088,10.4964 C20.1808,10.5234 19.8128,10.2644 19.6948,10.1594 C19.6818,10.1484 19.6698,10.1384 19.6558,10.1284 L12.8418,5.1124 C12.3408,4.7624 11.6658,4.7634 11.1528,5.1194 L4.3058,10.1594 C4.1888,10.2634 3.8178,10.5194 3.4908,10.4964 C3.3938,10.4864 3.2438,10.4484 3.0828,10.2394 C3.0088,10.1354 2.9858,10.0444 3.0088,9.9354 C3.0868,9.5564 3.6528,9.1094 3.9588,8.9224 L11.7348,3.0864 C11.9008,2.9684 12.1128,2.9674 12.2698,3.0804 L20.0848,8.9524 C20.3468,9.1094 20.9138,9.5564 20.9918,9.9354 C21.0138,10.0444 20.9918,10.1354 20.9258,10.2274 Z M18.4998,20.9984 L14.9998,20.9984 L14.9998,14.4984 C14.9998,14.2224 14.7768,13.9984 14.4998,13.9984 L9.4998,13.9984 C9.2238,13.9984 8.9998,14.2224 8.9998,14.4984 L8.9998,20.9984 L5.4998,20.9984 C5.2238,20.9984 4.9998,20.7744 4.9998,20.4984 L4.9998,10.8874 L11.7348,5.9334 C11.8978,5.8194 12.1078,5.8194 12.2588,5.9254 L18.9998,10.8874 L18.9998,20.4984 C18.9998,20.7744 18.7758,20.9984 18.4998,20.9984 Z M9.9998,20.9984 L13.9998,20.9984 L13.9998,14.9984 L9.9998,14.9984 L9.9998,20.9984 Z M21.9708,9.7304 C21.7808,8.8194 20.7178,8.1644 20.6418,8.1234 L12.8618,2.2744 C12.3508,1.9074 11.6638,1.9074 11.1428,2.2804 L3.4038,8.0934 C3.2828,8.1644 2.2188,8.8194 2.0298,9.7304 C1.9488,10.1144 2.0328,10.4924 2.2798,10.8344 C2.5788,11.2254 2.9678,11.4524 3.4048,11.4924 C3.4508,11.4964 3.4978,11.4984 3.5448,11.4984 C3.7058,11.4984 3.8558,11.4654 3.9998,11.4264 L3.9998,20.4984 C3.9998,21.3254 4.6728,21.9984 5.4998,21.9984 L18.4998,21.9984 C19.3268,21.9984 19.9998,21.3254 19.9998,20.4984 L19.9998,11.4284 C20.1868,11.4794 20.3848,11.5114 20.5958,11.4924 C21.0318,11.4524 21.4208,11.2254 21.7288,10.8234 C21.9668,10.4924 22.0508,10.1144 21.9708,9.7304 Z" id="ic_home" fill="currentColor"></path>
        <rect id="Padding" x="0" y="0" width="24" height="24"></rect>
    </g>
</svg>
