<?xml version="1.0" encoding="UTF-8"?>
<svg width="24px" height="24px"  version="1.1" xmlns="http://www.w3.org/2000/svg" xmlns:xlink="http://www.w3.org/1999/xlink">
    <!-- Generator: Sketch 52.6 (67491) - http://www.bohemiancoding.com/sketch -->
    <title>Action/ic_info</title>
    <desc>Created with Sketch.</desc>
    <g id="Action/ic_info" stroke="none" stroke-width="1" fill="none" fill-rule="evenodd">
        <path d="M12,21 C16.962,21 21,16.962 21,12 C21,7.038 16.962,3 12,3 C7.038,3 3,7.038 3,12 C3,16.962 7.038,21 12,21 Z M12,2 C17.514,2 22,6.486 22,12 C22,17.514 17.514,22 12,22 C6.486,22 2,17.514 2,12 C2,6.486 6.486,2 12,2 Z M12,10 C13,10 13,10.842 13,11 L13,16 C13,16.156 13,17 12,17 C11,17 11,16.156 11,16 L11,11 C11,10.846 11,10 12,10 Z M12,6.5 C12.625,6.5 13.25,6.914 13.25,7.74 C13.25,8.567 12.625,9 12,9 C11.375,9 10.75,8.567 10.75,7.74 C10.75,6.914 11.375,6.5 12,6.5 Z" id="ic_info" fill="currentColor"></path>
        <rect id="Padding" x="0" y="0" width="24" height="24"></rect>
    </g>
</svg>
