<?xml version="1.0" encoding="UTF-8"?>
<svg width="24px" height="24px"  version="1.1" xmlns="http://www.w3.org/2000/svg" xmlns:xlink="http://www.w3.org/1999/xlink">
    <!-- Generator: Sketch 52.6 (67491) - http://www.bohemiancoding.com/sketch -->
    <title>Action/ic_orders</title>
    <desc>Created with Sketch.</desc>
    <g id="Action/ic_orders" stroke="none" stroke-width="1" fill="none" fill-rule="evenodd">
        <path d="M7,14 L7,13 L11,13 L11,14 L7,14 Z M7,16 L7,15 L11,15 L11,16 L7,16 Z M19.8532,9.7642 L22.6562,8.3632 L19.3652,5.0722 L17.5152,5.6882 L19.7852,9.6092 C19.8142,9.6562 19.8292,9.7132 19.8532,9.7642 Z M18.6222,21.0002 C18.8302,21.0002 19.0002,20.8022 19.0002,20.5582 L19.0002,11.0002 L5.0002,11.0002 L5.0002,20.5582 C5.0002,20.8022 5.1702,21.0002 5.3782,21.0002 L18.6222,21.0002 Z M4.6352,5.0722 L1.3442,8.3632 L4.1482,9.7642 C4.1742,9.7092 4.1902,9.6482 4.2232,9.5962 L6.4852,5.6892 L4.6352,5.0722 Z M23.8532,8.1462 C23.9672,8.2602 24.0202,8.4212 23.9942,8.5802 C23.9682,8.7392 23.8672,8.8752 23.7242,8.9472 L20.0002,10.8092 L20.0002,20.5582 C20.0002,21.3532 19.3822,22.0002 18.6222,22.0002 L5.3782,22.0002 C4.6182,22.0002 4.0002,21.3532 4.0002,20.5582 L4.0002,10.8092 L0.2762,8.9472 C0.1332,8.8752 0.0322,8.7392 0.0062,8.5802 C-0.0198,8.4212 0.0332,8.2602 0.1462,8.1462 L4.1462,4.1462 C4.2812,4.0132 4.4782,3.9652 4.6582,4.0262 L7.6032,5.0082 C7.6232,5.0072 7.6412,5.0002 7.6612,5.0002 L9.5002,5.0002 C9.7762,5.0002 10.0002,5.2232 10.0002,5.5002 C10.0002,5.7762 9.7762,6.0002 9.5002,6.0002 L7.6612,6.0002 C7.5402,6.0002 7.4262,6.0682 7.3542,6.1832 L5.1442,10.0002 L18.8562,10.0002 L16.6382,6.1702 C16.5752,6.0682 16.4602,6.0002 16.3402,6.0002 L14.5002,6.0002 C14.2242,6.0002 14.0002,5.7762 14.0002,5.5002 C14.0002,5.2232 14.2242,5.0002 14.5002,5.0002 L16.3402,5.0002 C16.3592,5.0002 16.3772,5.0072 16.3972,5.0072 L19.3422,4.0262 C19.5212,3.9652 19.7202,4.0132 19.8532,4.1462 L23.8532,8.1462 Z M11.7228,8.916 L10.2228,7.916 C9.9928,7.763 9.9308,7.453 10.0838,7.223 C10.2368,6.993 10.5468,6.93 10.7778,7.084 L11.5148,7.576 C11.5118,7.55 11.4998,7.527 11.4998,7.5 L11.4998,2.5 C11.4998,2.224 11.7238,2 11.9998,2 C12.2768,2 12.4998,2.224 12.4998,2.5 L12.4998,7.5 C12.4998,7.527 12.4888,7.55 12.4848,7.576 L13.2228,7.084 C13.4518,6.93 13.7628,6.993 13.9158,7.223 C14.0698,7.453 14.0078,7.763 13.7778,7.916 L12.2778,8.916 C12.1938,8.972 12.0968,9 11.9998,9 C11.9038,9 11.8068,8.972 11.7228,8.916 Z" id="ic_orders" fill="currentColor"></path>
        <rect id="Padding" x="0" y="0" width="24" height="24"></rect>
    </g>
</svg>
