<?xml version="1.0" encoding="UTF-8"?>
<svg width="24px" height="24px"  version="1.1" xmlns="http://www.w3.org/2000/svg" xmlns:xlink="http://www.w3.org/1999/xlink">
    <!-- Generator: Sketch 52.6 (67491) - http://www.bohemiancoding.com/sketch -->
    <title>Action/ic_reset</title>
    <desc>Created with Sketch.</desc>
    <g id="Action/ic_reset" stroke="none" stroke-width="1" fill="none" fill-rule="evenodd">
        <path d="M15,8.5 C15,8.776 15.224,9 15.5,9 L21.5,9 C21.776,9 22,8.776 22,8.5 L22,2.5 C22,2.224 21.776,2 21.5,2 C21.224,2 21,2.224 21,2.5 L21,7.455 C19.302,4.626 15.875,2 12,2 C6.486,2 2,6.486 2,12 C2,17.514 6.486,22 12,22 C17.151,22 21.428,18.141 21.949,13.022 C21.977,12.747 21.776,12.502 21.502,12.475 C21.217,12.443 20.982,12.647 20.954,12.921 C20.486,17.526 16.636,21 12,21 C7.038,21 3,16.963 3,12 C3,7.037 7.038,3 12,3 C15.515,3 18.631,5.412 20.163,8 L15.5,8 C15.224,8 15,8.224 15,8.5" id="ic_reset" fill="currentColor"></path>
        <rect id="Padding" x="0" y="0" width="24" height="24"></rect>
    </g>
</svg>
