<?xml version="1.0" encoding="UTF-8"?>
<svg width="24px" height="24px"  version="1.1" xmlns="http://www.w3.org/2000/svg" xmlns:xlink="http://www.w3.org/1999/xlink">
    <!-- Generator: Sketch 52.6 (67491) - http://www.bohemiancoding.com/sketch -->
    <title>Action/ic_see_password</title>
    <desc>Created with Sketch.</desc>
    <g id="Action/ic_see_password" stroke="none" stroke-width="1" fill="none" fill-rule="evenodd">
        <path d="M12,17 C17.738,17 22,13.172 22,12 C22,10.828 17.738,7 12,7 C6.262,7 2,10.828 2,12 C2,13.225 6.5,17 12,17 Z M12,6 C18.02,6 23,9.973 23,12 C23,14.027 18.02,18 12,18 C6.092,18 1,13.976 1,12 C1,9.973 5.98,6 12,6 Z M12,15 C13.654,15 15,13.654 15,12 C15,10.346 13.654,9 12,9 C10.346,9 9,10.346 9,12 C9,13.654 10.346,15 12,15 Z M12,8 C14.206,8 16,9.794 16,12 C16,14.206 14.206,16 12,16 C9.794,16 8,14.206 8,12 C8,9.794 9.794,8 12,8 Z M12.25,10 C12.351,10 12.442,10.061 12.481,10.154 C12.52,10.248 12.498,10.355 12.427,10.427 L10.427,12.427 C10.379,12.475 10.315,12.5 10.25,12.5 C10.218,12.5 10.185,12.494 10.154,12.481 C10.061,12.442 10,12.352 10,12.25 C10,11.01 11.009,10 12.25,10 Z" id="ic_see_password" fill="currentColor"></path>
        <rect id="Padding" x="0" y="0" width="24" height="24"></rect>
    </g>
</svg>
