<?xml version="1.0" encoding="UTF-8"?>
<svg width="24px" height="24px"  version="1.1" xmlns="http://www.w3.org/2000/svg" xmlns:xlink="http://www.w3.org/1999/xlink">
    <!-- Generator: Sketch 52.6 (67491) - http://www.bohemiancoding.com/sketch -->
    <title>Action/ic_settings</title>
    <desc>Created with Sketch.</desc>
    <g id="Action/ic_settings" stroke="none" stroke-width="1" fill="none" fill-rule="evenodd">
        <path d="M11.9995,15.0037586 C13.6535,15.0037586 14.9995,13.6577586 14.9995,12.0037586 C14.9995,10.3497586 13.6535,9.0037586 11.9995,9.0037586 C10.3455,9.0037586 8.9995,10.3497586 8.9995,12.0037586 C8.9995,13.6577586 10.3455,15.0037586 11.9995,15.0037586 Z M11.9995,8.0037586 C14.2055,8.0037586 15.9995,9.7977586 15.9995,12.0037586 C15.9995,14.2097586 14.2055,16.0037586 11.9995,16.0037586 C9.7935,16.0037586 7.9995,14.2097586 7.9995,12.0037586 C7.9995,9.7977586 9.7935,8.0037586 11.9995,8.0037586 Z M20.8394,12.7869586 C20.9164,12.7619586 20.9874,12.7259586 21.0084,12.7059586 C20.9964,12.7019586 21.0014,12.6559586 20.9984,12.6189586 L20.9964,11.0599586 C20.9934,11.0479586 20.9764,10.9789586 20.9624,10.9569586 C20.9514,10.9539586 20.8644,10.9249586 20.8314,10.9179586 L19.0614,10.5669586 C18.9504,10.5419586 18.0924,10.3249586 17.7224,9.5379586 C17.3524,8.7479586 17.7354,7.9509586 17.7804,7.8629586 L18.7754,6.3449586 C18.7894,6.3179586 18.8174,6.2439586 18.8184,6.2149586 C18.8144,6.2349586 18.7794,6.1839586 18.7514,6.1579586 L17.6594,4.9879586 C17.6474,4.9779586 17.5884,4.9389586 17.5624,4.9329586 C17.5554,4.9359586 17.4814,4.9659586 17.4344,4.9939586 L15.8974,5.9279586 C15.7724,5.9909586 14.9994,6.3529586 14.2364,6.0839586 C13.4504,5.8049586 13.1314,4.9609586 13.0984,4.8649586 L12.6884,3.0999586 C12.6814,3.0829586 12.6454,3.0129586 12.6244,2.9909586 C12.6324,3.0029586 12.5734,2.9979586 12.5344,3.0019586 L10.9724,3.0039586 C10.9584,3.0069586 10.8884,3.0239586 10.8654,3.0379586 C10.8664,3.0439586 10.8374,3.1189586 10.8264,3.1719586 L10.4764,4.9319586 C10.4504,5.0429586 10.2324,5.8979586 9.4424,6.2669586 C8.6534,6.6339586 7.8544,6.2529586 7.7664,6.2089586 L6.2434,5.2189586 C6.2164,5.2039586 6.1404,5.1759586 6.1104,5.1749586 C6.1254,5.1779586 6.0784,5.2129586 6.0514,5.2419586 L4.8784,6.3299586 C4.8684,6.3419586 4.8304,6.4009586 4.8224,6.4269586 C4.8274,6.4369586 4.8644,6.5199586 4.8824,6.5489586 C5.8374,7.7789586 5.9044,8.0249586 5.9264,8.1059586 L5.9584,8.1989586 C6.0514,8.4669586 6.2474,9.0239586 5.9004,9.7029586 C5.5384,10.4109586 3.8414,10.8919586 3.1284,11.0649586 C3.0984,11.0759586 3.0264,11.1109586 3.0054,11.1319586 C3.0074,11.1249586 3.0104,11.1829586 3.0134,11.2199586 L2.9994,12.8269586 C3.0024,12.8409586 3.0184,12.9099586 3.0324,12.9329586 C3.0404,12.9329586 3.1144,12.9629586 3.1674,12.9739586 L4.9274,13.3439586 C5.0384,13.3699586 5.8954,13.5969586 6.2554,14.3899586 C6.6154,15.1829586 6.2234,15.9749586 6.1774,16.0629586 L5.1724,17.5579586 C5.1474,17.6039586 5.1214,17.6719586 5.1194,17.6989586 C5.1214,17.6829586 5.1574,17.7299586 5.1864,17.7579586 L6.2644,18.9379586 C6.2774,18.9479586 6.3374,18.9879586 6.3624,18.9959586 C6.3684,18.9909586 6.4434,18.9629586 6.4904,18.9349586 L8.0384,18.0179586 C8.1644,17.9559586 8.9444,17.6079586 9.7004,17.8829586 C10.4834,18.1709586 10.7924,19.0189586 10.8254,19.1149586 L11.2144,20.8849586 C11.2214,20.9009586 11.2564,20.9739586 11.2774,20.9939586 C11.2694,20.9829586 11.3284,20.9889586 11.3664,20.9859586 L12.9284,20.9999586 C12.9434,20.9979586 13.0124,20.9809586 13.0354,20.9679586 C13.0394,20.9569586 13.0694,20.8719586 13.0754,20.8399586 L13.4474,19.0779586 C13.4744,18.9679586 13.7024,18.1139586 14.4974,17.7549586 C15.2924,17.3929586 16.0854,17.7879586 16.1724,17.8329586 L17.6844,18.8419586 C17.7114,18.8559586 17.7864,18.8849586 17.8164,18.8869586 C17.8084,18.8819586 17.8614,18.8369586 17.8724,18.8239586 L19.0614,17.7439586 C19.0714,17.7319586 19.1104,17.6729586 19.1184,17.6469586 C19.1134,17.6429586 19.0854,17.5699586 19.0584,17.5239586 L18.1444,16.1959586 C18.0714,16.0709586 17.6554,15.2909586 17.9934,14.4869586 C18.3224,13.7029586 19.1414,13.3999586 19.2334,13.3679586 L20.8394,12.7869586 Z M21.9964,12.5689586 C22.0024,12.5929586 22.0344,13.0019586 21.8044,13.3099586 C21.5984,13.5889586 21.2514,13.7069586 21.1504,13.7359586 L19.5674,14.3099586 C19.4284,14.3609586 19.0484,14.5579586 18.9154,14.8739586 C18.7644,15.2339586 18.9894,15.6639586 18.9914,15.6679586 L19.8994,16.9829586 C19.9684,17.0959586 20.1464,17.4159586 20.1114,17.7619586 C20.0754,18.1149586 19.8274,18.3909586 19.7524,18.4669586 L18.5804,19.5289586 C18.5644,19.5509586 18.2814,19.8469586 17.9004,19.8829586 C17.5524,19.9149586 17.2344,19.7379586 17.1444,19.6829586 L15.6664,18.6939586 C15.6564,18.6939586 15.2464,18.5109586 14.9084,18.6659586 C14.5494,18.8279586 14.4234,19.2989586 14.4224,19.3039586 L14.0554,21.0399586 C14.0364,21.1379586 13.9494,21.4939586 13.6884,21.7249586 C13.4164,21.9669586 13.0224,21.9959586 12.9464,21.9989586 L11.4044,21.9839586 C11.3814,21.9889586 10.9714,22.0159586 10.6664,21.7849586 C10.3894,21.5759586 10.2734,21.2289586 10.2444,21.1279586 L9.8634,19.3829586 C9.8314,19.3049586 9.6424,18.9279586 9.3554,18.8219586 C9.0484,18.7079586 8.6374,18.8419586 8.5054,18.9019586 L7.0014,19.7959586 C6.9164,19.8469586 6.5914,20.0299586 6.2504,19.9879586 C5.8874,19.9519586 5.5984,19.6849586 5.5444,19.6319586 L4.4794,18.4639586 C4.4574,18.4469586 4.1604,18.1649586 4.1244,17.7839586 C4.0904,17.4369586 4.2684,17.1179586 4.3234,17.0279586 L5.3174,15.5549586 C5.3124,15.5549586 5.4994,15.1429586 5.3444,14.8039586 C5.1824,14.4449586 4.7094,14.3189586 4.7044,14.3179586 L2.9624,13.9529586 C2.8634,13.9329586 2.5094,13.8459586 2.2784,13.5899586 C2.0404,13.3219586 2.0054,12.9529586 2.0004,12.8459586 L2.0154,11.2579586 C2.0104,11.2319586 1.9844,10.8229586 2.2154,10.5179586 C2.4254,10.2429586 2.7724,10.1279586 2.8734,10.0989586 C3.8574,9.8579586 4.8684,9.4519586 5.0134,9.2409586 C5.1614,8.9509586 5.0894,8.7459586 5.0144,8.5299586 C4.9964,8.4799586 4.9814,8.4349586 4.9694,8.3929586 C4.8904,8.2309586 4.4424,7.6099586 4.0624,7.1189586 C3.9784,6.9889586 3.7984,6.6699586 3.8284,6.3249586 C3.8604,5.9609586 4.1264,5.6699586 4.1794,5.6149586 L5.3404,4.5409586 C5.3554,4.5189586 5.6344,4.2209586 6.0144,4.1799586 C6.3594,4.1449586 6.6834,4.3159586 6.7734,4.3709586 L8.2614,5.3419586 C8.2734,5.3419586 8.6844,5.5169586 9.0204,5.3609586 C9.3774,5.1939586 9.4984,4.7219586 9.4994,4.7179586 L9.8454,2.9769586 C9.8634,2.8789586 9.9474,2.5239586 10.2034,2.2899586 C10.4674,2.0509586 10.8364,2.0109586 10.9424,2.0049586 L12.4854,2.0039586 C12.5094,1.9999586 12.9174,1.9669586 13.2244,2.1919586 C13.5064,2.3999586 13.6254,2.7449586 13.6554,2.8459586 L14.0564,4.5859586 C14.0894,4.6639586 14.2824,5.0389586 14.5704,5.1409586 C14.9414,5.2719586 15.4134,5.0549586 15.4174,5.0519586 L16.9134,4.1409586 C16.9984,4.0869586 17.3144,3.9149586 17.6634,3.9379586 C18.0264,3.9699586 18.3184,4.2339586 18.3724,4.2869586 L19.4504,5.4439586 C19.4714,5.4599586 19.7724,5.7379586 19.8134,6.1189586 C19.8504,6.4649586 19.6754,6.7859586 19.6214,6.8769586 L18.6464,8.3609586 L18.6474,8.3609586 C18.6514,8.3609586 18.4694,8.7739586 18.6284,9.1129586 C18.7944,9.4659586 19.2654,9.5889586 19.2704,9.5899586 L21.0204,9.9359586 C21.1184,9.9539586 21.4744,10.0369586 21.7094,10.2929586 C21.9494,10.5569586 21.9884,10.9239586 21.9954,11.0299586 L21.9964,12.5689586 Z" id="ic_settings" fill="currentColor"></path>
        <rect id="Padding" x="0" y="0" width="24" height="24"></rect>
    </g>
</svg>
