<?xml version="1.0" encoding="UTF-8"?>
<svg width="24px" height="24px"  version="1.1" xmlns="http://www.w3.org/2000/svg" xmlns:xlink="http://www.w3.org/1999/xlink">
    <!-- Generator: Sketch 52.6 (67491) - http://www.bohemiancoding.com/sketch -->
    <title>Action/ic_share_android</title>
    <desc>Created with Sketch.</desc>
    <g id="Action/ic_share_android" stroke="none" stroke-width="1" fill="none" fill-rule="evenodd">
        <path d="M18.5,17 C17.728,17 17.046,17.357 16.587,17.908 L6.885,12.711 C6.952,12.484 7,12.249 7,12 C7,11.751 6.952,11.516 6.885,11.289 L16.587,6.092 C17.046,6.643 17.728,7 18.5,7 C19.881,7 21,5.881 21,4.5 C21,3.119 19.881,2 18.5,2 C17.119,2 16,3.119 16,4.5 C16,4.749 16.048,4.984 16.115,5.211 L6.413,10.408 C5.954,9.857 5.272,9.5 4.5,9.5 C3.119,9.5 2,10.619 2,12 C2,13.381 3.119,14.5 4.5,14.5 C5.272,14.5 5.954,14.143 6.413,13.592 L16.115,18.789 C16.048,19.016 16,19.251 16,19.5 C16,20.881 17.119,22 18.5,22 C19.881,22 21,20.881 21,19.5 C21,18.119 19.881,17 18.5,17" id="ic_share_android" fill="currentColor"></path>
        <rect id="Padding" x="0" y="0" width="24" height="24"></rect>
    </g>
</svg>
