<?xml version="1.0" encoding="UTF-8"?>
<svg width="24px" height="24px"  version="1.1" xmlns="http://www.w3.org/2000/svg" xmlns:xlink="http://www.w3.org/1999/xlink">
    <!-- Generator: Sketch 52.6 (67491) - http://www.bohemiancoding.com/sketch -->
    <title>Action/ic_share</title>
    <desc>Created with Sketch.</desc>
    <g id="Action/ic_share" stroke="none" stroke-width="1" fill="none" fill-rule="evenodd">
        <path d="M10.5791,12.7646 L7.5941,14.9996 L16.4431,14.9996 L13.3711,12.7006 L13.4131,12.6426 L12.7711,13.2306 C12.5341,13.4356 12.2251,13.5376 11.9161,13.5376 C11.6091,13.5376 11.3031,13.4366 11.0701,13.2346 L10.5791,12.7646 Z M7.0091,14.4996 C7.0091,14.5946 7.0421,14.6776 7.0881,14.7526 L10.2131,12.4136 L7.0351,9.3706 C7.0231,9.4126 7.0091,9.4536 7.0091,9.4996 L7.0091,14.4996 Z M17.0271,9.4996 C17.0271,9.4516 17.0131,9.4086 17.0001,9.3646 L13.7361,12.3486 L16.9481,14.7526 C16.9941,14.6776 17.0271,14.5946 17.0271,14.4996 L17.0271,9.4996 Z M16.5261,8.9996 L7.5101,8.9996 C7.4691,8.9996 7.4331,9.0136 7.3951,9.0236 L11.4071,12.8656 C11.6811,13.1026 12.1571,13.1026 12.4371,12.8576 L16.6331,9.0216 C16.5971,9.0136 16.5641,8.9996 16.5261,8.9996 Z M7.5101,7.9996 L16.5261,7.9996 C17.3551,7.9996 18.0291,8.6726 18.0291,9.4996 L18.0291,14.4996 C18.0291,15.3276 17.3551,15.9996 16.5261,15.9996 L7.5101,15.9996 C6.6811,15.9996 6.0071,15.3276 6.0071,14.4996 L6.0071,9.4996 C6.0071,8.6726 6.6811,7.9996 7.5101,7.9996 Z M20.9063,8.5576 C21.1703,8.4746 21.4523,8.6156 21.5383,8.8766 C21.8683,9.8826 22.0363,10.9336 22.0363,11.9996 C22.0363,17.5136 17.5423,21.9996 12.0183,21.9996 C6.4943,21.9996 2.0003,17.5136 2.0003,11.9996 C2.0003,6.4866 6.4943,1.9996 12.0183,1.9996 C13.0853,1.9996 14.1373,2.1666 15.1443,2.4956 C15.4073,2.5826 15.5503,2.8656 15.4643,3.1266 C15.3783,3.3896 15.0953,3.5316 14.8323,3.4476 C13.9263,3.1506 12.9793,2.9996 12.0183,2.9996 C7.0473,2.9996 3.0023,7.0366 3.0023,11.9996 C3.0023,16.9626 7.0473,20.9996 12.0183,20.9996 C16.9893,20.9996 21.0343,16.9626 21.0343,11.9996 C21.0343,11.0396 20.8843,10.0936 20.5863,9.1896 C20.5003,8.9266 20.6433,8.6446 20.9063,8.5576 Z M16.5264,7.5 C16.2494,7.5 16.0254,7.276 16.0254,7 C16.0254,6.133 16.2874,5.439 16.8044,4.937 C17.7884,3.98 19.4474,3.945 20.8864,3.977 L19.6934,2.865 C19.4904,2.678 19.4794,2.361 19.6684,2.159 C19.8574,1.958 20.1734,1.947 20.3754,2.135 L23.0004,4.577 L20.5414,6.865 C20.4454,6.955 20.3224,7 20.2004,7 C20.0664,7 19.9324,6.946 19.8334,6.841 C19.6454,6.639 19.6564,6.322 19.8584,6.135 L21.0974,4.981 C19.7984,4.949 18.2444,4.932 17.5034,5.654 C17.1824,5.965 17.0274,6.405 17.0274,7 C17.0274,7.276 16.8034,7.5 16.5264,7.5 Z" id="ic_share" fill="currentColor"></path>
        <rect id="Padding" x="0" y="0" width="24" height="24"></rect>
    </g>
</svg>
