<?xml version="1.0" encoding="UTF-8"?>
<svg width="24px" height="24px"  version="1.1" xmlns="http://www.w3.org/2000/svg" xmlns:xlink="http://www.w3.org/1999/xlink">
    <!-- Generator: Sketch 52.6 (67491) - http://www.bohemiancoding.com/sketch -->
    <title>Action/ic_subscriber_alerts</title>
    <desc>Created with Sketch.</desc>
    <g id="Action/ic_subscriber_alerts" stroke="none" stroke-width="1" fill="none" fill-rule="evenodd">
        <path d="M21.1367,16.5908 L18.1267,19.9418 C18.0517,20.0168 17.9507,20.0578 17.8467,20.0578 C17.8307,20.0578 17.8147,20.0568 17.7987,20.0548 C17.6777,20.0398 17.5707,19.9708 17.5077,19.8668 L16.7657,18.0688 C16.6527,17.8818 16.7127,17.6378 16.9007,17.5248 C17.0867,17.4108 17.3307,17.4708 17.4447,17.6588 L17.9237,18.6938 L20.5767,16.0958 C20.7317,15.9418 21.0487,15.8758 21.2027,16.0298 C21.3587,16.1848 21.2917,16.4358 21.1367,16.5908 M18.9997,13.9998 C16.7907,13.9998 14.9997,15.7908 14.9997,17.9998 C14.9997,20.2088 16.7907,21.9998 18.9997,21.9998 C21.2087,21.9998 22.9997,20.2088 22.9997,17.9998 C22.9997,15.7908 21.2087,13.9998 18.9997,13.9998" id="Check" fill="#EC008C"></path>
        <path d="M16.3594,12.3057 L16.6484,12.6827 C16.8164,12.9027 16.7744,13.2157 16.5544,13.3837 C16.3354,13.5507 16.0224,13.5107 15.8534,13.2897 L15.5664,12.9147 C15.3544,12.6397 15.1744,12.4057 15.0924,12.2897 C14.4564,11.3967 14.4864,10.7047 14.5124,10.0947 C14.5274,9.7707 14.5404,9.4657 14.4514,9.1277 C14.0714,7.6967 13.2694,6.9997 12.0004,6.9997 C10.7304,6.9997 9.9284,7.6967 9.5484,9.1287 C9.4604,9.4657 9.4724,9.7707 9.4874,10.0947 C9.5134,10.7047 9.5444,11.3967 8.9074,12.2897 C8.8214,12.4107 8.6304,12.6597 8.4074,12.9507 C8.0504,13.4137 7.6104,13.9857 7.4164,14.2767 C7.2914,14.4657 7.1914,14.7437 7.1204,14.9997 L14.5004,14.9997 C14.7764,14.9997 15.0004,15.2237 15.0004,15.4997 C15.0004,15.7767 14.7764,15.9997 14.5004,15.9997 L6.5004,15.9997 C6.3544,15.9997 6.2164,15.9367 6.1224,15.8267 C6.0264,15.7167 5.9844,15.5717 6.0054,15.4277 C6.0214,15.3177 6.1734,14.3387 6.5844,13.7227 C6.7854,13.4197 7.2434,12.8237 7.6144,12.3407 C7.8274,12.0637 8.0104,11.8257 8.0924,11.7097 C8.5304,11.0967 8.5114,10.6737 8.4884,10.1377 C8.4714,9.7717 8.4544,9.3577 8.5824,8.8727 C9.0474,7.1177 10.0304,6.3907 11.0004,6.1297 L11.0004,6.1107 C11.0004,5.5917 11.3294,5.1107 11.8084,5.0177 C12.4394,4.8967 12.9884,5.4097 12.9884,6.0587 L12.9894,6.1257 C13.9634,6.3847 14.9514,7.1107 15.4184,8.8717 C15.5464,9.3577 15.5284,9.7717 15.5114,10.1377 C15.4884,10.6737 15.4694,11.0967 15.9074,11.7097 C15.9854,11.8197 16.1574,12.0437 16.3594,12.3057 Z M12,19 C10.896,19 10,18.104 10,17 L14,17 C14,18.104 13.104,19 12,19 Z M12,2 C17.514,2 22,6.486 22,12 C22,12.355 21.981,12.707 21.945,13.053 C21.917,13.327 21.667,13.519 21.396,13.499 C21.122,13.47 20.923,13.224 20.951,12.949 C20.983,12.637 21,12.32 21,12 C21,7.038 16.963,3 12,3 C7.037,3 3,7.038 3,12 C3,16.962 7.037,21 12,21 C12.81,21 13.613,20.892 14.388,20.68 C14.653,20.611 14.929,20.763 15.002,21.03 C15.075,21.296 14.918,21.571 14.651,21.645 C13.791,21.88 12.899,22 12,22 C6.486,22 2,17.514 2,12 C2,6.486 6.486,2 12,2 Z" id="Bell" fill="currentColor"></path>
        <rect id="Padding" x="0" y="0" width="24" height="24"></rect>
    </g>
</svg>
