<?xml version="1.0" encoding="UTF-8"?>
<svg width="24px" height="24px"  version="1.1" xmlns="http://www.w3.org/2000/svg" xmlns:xlink="http://www.w3.org/1999/xlink">
    <!-- Generator: Sketch 52.6 (67491) - http://www.bohemiancoding.com/sketch -->
    <title>Action/ic_3cols</title>
    <desc>Created with Sketch.</desc>
    <g id="Action/ic_3cols" stroke="none" stroke-width="1" fill="none" fill-rule="evenodd">
        <path d="M20.5,3 C20.776,3 21,3.224 21,3.5 L21,6.5 C21,6.776 20.776,7 20.5,7 L17.5,7 C17.224,7 17,6.776 17,6.5 L17,3.5 C17,3.224 17.224,3 17.5,3 L20.5,3 Z M6.5,3 C6.776,3 7,3.224 7,3.5 L7,6.5 C7,6.776 6.776,7 6.5,7 L3.5,7 C3.224,7 3,6.776 3,6.5 L3,3.5 C3,3.224 3.224,3 3.5,3 L6.5,3 Z M13.5,3 C13.776,3 14,3.224 14,3.5 L14,6.5 C14,6.776 13.776,7 13.5,7 L10.5,7 C10.224,7 10,6.776 10,6.5 L10,3.5 C10,3.224 10.224,3 10.5,3 L13.5,3 Z M20.5,10 C20.776,10 21,10.224 21,10.5 L21,13.5 C21,13.776 20.776,14 20.5,14 L17.5,14 C17.224,14 17,13.776 17,13.5 L17,10.5 C17,10.224 17.224,10 17.5,10 L20.5,10 Z M6.5,10 C6.776,10 7,10.224 7,10.5 L7,13.5 C7,13.776 6.776,14 6.5,14 L3.5,14 C3.224,14 3,13.776 3,13.5 L3,10.5 C3,10.224 3.224,10 3.5,10 L6.5,10 Z M13.5,10 C13.776,10 14,10.224 14,10.5 L14,13.5 C14,13.776 13.776,14 13.5,14 L10.5,14 C10.224,14 10,13.776 10,13.5 L10,10.5 C10,10.224 10.224,10 10.5,10 L13.5,10 Z M20.5,17 C20.776,17 21,17.224 21,17.5 L21,20.5 C21,20.776 20.776,21 20.5,21 L17.5,21 C17.224,21 17,20.776 17,20.5 L17,17.5 C17,17.224 17.224,17 17.5,17 L20.5,17 Z M6.5,17 C6.776,17 7,17.224 7,17.5 L7,20.5 C7,20.776 6.776,21 6.5,21 L3.5,21 C3.224,21 3,20.776 3,20.5 L3,17.5 C3,17.224 3.224,17 3.5,17 L6.5,17 Z M13.5,17 C13.776,17 14,17.224 14,17.5 L14,20.5 C14,20.776 13.776,21 13.5,21 L10.5,21 C10.224,21 10,20.776 10,20.5 L10,17.5 C10,17.224 10.224,17 10.5,17 L13.5,17 Z" id="ic_3cols" fill="currentColor"></path>
        <rect id="Padding" x="0" y="0" width="24" height="24"></rect>
    </g>
</svg>
