<?xml version="1.0" encoding="UTF-8"?>
<svg width="24px" height="24px"  version="1.1" xmlns="http://www.w3.org/2000/svg" xmlns:xlink="http://www.w3.org/1999/xlink">
    <!-- Generator: Sketch 52.6 (67491) - http://www.bohemiancoding.com/sketch -->
    <title>Action/ic_vouchers</title>
    <desc>Created with Sketch.</desc>
    <g id="Action/ic_vouchers" stroke="none" stroke-width="1" fill="none" fill-rule="evenodd">
        <path d="M20.6533,13.1704 L13.2743,17.1344 L11.1263,13.0074 C11.8203,13.3004 12.6513,13.5564 13.4563,13.5564 C13.9953,13.5564 14.5193,13.4424 14.9803,13.1494 L15.3983,12.8834 L14.8663,12.0474 L14.4483,12.3134 C13.6453,12.8234 12.3723,12.4794 11.3403,12.0194 L18.6613,8.0574 C18.6863,8.0444 18.6973,8.0184 18.7183,8.0024 L20.9333,12.2564 C21.1043,12.5854 20.9783,12.9954 20.6533,13.1704 Z M8.0703,19.9314 C7.9153,20.0134 7.7393,20.0304 7.5713,19.9804 C7.4033,19.9284 7.2673,19.8144 7.1853,19.6584 L4.9973,15.4524 L9.1643,13.1964 C8.8503,14.4144 8.3553,15.5764 7.7513,15.7894 L7.2833,15.9534 L7.6123,16.8874 L8.0803,16.7234 C9.2173,16.3244 9.8423,14.6174 10.1613,13.2994 L12.4013,17.6044 L8.0703,19.9314 Z M3.3463,10.8304 L7.6683,8.5084 L8.8773,10.8314 C7.9783,10.5104 6.8633,10.2454 6.0973,10.5444 C5.7283,10.6864 5.4593,10.9474 5.3143,11.3004 C5.1253,11.7624 5.1813,12.2594 5.4703,12.6634 C5.7593,13.0664 6.2553,13.3234 6.7553,13.3734 L4.5393,14.5724 L3.0663,11.7434 C2.8953,11.4154 3.0213,11.0044 3.3463,10.8304 Z M10.6753,10.9244 C11.0243,9.8474 11.4623,9.0624 11.8543,8.8414 C11.9193,8.8064 11.9753,8.7884 12.0343,8.7884 C12.0663,8.7884 12.0993,8.7944 12.1333,8.8044 C12.2833,8.8514 12.3723,8.9434 12.4143,9.0944 C12.4813,9.3394 12.3983,9.6554 12.2123,9.8644 C11.8393,10.2814 11.2063,10.6564 10.6753,10.9244 Z M6.9793,12.4024 C6.7113,12.4234 6.4233,12.2894 6.2773,12.0874 C6.1853,11.9594 6.1713,11.8244 6.2313,11.6754 C6.2733,11.5744 6.3403,11.5124 6.4553,11.4674 C6.5733,11.4214 6.7213,11.4014 6.8903,11.4014 C7.4013,11.4014 8.1083,11.5894 8.7803,11.8444 C8.2373,12.0984 7.5413,12.3684 6.9793,12.4024 Z M15.9293,4.0684 C16.0833,3.9864 16.2593,3.9684 16.4283,4.0204 C16.5963,4.0724 16.7323,4.1864 16.8143,4.3414 L18.2803,7.1584 C18.2503,7.1674 18.2173,7.1704 18.1893,7.1864 L13.3393,9.8104 C13.4363,9.4874 13.4573,9.1464 13.3703,8.8314 C13.2393,8.3584 12.8963,8.0034 12.4273,7.8584 C12.0733,7.7494 11.7083,7.7894 11.3693,7.9784 C10.6413,8.3864 10.1293,9.4594 9.7953,10.4494 L8.5403,8.0394 L15.9293,4.0684 Z M21.8123,11.7994 L17.6923,3.8844 C17.4883,3.4914 17.1433,3.2044 16.7203,3.0734 C16.2983,2.9424 15.8493,2.9874 15.4613,3.1964 L2.8783,9.9574 C2.0773,10.3884 1.7663,11.3954 2.1873,12.2004 L6.3073,20.1164 C6.5113,20.5084 6.8563,20.7964 7.2793,20.9264 C7.4393,20.9754 7.6023,21.0004 7.7643,21.0004 C8.0313,21.0004 8.2973,20.9344 8.5393,20.8044 L21.1223,14.0434 C21.9233,13.6114 22.2333,12.6054 21.8123,11.7994 Z" id="ic_vouchers" fill="currentColor"></path>
        <rect id="Padding" x="0" y="0" width="24" height="24"></rect>
    </g>
</svg>
