<?xml version="1.0" encoding="UTF-8"?>
<svg width="24px" height="24px"  version="1.1" xmlns="http://www.w3.org/2000/svg" xmlns:xlink="http://www.w3.org/1999/xlink">
    <!-- Generator: Sketch 52.6 (67491) - http://www.bohemiancoding.com/sketch -->
    <title>Action/ic_who_you_are</title>
    <desc>Created with Sketch.</desc>
    <g id="Action/ic_who_you_are" stroke="none" stroke-width="1" fill="none" fill-rule="evenodd">
        <path d="M12.1256,20.7485 C17.0196,20.7485 21.0006,16.7675 21.0006,11.8745 C21.0006,6.9805 17.0196,2.9995 12.1256,2.9995 C7.2326,2.9995 3.2516,6.9805 3.2516,11.8745 C3.2516,13.2735 3.5676,14.6125 4.1916,15.8535 C4.2486,15.9675 4.2606,16.0995 4.2236,16.2215 C3.9416,17.1675 3.1916,19.8575 3.0106,20.9015 C2.9906,21.0115 3.0046,21.0505 3.0046,21.0505 C3.0176,21.0555 3.0696,21.0985 3.3356,21.0475 C4.3126,20.8625 6.2826,20.3385 7.3406,20.0575 C7.6606,19.9725 7.9026,19.9085 8.0226,19.8785 C8.1356,19.8495 8.2516,19.8615 8.3556,19.9105 C9.5396,20.4665 10.8076,20.7485 12.1256,20.7485 Z M12.1256,1.9995 C17.5706,1.9995 22.0006,6.4295 22.0006,11.8745 C22.0006,17.3185 17.5706,21.7485 12.1256,21.7485 C10.7206,21.7485 9.3666,21.4605 8.0966,20.8915 C7.9696,20.9245 7.7986,20.9705 7.5976,21.0235 C6.5266,21.3085 4.5346,21.8385 3.5216,22.0305 C3.4076,22.0515 3.2736,22.0705 3.1306,22.0705 C2.8886,22.0705 2.6196,22.0165 2.3756,21.8235 C2.1586,21.6505 1.9216,21.3205 2.0246,20.7295 C2.2116,19.6565 2.9146,17.1335 3.2096,16.1235 C2.5736,14.7925 2.2516,13.3645 2.2516,11.8745 C2.2516,6.4295 6.6816,1.9995 12.1256,1.9995 Z M11.7443,15.8662 C12.2433,15.8662 12.6493,16.2202 12.6493,16.7712 C12.6493,17.3222 12.2433,17.6762 11.7443,17.6762 C11.2333,17.6762 10.8403,17.3222 10.8403,16.7712 C10.8403,16.2202 11.2333,15.8662 11.7443,15.8662 Z M12.1642,6.3955 C14.1042,6.3955 15.3502,7.4055 15.3502,9.0045 C15.3502,10.0925 14.8122,10.6965 13.8032,11.4045 C12.7152,12.1645 12.3482,12.4535 12.3482,13.4625 L12.3482,13.8165 C12.3482,14.1575 12.0982,14.3285 11.7702,14.3285 C11.4302,14.3285 11.1672,14.1575 11.1672,13.8165 L11.1672,13.4495 C11.1672,12.6235 11.2982,12.1905 11.6522,11.7455 C11.9152,11.4045 12.0592,11.2725 12.8322,10.7485 C13.8032,10.0665 14.0912,9.7265 14.0912,9.0575 C14.0912,8.0865 13.3442,7.4705 12.0982,7.4705 C10.8922,7.4705 10.2232,8.0865 9.9222,8.9785 C9.8172,9.2925 9.6072,9.4115 9.3712,9.4115 C9.2922,9.4115 9.2142,9.3975 9.1352,9.3845 C8.8862,9.3195 8.6502,9.1625 8.6502,8.8735 C8.6502,8.8085 8.6632,8.7295 8.6892,8.6505 C8.8732,8.0735 9.2012,7.5495 9.6732,7.1565 C10.2362,6.6845 11.0232,6.3955 12.1642,6.3955 Z" id="ic_who_you_are" fill="currentColor"></path>
        <rect id="Padding" x="0" y="0" width="24" height="24"></rect>
    </g>
</svg>
