<?xml version="1.0" encoding="UTF-8"?>
<svg width="24px" height="24px"  version="1.1" xmlns="http://www.w3.org/2000/svg" xmlns:xlink="http://www.w3.org/1999/xlink">
    <!-- Generator: Sketch 52.6 (67491) - http://www.bohemiancoding.com/sketch -->
    <title>Flags/ic_flag_be</title>
    <desc>Created with Sketch.</desc>
    <g id="Flags/ic_flag_be" stroke="none" stroke-width="1" fill="none" fill-rule="evenodd">
        <g id="ic_flag_be" transform="translate(2.000000, 5.000000)">
            <path d="M19,0 L13.6,0 L13.6,14 L19,14 C19.55,14 20,13.55 20,13 L20,1 C20,0.45 19.55,0 19,0" id="Fill-1" fill="#E81D2E"></path>
            <polygon id="Fill-3" fill="#FFF423" points="6.8 14 13.6 14 13.6 0 6.8 0"></polygon>
            <path d="M1,0 C0.45,0 0,0.45 0,1 L0,13 C0,13.55 0.45,14 1,14 L6.8,14 L6.8,0 L1,0 Z" id="Fill-5" fill="#000000"></path>
        </g>
        <rect id="Padding" x="0" y="0" width="24" height="24"></rect>
    </g>
</svg>
