<?xml version="1.0" encoding="UTF-8"?>
<svg width="24px" height="24px"  version="1.1" xmlns="http://www.w3.org/2000/svg" xmlns:xlink="http://www.w3.org/1999/xlink">
    <!-- Generator: Sketch 52.6 (67491) - http://www.bohemiancoding.com/sketch -->
    <title>Flags/ic_flag_uk</title>
    <desc>Created with Sketch.</desc>
    <g id="Flags/ic_flag_uk" stroke="none" stroke-width="1" fill="none" fill-rule="evenodd">
        <g id="ic_flag_uk" transform="translate(2.000000, 5.000000)">
            <polygon id="Fill-1" fill="#003874" points="16.2504 9.3101 19.9994 11.7151 19.9994 9.3101"></polygon>
            <polygon id="Fill-2" fill="#003874" points="11.7963 -0.0004 11.7963 4.1076 18.2133 -0.0004"></polygon>
            <polygon id="Fill-3" fill="#003874" points="0 4.6535 3.727 4.6535 0 2.2525"></polygon>
            <polygon id="Fill-4" fill="#003874" points="1.764 -0.0004 8.182 4.1076 8.182 -0.0004"></polygon>
            <polygon id="Fill-5" fill="#003874" points="11.7963 13.9649 18.2133 13.9649 11.7963 9.8559"></polygon>
            <polygon id="Fill-6" fill="#003874" points="1.764 13.9649 8.182 13.9649 8.182 9.8559"></polygon>
            <polygon id="Fill-7" fill="#003874" points="16.2504 4.6535 19.9994 4.6535 19.9994 2.2485"></polygon>
            <polygon id="Fill-8" fill="#003874" points="0 9.3101 0 11.7121 3.727 9.3101"></polygon>
            <path d="M11.0752,13.9648 L11.7962,13.9648 L11.7962,9.8558 L18.2132,13.9648 L19.1732,13.9648 C19.5152,13.9018 19.8012,13.6798 19.9262,13.3628 L13.6312,9.3108 L15.3742,9.3108 L20.0002,12.2988 L20.0002,11.7148 L16.2502,9.3108 L20.0002,9.3108 L20.0002,8.3468 L11.0752,8.3468 L11.0752,13.9648 Z" id="Fill-9" fill="#FFFFFF"></path>
            <path d="M8.124,9.3105 L0.874,13.9645 L1.764,13.9645 L8.182,9.8555 L8.182,13.9645 L8.951,13.9645 L8.951,8.3465 L0,8.3465 L0,9.3105 L3.727,9.3105 L0,11.7125 L0,12.9995 C0,13.1285 0.029,13.2505 0.074,13.3645 L6.389,9.3105 L8.124,9.3105 Z" id="Fill-12" fill="#FFFFFF"></path>
            <path d="M20,5.6196 L20,4.6536 L16.25,4.6536 L20,2.2486 L20,0.9996 C20,0.8606 19.971,0.7286 19.918,0.6076 L13.639,4.6566 L11.903,4.6566 L19.116,0.0236 C19.076,0.0186 19.041,-0.0004 19,-0.0004 L18.213,-0.0004 L11.796,4.1086 L11.796,-0.0004 L11.075,-0.0004 L11.075,5.6196 L20,5.6196 Z" id="Fill-14" fill="#FFFFFF"></path>
            <path d="M8.9512,0 L8.1812,0 L8.1812,4.108 L1.7642,0 L1.0402,0 C0.6202,0 0.2612,0.254 0.0972,0.614 L6.4032,4.657 L4.6522,4.657 L0.0002,1.666 L0.0002,2.252 L3.7262,4.653 L0.0002,4.653 L0.0002,5.62 L8.9512,5.62 L8.9512,0 Z" id="Fill-17" fill="#FFFFFF"></path>
            <path d="M13.6387,4.6567 L19.9177,0.6077 C19.7807,0.2867 19.4747,0.0677 19.1167,0.0237 L11.9037,4.6567 L13.6387,4.6567 Z" id="Fill-19" fill="#DC3A43"></path>
            <path d="M13.6309,9.3105 L19.9259,13.3635 C19.9709,13.2495 19.9999,13.1285 19.9999,12.9995 L19.9999,12.2985 L15.3739,9.3105 L13.6309,9.3105 Z" id="Fill-21" fill="#DC3A43"></path>
            <path d="M6.4033,4.6567 L0.0963,0.6147 C0.0373,0.7447 0.0003,0.8867 0.0003,1.0397 L0.0003,1.6657 L4.6523,4.6567 L6.4033,4.6567 Z" id="Fill-23" fill="#DC3A43"></path>
            <path d="M8.124,9.3105 L6.389,9.3105 L0.074,13.3645 C0.199,13.6805 0.484,13.9025 0.827,13.9645 L0.874,13.9645 L8.124,9.3105 Z" id="Fill-25" fill="#DC3A43"></path>
            <polygon id="Fill-27" fill="#DC3A43" points="8.9512 13.9648 11.0752 13.9648 11.0752 8.3468 20.0002 8.3468 20.0002 5.6198 11.0752 5.6198 11.0752 -0.0002 8.9512 -0.0002 8.9512 5.6198 0.0002 5.6198 0.0002 8.3468 8.9512 8.3468"></polygon>
        </g>
        <rect id="Padding" x="0" y="0" width="24" height="24"></rect>
    </g>
</svg>
