<?xml version="1.0" encoding="UTF-8"?>
<svg width="24px" height="24px"  version="1.1" xmlns="http://www.w3.org/2000/svg" xmlns:xlink="http://www.w3.org/1999/xlink">
    <!-- Generator: Sketch 52.6 (67491) - http://www.bohemiancoding.com/sketch -->
    <title>Flags/ic_flag_nl</title>
    <desc>Created with Sketch.</desc>
    <g id="Flags/ic_flag_nl" stroke="none" stroke-width="1" fill="none" fill-rule="evenodd">
        <g id="ic_flag_nl" transform="translate(2.000000, 5.000000)">
            <path d="M19,0 L1,0 C0.45,0 0,0.45 0,1 L0,4.999 L20,4.999 L20,1 C20,0.45 19.55,0 19,0" id="Fill-1" fill="#EA3E47"></path>
            <path d="M0,12.998 C0,13.549 0.45,13.998 1,13.998 L19,13.998 C19.55,13.998 20,13.549 20,12.998 L20,8.999 L0,8.999 L0,12.998 Z" id="Fill-3" fill="#0068B2"></path>
            <polygon id="Fill-5" fill="#FFFFFF" points="0 8.9985 20 8.9985 20 4.9985 0 4.9985"></polygon>
        </g>
        <rect id="Padding" x="0" y="0" width="24" height="24"></rect>
    </g>
</svg>
