<?xml version="1.0" encoding="UTF-8"?>
<svg width="24px" height="24px"  version="1.1" xmlns="http://www.w3.org/2000/svg" xmlns:xlink="http://www.w3.org/1999/xlink">
    <!-- Generator: Sketch 52.6 (67491) - http://www.bohemiancoding.com/sketch -->
    <title>Flags/ic_flag_ch</title>
    <desc>Created with Sketch.</desc>
    <g id="Flags/ic_flag_ch" stroke="none" stroke-width="1" fill="none" fill-rule="evenodd">
        <g id="ic_flag_ch" transform="translate(1.999600, 5.025400)">
            <path d="M19.123,8.8817842e-16 L0.878,8.8817842e-16 C0.388,0.062 0,0.468 0,0.975 L0,12.975 C0,13.481 0.388,13.887 0.878,13.949 L19.123,13.949 C19.613,13.887 20,13.481 20,12.975 L20,0.975 C20,0.468 19.613,0.062 19.123,8.8817842e-16" id="Fill-1" fill="#E81D2E"></path>
            <polygon id="Fill-4" fill="#FFFFFF" points="13.6005 5.7793 11.2005 5.7793 11.2005 3.3873 8.8005 3.3873 8.8005 5.7793 6.4005 5.7793 6.4005 8.1703 8.8005 8.1703 8.8005 10.5613 11.2005 10.5613 11.2005 8.1703 13.6005 8.1703"></polygon>
        </g>
        <rect id="Padding" x="0" y="0" width="24" height="24"></rect>
    </g>
</svg>
