<?xml version="1.0" encoding="UTF-8"?>
<svg width="24px" height="24px"  version="1.1" xmlns="http://www.w3.org/2000/svg" xmlns:xlink="http://www.w3.org/1999/xlink">
    <!-- Generator: Sketch 52.6 (67491) - http://www.bohemiancoding.com/sketch -->
    <title>Informative/ic_adding_cart</title>
    <desc>Created with Sketch.</desc>
    <g id="Informative/ic_adding_cart" stroke="none" stroke-width="1" fill="none" fill-rule="evenodd">
        <path d="M20.0767,12.5889 L17.1167,15.8839 C17.0427,15.9579 16.9437,15.9979 16.8407,15.9979 C16.8257,15.9979 16.8097,15.9969 16.7937,15.9949 C16.6747,15.9819 16.5697,15.9129 16.5077,15.8109 L15.7787,14.0419 C15.6667,13.8579 15.7257,13.6179 15.9097,13.5069 C16.0947,13.3959 16.3337,13.4549 16.4457,13.6389 L16.9167,14.6559 L19.5257,12.1029 C19.6777,11.9499 19.9897,11.8859 20.1417,12.0379 C20.2937,12.1909 20.2287,12.4369 20.0767,12.5889 M17.9997,9.9999 C15.7907,9.9999 13.9997,11.7909 13.9997,13.9999 C13.9997,16.2089 15.7907,17.9999 17.9997,17.9999 C20.2087,17.9999 21.9997,16.2089 21.9997,13.9999 C21.9997,11.7909 20.2087,9.9999 17.9997,9.9999" id="Check" fill="#EC008C"></path>
        <path d="M8.5664,4.8047 C9.0934,4.2637 9.7254,3.9997 10.5004,3.9997 C11.2734,3.9997 11.9054,4.2627 12.4324,4.8037 C12.8884,5.2727 13.2124,5.8987 13.4464,6.5627 L7.5494,6.5727 C7.7834,5.9067 8.1084,5.2767 8.5664,4.8047 Z M18.9224,18.9627 C18.9034,18.6877 18.6564,18.4707 18.3884,18.4977 C18.1134,18.5177 17.9054,18.7557 17.9244,19.0317 L17.9924,19.9997 L3.0084,19.9997 L3.8674,7.5787 L6.2424,7.5757 C5.9354,9.0717 5.9624,10.3817 5.9644,10.4787 C5.9724,10.7497 6.1944,10.9647 6.4644,10.9647 L6.4784,10.9647 C6.7544,10.9567 6.9724,10.7267 6.9644,10.4507 C6.9634,10.4277 6.9364,9.0507 7.2654,7.5737 L13.7304,7.5617 C14.0624,9.0427 14.0364,10.4277 14.0354,10.4507 C14.0274,10.7277 14.2454,10.9567 14.5214,10.9647 C14.8044,10.9767 15.0274,10.7547 15.0354,10.4787 C15.0384,10.3807 15.0654,9.0627 14.7544,7.5597 L17.1314,7.5557 L17.2334,9.0297 C17.2534,9.3047 17.4894,9.5177 17.7674,9.4937 C18.0424,9.4747 18.2504,9.2367 18.2314,8.9607 L18.1254,7.4517 C18.1254,6.9577 17.7054,6.5557 17.1874,6.5557 L14.4984,6.5607 C14.2174,5.6587 13.7954,4.7707 13.1504,4.1077 C12.4354,3.3727 11.5444,2.9997 10.5004,2.9997 C9.4564,2.9997 8.5644,3.3727 7.8494,4.1077 C7.2014,4.7737 6.7774,5.6677 6.4984,6.5747 L3.8114,6.5787 C3.2954,6.5787 2.8744,6.9807 2.8754,7.4407 L2.0004,20.1037 C2.0004,20.5977 2.4204,20.9997 2.9374,20.9997 L18.0634,20.9997 C18.5794,20.9997 19.0004,20.5977 18.9994,20.0697 L18.9224,18.9627 Z" id="Cart" fill="currentColor"></path>
        <rect id="Padding" x="0" y="0" width="24" height="24"></rect>
    </g>
</svg>
