<?xml version="1.0" encoding="UTF-8"?>
<svg width="24px" height="24px" version="1.1" xmlns="http://www.w3.org/2000/svg" xmlns:xlink="http://www.w3.org/1999/xlink">
    <!-- Generator: Sketch 52.6 (67491) - http://www.bohemiancoding.com/sketch -->
    <title>Informative/ic_butterfly</title>
    <desc>Created with Sketch.</desc>
    <g id="Informative/ic_butterfly" stroke="none" stroke-width="1" fill="none" fill-rule="evenodd">
        <path d="M17.7627,10.2832 C17.6667,9.2192 17.4197,8.2502 17.0377,7.3582 C17.6897,5.9972 18.3597,5.4922 18.3597,5.4922 C18.3597,5.4922 19.7377,9.0282 18.5287,12.6632 C17.6137,15.4142 16.6637,16.5852 16.2567,16.9922 C17.8457,14.7082 17.9187,12.0162 17.7627,10.2832 M19.7027,14.1332 C19.5277,14.1032 19.1307,14.2372 18.8567,14.5682 C18.2187,15.3392 17.7207,15.9422 16.9457,16.5012 C19.1037,14.2222 21.6827,8.7832 18.5297,3.3572 C18.5297,3.3572 17.3027,4.2072 16.2947,5.9692 C15.3017,4.4342 13.8547,3.1482 12.0557,2.0002 C12.0557,2.0002 7.5017,7.0892 9.5167,14.4592 C3.4367,15.3012 6.0297,20.1862 6.8577,20.4712 C6.8577,20.4712 5.1747,18.3802 7.3997,16.3872 C8.4087,15.4842 10.5257,15.2492 10.5257,15.2492 C10.0447,11.7102 10.0777,8.5122 12.4897,4.9722 C12.7987,5.1782 16.3257,6.7332 16.4587,11.9692 C16.7537,15.2522 15.0537,17.8812 13.4037,18.9032 C10.5517,20.4362 7.4187,21.2052 3.9997,22.0002 C10.5207,21.9762 16.9307,18.7682 19.4787,15.7372 C20.3107,14.7472 19.9277,14.1742 19.7027,14.1332" id="ic_butterfly" fill="currentColor"></path>
        <rect id="Padding" x="0" y="0" width="24" height="24"></rect>
    </g>
</svg>
