<?xml version="1.0" encoding="UTF-8"?>
<svg width="24px" height="24px"  version="1.1" xmlns="http://www.w3.org/2000/svg" xmlns:xlink="http://www.w3.org/1999/xlink">
    <!-- Generator: Sketch 52.6 (67491) - http://www.bohemiancoding.com/sketch -->
    <title>Informative/ic_contact_us</title>
    <desc>Created with Sketch.</desc>
    <g id="Informative/ic_contact_us" stroke="none" stroke-width="1" fill="none" fill-rule="evenodd">
        <path d="M20.5791,18.1191 C20.6481,18.6401 20.9191,19.8801 21.9771,21.1851 C22.1041,21.3411 22.1251,21.5581 22.0291,21.7361 C21.9411,21.9001 21.7711,22.0001 21.5891,22.0001 C21.5731,22.0001 21.5581,21.9991 21.5411,21.9971 C18.7931,21.7351 17.1771,19.7961 16.6531,19.0551 C15.6131,19.1761 12.3451,19.4521 10.5321,18.3951 C10.0521,18.1151 9.5971,17.7841 9.1811,17.4101 C8.9751,17.2251 8.9581,16.9091 9.1421,16.7031 C9.3281,16.4991 9.6431,16.4821 9.8491,16.6651 C10.2151,16.9941 10.6141,17.2861 11.0361,17.5311 C12.8601,18.5951 16.7851,18.0301 16.8251,18.0241 C17.0341,17.9931 17.2261,18.0911 17.3291,18.2651 C17.3421,18.2861 18.4131,20.0591 20.4681,20.7521 C19.5701,19.1961 19.5561,17.9271 19.5561,17.8631 C19.5561,17.6821 19.6541,17.5141 19.8121,17.4251 C19.8931,17.3791 21.8191,16.2681 21.9911,13.7811 C22.0811,12.4941 21.4231,11.3121 20.4281,10.9731 C20.1661,10.8841 20.0261,10.6001 20.1151,10.3381 C20.2051,10.0771 20.4931,9.9371 20.7501,10.0271 C22.1901,10.5181 23.1111,12.0901 22.9891,13.8501 C22.8191,16.3061 21.2371,17.6591 20.5791,18.1191 Z M8.5098,14.0273 C8.6158,13.8943 8.7818,13.8253 8.9508,13.8423 C8.9918,13.8473 13.1638,14.2643 14.8888,13.2523 C15.9748,12.6143 17.8838,11.4943 17.8838,8.7813 C17.8838,6.1563 16.5908,3.0293 10.4418,3.0003 C4.2928,3.0293 2.9998,6.1563 2.9998,8.7813 C2.9998,11.5053 5.9598,13.2323 5.9898,13.2493 C6.1478,13.3393 6.2438,13.5073 6.2418,13.6893 C6.2408,13.7653 6.2148,15.2543 5.5538,16.7693 C6.4888,16.2463 7.7198,15.0093 8.5098,14.0273 Z M15.4558,14.0783 C13.6568,15.1343 10.1308,14.9433 9.1178,14.8613 C8.4048,15.7173 6.3398,18.0173 4.7758,18.0173 C4.6788,18.0173 4.5828,18.0083 4.4898,17.9903 C4.3268,17.9573 4.1908,17.8443 4.1268,17.6903 C4.0628,17.5353 4.0808,17.3603 4.1738,17.2213 C4.9758,16.0273 5.1768,14.5513 5.2268,13.9503 C4.4028,13.4073 1.9998,11.5833 1.9998,8.7813 C1.9998,6.2713 3.0888,2.0713 10.3418,2.0013 C10.3518,2.0003 10.3628,2.0003 10.3718,2.0003 L10.5118,2.0003 C10.5218,2.0003 10.5318,2.0003 10.5418,2.0013 C17.7948,2.0713 18.8838,6.2713 18.8838,8.7813 C18.8838,12.0673 16.5688,13.4253 15.4558,14.0783 Z" id="ic_contact_us" fill="currentColor"></path>
        <rect id="Padding" x="0" y="0" width="24" height="24"></rect>
    </g>
</svg>