<?xml version="1.0" encoding="UTF-8"?>
<svg width="24px" height="24px"  version="1.1" xmlns="http://www.w3.org/2000/svg" xmlns:xlink="http://www.w3.org/1999/xlink">
    <!-- Generator: Sketch 52.6 (67491) - http://www.bohemiancoding.com/sketch -->
    <title>Informative/ic_delivery_date</title>
    <desc>Created with Sketch.</desc>
    <g id="Informative/ic_delivery_date" stroke="none" stroke-width="1" fill="none" fill-rule="evenodd">
        <path d="M22,16.0034 L18,16.0034 L18,12.0034 L19.197,12.0034 C19.296,12.0034 19.392,12.0324 19.475,12.0874 L21.777,13.6224 C21.917,13.7154 22,13.8714 22,14.0384 L22,16.0034 Z M22,18.6034 C22,18.8434 21.87,19.0034 21.784,19.0034 L21.722,19.0034 C21.375,18.4084 20.737,18.0034 20,18.0034 C19.263,18.0034 18.625,18.4084 18.278,19.0034 L10.222,19.0034 C9.875,18.4084 9.237,18.0034 8.5,18.0034 C7.763,18.0034 7.125,18.4084 6.778,19.0034 L6.216,19.0034 C6.13,19.0034 6,18.8434 6,18.6034 L6,17.0034 L17,17.0034 L18,17.0034 L22,17.0034 L22,18.6034 Z M20,21.0034 C19.449,21.0034 19,20.5554 19,20.0034 C19,19.4524 19.449,19.0034 20,19.0034 C20.551,19.0034 21,19.4524 21,20.0034 C21,20.5554 20.551,21.0034 20,21.0034 Z M8.5,21.0034 C7.949,21.0034 7.5,20.5554 7.5,20.0034 C7.5,19.4524 7.949,19.0034 8.5,19.0034 C9.051,19.0034 9.5,19.4524 9.5,20.0034 C9.5,20.5554 9.051,21.0034 8.5,21.0034 Z M22.332,12.7904 L20.029,11.2554 C19.782,11.0904 19.494,11.0034 19.197,11.0034 L18,11.0034 L18,10.0034 C18,8.9004 17.103,8.0034 16,8.0034 L9.723,8.0034 C9.596,8.3574 9.442,8.6964 9.236,9.0034 L16,9.0034 C16.618,9.0034 17,9.5224 17,10.0034 L17,16.0034 L6,16.0034 L6,10.9494 C5.833,10.9684 5.671,11.0004 5.5,11.0004 C5.329,11.0004 5.166,10.9684 5,10.9494 L5,16.5034 L5,18.6034 C5,19.3754 5.545,20.0034 6.216,20.0034 L6.5,20.0034 C6.5,21.1064 7.397,22.0034 8.5,22.0034 C9.603,22.0034 10.5,21.1064 10.5,20.0034 L18,20.0034 C18,21.1064 18.897,22.0034 20,22.0034 C21.103,22.0034 22,21.1064 22,20.0034 C22,19.9954 21.998,19.9874 21.998,19.9784 C22.566,19.8614 23,19.2914 23,18.6034 L23,17.0034 L23,16.5034 L23,14.0384 C23,13.5354 22.75,13.0694 22.332,12.7904 Z" id="Truck" fill="currentColor"></path>
        <path d="M5.5,10 C7.43,10 9,8.43 9,6.5 C9,4.57 7.43,3 5.5,3 C3.57,3 2,4.57 2,6.5 C2,8.43 3.57,10 5.5,10 Z M5.5,2 C7.981,2 10,4.019 10,6.5 C10,8.981 7.981,11 5.5,11 C3.019,11 1,8.981 1,6.5 C1,4.019 3.019,2 5.5,2 Z M7.5,6.0034 C7.776,6.0034 8,6.2274 8,6.5034 C8,6.7794 7.776,7.0034 7.5,7.0034 L5,7.0034 L5,4.5034 C5,4.2274 5.224,4.0034 5.5,4.0034 C5.776,4.0034 6,4.2274 6,4.5034 L6,6.0034 L7.5,6.0034 Z" id="Clock" fill="#EC008C"></path>
        <rect id="Padding" x="0" y="0" width="24" height="24"></rect>
    </g>
</svg>