<?xml version="1.0" encoding="UTF-8"?>
<svg width="24px" height="24px"  version="1.1" xmlns="http://www.w3.org/2000/svg" xmlns:xlink="http://www.w3.org/1999/xlink">
    <!-- Generator: Sketch 52.6 (67491) - http://www.bohemiancoding.com/sketch -->
    <title>Informative/ic_delivery_price</title>
    <desc>Created with Sketch.</desc>
    <g id="Informative/ic_delivery_price" stroke="none" stroke-width="1" fill="none" fill-rule="evenodd">
        <polygon id="Patch" fill="#EC008C" points="15 19 14 20 13 19 13 17 15 17"></polygon>
        <path d="M16.9946,20.5264 C16.9946,20.5174 16.9996,20.5094 16.9996,20.5004 L16.9996,18.5004 C16.9996,18.2234 16.7766,18.0004 16.4996,18.0004 C16.2236,18.0004 15.9996,18.2234 15.9996,18.5004 L15.9996,20.5004 C15.9996,20.5724 16.0166,20.6394 16.0436,20.7014 C14.8266,20.8914 13.3816,21.0004 11.9996,21.0004 C10.6186,21.0004 9.1736,20.8914 7.9556,20.7014 C7.9836,20.6394 7.9996,20.5724 7.9996,20.5004 L7.9996,18.5004 C7.9996,18.2234 7.7766,18.0004 7.4996,18.0004 C7.2236,18.0004 6.9996,18.2234 6.9996,18.5004 L6.9996,20.5004 C6.9996,20.5094 7.0046,20.5174 7.0056,20.5264 C5.8096,20.2654 4.9996,19.9124 4.9996,19.5004 C4.9996,17.5474 4.9996,15.8604 7.7236,14.9474 C8.0796,14.7694 8.3636,14.5894 8.6176,14.4104 C9.0636,15.9954 10.7316,16.0004 11.9996,16.0004 C13.2716,16.0004 14.9446,15.9954 15.3866,14.4004 C15.6546,14.5904 15.9566,14.7824 16.3416,14.9744 C18.9996,15.8604 18.9996,17.5474 18.9996,19.5004 C18.9996,19.9124 18.1896,20.2654 16.9946,20.5264 M8.9396,8.8504 C9.6886,8.9804 10.7086,9.0004 11.9996,9.0004 C13.2906,9.0004 14.3096,8.9804 15.0576,8.8514 C15.2016,9.5724 15.0926,9.8664 15.0476,9.9354 C15.0136,9.9884 14.9806,9.9994 14.9996,10.0004 C14.7236,10.0004 14.4996,10.2234 14.4996,10.5004 C14.4996,12.1514 12.2986,12.9864 12.0026,13.0004 C11.7016,12.9864 9.4996,12.1514 9.4996,10.5004 C9.4996,10.2234 9.2416,9.9534 8.9656,9.9534 C8.8636,9.8234 8.8186,9.4574 8.9396,8.8504 M11.9996,3.0004 C14.2916,3.0004 14.9716,3.8554 14.9996,4.0004 L14.9996,6.0194 C14.8736,6.0084 14.7356,6.0024 14.5726,6.0004 C14.2526,5.8584 13.3146,5.5004 11.9996,5.5004 C10.6786,5.5004 9.7126,5.8614 9.3906,6.0004 C9.2436,6.0014 9.1166,6.0064 8.9996,6.0154 L8.9986,4.0124 C9.0286,3.8554 9.7076,3.0004 11.9996,3.0004 M8.5126,7.7204 L8.5666,7.6094 C8.6966,7.3444 8.8306,7.0714 8.8886,7.0314 C8.9466,7.0004 9.2406,7.0004 9.4996,7.0004 L9.6186,7.0004 L9.7236,6.9474 C9.7326,6.9434 10.6336,6.5004 11.9996,6.5004 C13.3396,6.5004 14.2156,6.9364 14.2316,6.9444 L14.3376,7.0004 L14.4606,7.0004 C15.1336,7.0004 15.1336,7.0004 15.5266,7.6614 C15.2166,8.0004 13.0436,8.0004 11.9996,8.0004 C10.9556,8.0004 8.7836,8.0004 8.5126,7.7204 M11.9996,14.0004 C12.3656,14.0004 13.3156,13.6734 14.1356,13.0284 C14.2056,13.1904 14.3276,13.3824 14.4936,13.5904 C14.4576,14.8624 13.7326,15.0004 11.9996,15.0004 C10.2726,15.0004 9.5466,14.8624 9.5076,13.6014 C9.6756,13.3904 9.7956,13.1944 9.8676,13.0304 C10.6866,13.6744 11.6346,14.0004 11.9996,14.0004 M16.7236,14.0524 C15.1396,13.2604 15.0066,12.5264 14.9996,12.4794 C14.9956,12.3904 14.9626,12.3124 14.9186,12.2414 C15.2026,11.8504 15.4106,11.3924 15.4766,10.8654 C15.5986,10.7974 15.7196,10.7014 15.8236,10.5684 C16.1606,10.1364 16.2186,9.4444 16.0126,8.5284 C16.1596,8.4354 16.2866,8.3314 16.3696,8.1984 C16.4666,8.0414 16.5986,7.7134 16.3856,7.2794 C16.2366,6.9784 16.1176,6.7514 15.9996,6.5744 L15.9996,4.0004 C15.9996,3.1694 14.7586,2.0004 11.9996,2.0004 C9.2416,2.0004 7.9996,3.1694 7.9996,4.0004 L7.9996,6.5614 C7.8976,6.7174 7.7936,6.9154 7.6696,7.1684 L7.6146,7.2794 C7.4016,7.7134 7.5336,8.0414 7.6306,8.1984 C7.7136,8.3314 7.8406,8.4354 7.9876,8.5284 C7.7816,9.4444 7.8396,10.1364 8.1766,10.5684 C8.2806,10.7014 8.4006,10.7974 8.5226,10.8654 C8.5896,11.3964 8.7996,11.8584 9.0866,12.2514 C9.0426,12.3194 9.0096,12.3934 9.0006,12.4764 C8.9996,12.4844 8.9066,13.2374 7.3416,14.0264 C3.9996,15.1394 3.9996,17.4564 3.9996,19.5004 C3.9996,21.8194 10.1226,22.0004 11.9996,22.0004 C13.8766,22.0004 19.9996,21.8194 19.9996,19.5004 C19.9996,17.4564 19.9996,15.1394 16.7236,14.0524" id="Man" fill="currentColor"></path>
        <rect id="Padding" x="0" y="0" width="24" height="24"></rect>
    </g>
</svg>