<?xml version="1.0" encoding="UTF-8"?>
<svg width="24px" height="24px"  version="1.1" xmlns="http://www.w3.org/2000/svg" xmlns:xlink="http://www.w3.org/1999/xlink">
    <!-- Generator: Sketch 52.6 (67491) - http://www.bohemiancoding.com/sketch -->
    <title>Informative/ic_discount_coupon</title>
    <desc>Created with Sketch.</desc>
    <g id="Informative/ic_discount_coupon" stroke="none" stroke-width="1" fill="none" fill-rule="evenodd">
        <path d="M22.7725,15.0679 L12.9325,5.2279 C12.7805,5.0759 12.5825,4.9999 12.3835,4.9999 C12.1875,4.9999 11.9915,5.0749 11.8425,5.2239 L10.3485,6.7179 C10.6725,7.0429 10.7555,7.5079 10.6175,7.9129 L11.3675,8.6629 C11.5745,8.3259 11.6905,7.9399 11.6895,7.5339 C11.6885,7.3119 11.6545,7.0959 11.5895,6.8899 L12.3855,6.0949 L21.9055,15.6149 L21.1265,16.3929 C20.9185,16.3279 20.7005,16.2939 20.4765,16.2939 C19.9015,16.2939 19.3625,16.5169 18.9565,16.9229 C18.3715,17.5079 18.1955,18.3499 18.4285,19.0919 L17.6145,19.9049 L14.0805,16.3709 C13.9285,16.4259 13.7855,16.5079 13.6635,16.6299 C13.5285,16.7649 13.4475,16.9279 13.3945,17.0989 L17.0675,20.7729 C17.2195,20.9239 17.4185,20.9999 17.6165,20.9999 C17.8125,20.9999 18.0085,20.9249 18.1575,20.7759 L19.6685,19.2649 C19.2165,18.8119 19.2135,18.0799 19.6635,17.6299 C19.8875,17.4059 20.1815,17.2939 20.4765,17.2939 C20.7735,17.2939 21.0715,17.4079 21.2985,17.6349 L22.7755,16.1579 C23.0765,15.8579 23.0745,15.3699 22.7725,15.0679" id="Coupon_02" fill="#EC008C"></path>
        <path d="M6.3838,4 C6.1878,4 5.9918,4.075 5.8418,4.224 L4.3478,5.718 C4.8008,6.171 4.8028,6.903 4.3528,7.353 C4.1288,7.577 3.8348,7.689 3.5398,7.689 C3.2428,7.689 2.9458,7.575 2.7178,7.348 L1.2238,8.842 C0.9238,9.142 0.9258,9.63 1.2278,9.932 L11.0678,19.772 C11.2188,19.924 11.4178,20 11.6158,20 C11.8128,20 12.0088,19.925 12.1578,19.776 L13.6688,18.265 C13.2168,17.812 13.2138,17.08 13.6638,16.63 C13.8878,16.406 14.1818,16.294 14.4768,16.294 C14.7738,16.294 15.0718,16.408 15.2988,16.635 L16.7758,15.158 C17.0758,14.858 17.0748,14.37 16.7728,14.068 L6.9318,4.228 C6.7798,4.076 6.5818,4 6.3838,4 M6.3848,5.095 L15.9048,14.615 L15.1268,15.393 C14.9188,15.328 14.6998,15.294 14.4768,15.294 C13.9018,15.294 13.3628,15.517 12.9568,15.923 C12.3718,16.508 12.1958,17.35 12.4278,18.092 L11.6148,18.905 L2.0948,9.385 L2.8898,8.59 C3.0978,8.655 3.3168,8.689 3.5398,8.689 C4.1148,8.689 4.6548,8.466 5.0598,8.06 C5.4678,7.653 5.6908,7.111 5.6888,6.534 C5.6888,6.312 5.6548,6.096 5.5898,5.89 L6.3848,5.095" id="Coupon_01" fill="currentColor"></path>
        <rect id="Padding" x="0" y="0" width="24" height="24"></rect>
    </g>
</svg>