<?xml version="1.0" encoding="UTF-8"?>
<svg width="24px" height="24px"  version="1.1" xmlns="http://www.w3.org/2000/svg" xmlns:xlink="http://www.w3.org/1999/xlink">
    <!-- Generator: Sketch 52.6 (67491) - http://www.bohemiancoding.com/sketch -->
    <title>Informative/ic_end_time</title>
    <desc>Created with Sketch.</desc>
    <g id="Informative/ic_end_time" stroke="none" stroke-width="1" fill="none" fill-rule="evenodd">
        <path d="M11.9758,21.0015 L12.0248,21.0015 C13.8358,20.9935 15.3108,20.5115 16.1868,19.6395 C16.7188,19.1095 16.9998,18.4485 16.9998,17.7275 C17.0018,17.5895 16.9878,14.5155 12.9228,12.4475 C12.7548,12.3615 12.6498,12.1895 12.6498,12.0015 C12.6498,11.8135 12.7548,11.6415 12.9228,11.5555 C16.9878,9.4875 17.0018,6.4135 16.9998,6.2835 C16.9998,5.5545 16.7188,4.8935 16.1868,4.3635 C15.3108,3.4915 13.8368,3.0095 12.0278,3.0015 L11.9728,3.0015 C10.1638,3.0095 8.6888,3.4915 7.8138,4.3635 C7.2818,4.8935 6.9998,5.5545 6.9998,6.2755 C6.9988,6.4135 7.0128,9.4875 11.0778,11.5555 C11.2458,11.6415 11.3508,11.8135 11.3508,12.0015 C11.3508,12.1895 11.2458,12.3615 11.0778,12.4475 C7.0128,14.5155 6.9988,17.5895 6.9998,17.7195 C6.9998,18.4485 7.2818,19.1095 7.8138,19.6395 C8.6888,20.5115 10.1648,20.9935 11.9758,21.0015 M12.0208,22.0015 L11.9798,22.0015 C11.9568,22.0015 11.9338,22.0025 11.9138,22.0015 C9.8638,21.9815 8.1618,21.3975 7.1078,20.3485 C6.3828,19.6265 5.9998,18.7205 5.9998,17.7275 C5.9968,17.5915 5.9758,14.3555 9.8258,12.0015 C5.9758,9.6475 5.9968,6.4105 5.9998,6.2645 C5.9998,5.2825 6.3838,4.3765 7.1078,3.6545 C8.1618,2.6055 9.8638,2.0215 11.9138,2.0015 C11.9358,1.9995 11.9588,2.0015 11.9808,2.0015 L12.0188,2.0015 C12.0408,2.0015 12.0628,1.9985 12.0868,2.0015 C14.1368,2.0215 15.8388,2.6055 16.8928,3.6545 C17.6168,4.3765 17.9998,5.2825 17.9998,6.2755 C18.0028,6.4105 18.0238,9.6475 14.1748,12.0015 C18.0238,14.3555 18.0028,17.5925 17.9998,17.7375 C17.9998,18.7205 17.6178,19.6265 16.8928,20.3485 C15.8388,21.3975 14.1368,21.9815 12.0868,22.0015 C12.0658,22.0015 12.0428,22.0015 12.0208,22.0015" id="Hourglass" fill="currentColor"></path>
        <path d="M14.7473,7.0093 C14.9143,6.9633 15.0563,7.1373 14.9763,7.2913 C14.4963,8.2193 12.5213,10.5013 12.0003,10.5013 C11.4793,10.5013 9.5013,8.2193 9.0213,7.2923 C8.9413,7.1383 9.0833,6.9633 9.2503,7.0093 C9.7863,7.1573 10.9403,7.5013 12.0003,7.5013 C13.0603,7.5013 14.2113,7.1573 14.7473,7.0093 Z M15.0002,17.9766 C15.0002,19.0456 13.9142,20.0016 12.0002,20.0016 C10.0862,20.0016 9.0002,19.0456 9.0002,17.9766 C9.0002,17.2726 10.0862,17.9766 12.0002,17.9766 C13.9142,17.9766 15.0002,17.3136 15.0002,17.9766 Z" id="Sand" fill="#EC008C"></path>
        <rect id="Padding" x="0" y="0" width="24" height="24"></rect>
    </g>
</svg>