<?xml version="1.0" encoding="UTF-8"?>
<svg width="24px" height="24px"  version="1.1" xmlns="http://www.w3.org/2000/svg" xmlns:xlink="http://www.w3.org/1999/xlink">
    <!-- Generator: Sketch 52.6 (67491) - http://www.bohemiancoding.com/sketch -->
    <title>Informative/ic_guide_size</title>
    <desc>Created with Sketch.</desc>
    <g id="Informative/ic_guide_size" stroke="none" stroke-width="1" fill="none" fill-rule="evenodd">
        <path d="M9,9 C7.896,9 7,8.552 7,8 C7,7.448 7.896,7 9,7 C10.104,7 11,7.448 11,8 C11,8.552 10.104,9 9,9 Z M21,19 L21,14.004 C21,13.338 20.664,13 20.003,13 L9.5,13 C9.462,13 9.429,12.986 9.394,12.979 C9.263,12.984 9.133,12.993 9,12.993 C6.452,12.993 4.225,12.013 3,10.556 L3,16 C3,17.282 3.844,18.268 5,18.941 L5,17 L6,17 L6,19.422 C6.325,19.549 6.661,19.654 7,19.74 L7,17 L8,17 L8,19.931 C8.343,19.976 8.68,19.999 9,20 L9,16 L10,16 L10,20 L11,20 L11,18 L12,18 L12,20 L13,20 L13,18 L14,18 L14,20 L15,20 L15,16 L16,16 L16,20 L17,20 L17,18 L18,18 L18,20 L19,20 L19,18 L20,18 L20,20 L20.003,20 C20.25,20 21,20 21,19 Z M9,4 C5.691,4 3,5.792 3,7.996 C3,10.2 5.691,11.993 9,11.993 C12.309,11.993 15,10.2 15,7.996 C15,5.792 12.309,4 9,4 Z M15,12 L15,10.556 C14.526,11.119 13.904,11.609 13.17,12 L15,12 Z M20.003,12 C21.216,12 22,12.787 22,14.004 L22,19 C22,19.967 21.476,21 20.003,21 L20,21 L19,21 L18,21 L17,21 L16,21 L15,21 L14,21 L13,21 L12,21 L11,21 L10,21 L9.01,21 L9,21 C6.173,20.996 2,19.407 2,16 L2,8.5 C2,8.454 2.015,8.412 2.026,8.369 C2.014,8.245 2,8.122 2,7.996 C2,5.241 5.141,3 9,3 C12.492,3 15.388,4.837 15.908,7.228 C15.962,7.307 16,7.397 16,7.5 L16,12 L20.003,12 Z" id="ic_guide_size" fill="currentColor"></path>
        <rect id="Padding" x="0" y="0" width="24" height="24"></rect>
    </g>
</svg>