<?xml version="1.0" encoding="UTF-8"?>
<svg width="24px" height="24px"  version="1.1" xmlns="http://www.w3.org/2000/svg" xmlns:xlink="http://www.w3.org/1999/xlink">
    <!-- Generator: Sketch 52.6 (67491) - http://www.bohemiancoding.com/sketch -->
    <title>Informative/ic_homepart_soon</title>
    <desc>Created with Sketch.</desc>
    <g id="Informative/ic_homepart_soon" stroke="none" stroke-width="1" fill="none" fill-rule="evenodd">
        <path d="M7.5,7 C7.224,7 7,6.776 7,6.5 L7,3.5 C7,3.224 7.224,3 7.5,3 C7.776,3 8,3.224 8,3.5 L8,6.5 C8,6.776 7.776,7 7.5,7 Z M16.5,7 C16.224,7 16,6.776 16,6.5 L16,3.5 C16,3.224 16.224,3 16.5,3 C16.776,3 17,3.224 17,3.5 L17,6.5 C17,6.776 16.776,7 16.5,7 Z M9,6 L9,5 L15,5 L15,6 L9,6 Z M20.3774,5 C21.2724,5 22.0004,5.716 22.0004,6.595 L22.0004,20.405 C22.0004,21.284 21.2724,22 20.3774,22 L3.6224,22 C2.7284,22 2.0004,21.284 2.0004,20.405 L2.0004,6.595 C2.0004,5.716 2.7284,5 3.6224,5 L5.9544,5 L5.9544,6 L3.6224,6 C3.2794,6 3.0004,6.267 3.0004,6.595 L3.0004,20.405 C3.0004,20.733 3.2794,21 3.6224,21 L20.3774,21 C20.7204,21 21.0004,20.733 21.0004,20.405 L21.0004,6.595 C21.0004,6.267 20.7204,6 20.3774,6 L18.0004,6 L18.0004,5 L20.3774,5 Z" id="Calendar" fill="currentColor"></path>
        <path d="M5,10 C5,9.447 5.448,9 6,9 C6.552,9 7,9.447 7,10 C7,10.553 6.552,11 6,11 C5.448,11 5,10.553 5,10 Z M6,13 C6.552,13 7,13.447 7,14 C7,14.553 6.552,15 6,15 C5.448,15 5,14.553 5,14 C5,13.447 5.448,13 6,13 Z M6,17 C6.552,17 7,17.447 7,18 C7,18.553 6.552,19 6,19 C5.448,19 5,18.553 5,18 C5,17.447 5.448,17 6,17 Z M10,11 C9.448,11 9,10.553 9,10 C9,9.447 9.448,9 10,9 C10.552,9 11,9.447 11,10 C11,10.553 10.552,11 10,11 Z M10,15 C9.448,15 9,14.553 9,14 C9,13.447 9.448,13 10,13 C10.552,13 11,13.447 11,14 C11,14.553 10.552,15 10,15 Z M10,19 C9.448,19 9,18.553 9,18 C9,17.447 9.448,17 10,17 C10.552,17 11,17.447 11,18 C11,18.553 10.552,19 10,19 Z M14,9 C14.552,9 15,9.447 15,10 C15,10.553 14.552,11 14,11 C13.448,11 13,10.553 13,10 C13,9.447 13.448,9 14,9 Z M14,13 C14.552,13 15,13.447 15,14 C15,14.553 14.552,15 14,15 C13.448,15 13,14.553 13,14 C13,13.447 13.448,13 14,13 Z M18,11 C17.448,11 17,10.553 17,10 C17,9.447 17.448,9 18,9 C18.552,9 19,9.447 19,10 C19,10.553 18.552,11 18,11 Z M18,13 C18.552,13 19,13.447 19,14 C19,14.553 18.552,15 18,15 C17.448,15 17,14.553 17,14 C17,13.447 17.448,13 18,13 Z" id="Dated" fill="currentColor"></path>
        <rect id="Padding" x="0" y="0" width="24" height="24"></rect>
    </g>
</svg>