<?xml version="1.0" encoding="UTF-8"?>
<svg width="24px" height="24px"  version="1.1" xmlns="http://www.w3.org/2000/svg" xmlns:xlink="http://www.w3.org/1999/xlink">
    <!-- Generator: Sketch 52.6 (67491) - http://www.bohemiancoding.com/sketch -->
    <title>Informative/ic_homepart_in_progress</title>
    <desc>Created with Sketch.</desc>
    <g id="Informative/ic_homepart_in_progress" stroke="none" stroke-width="1" fill="none" fill-rule="evenodd">
        <path d="M12,2 C11.724,2 11.5,2.224 11.5,2.5 C11.5,2.776 11.724,3 12,3 C16.962,3 21,7.037 21,12 C21,16.963 16.962,21 12,21 L12,19 L8,21.5 L12,24 L12,22 C17.514,22 22,17.514 22,12 C22,6.486 17.514,2 12,2" id="Arrow" fill="currentColor"></path>
        <path d="M13.6758,8.0322 C13.4158,7.9302 13.1288,8.0652 13.0318,8.3242 L11.3928,12.6962 L16.2228,15.9162 C16.3078,15.9722 16.4048,16.0002 16.4998,16.0002 C16.6608,16.0002 16.8198,15.9222 16.9158,15.7772 C17.0698,15.5482 17.0078,15.2372 16.7778,15.0842 L12.6078,12.3032 L13.9678,8.6762 C14.0648,8.4172 13.9338,8.1292 13.6758,8.0322" id="Needle" fill="currentColor"></path>
        <rect id="Padding" x="0" y="0" width="24" height="24"></rect>
    </g>
</svg>