<?xml version="1.0" encoding="UTF-8"?>
<svg width="24px" height="24px"  version="1.1" xmlns="http://www.w3.org/2000/svg" xmlns:xlink="http://www.w3.org/1999/xlink">
    <!-- Generator: Sketch 52.6 (67491) - http://www.bohemiancoding.com/sketch -->
    <title>Informative/ic_pickup_point</title>
    <desc>Created with Sketch.</desc>
    <g id="Informative/ic_pickup_point" stroke="none" stroke-width="1" fill="none" fill-rule="evenodd">
        <path d="M21.5,20 C21.776,20 22,20.224 22,20.5 C22,20.776 21.776,21 21.5,21 L2.5,21 C2.224,21 2,20.776 2,20.5 C2,20.224 2.224,20 2.5,20 L4,20 L4,14.5 C4,14.224 4.224,14 4.5,14 C4.776,14 5,14.224 5,14.5 L5,20 L19,20 L19,14.5 C19,14.224 19.224,14 19.5,14 C19.776,14 20,14.224 20,14.5 L20,20 L21.5,20 Z M3.03685456,9.7051 C2.95407695,9.9431 2.9710314,10.6661 3.3869141,11.2541 C3.73797096,11.7491 4.27452945,12.0001 4.98362441,12.0001 C6.75087654,12.0001 7.0002067,10.6141 7.02314507,10.4561 C7.05805129,10.2101 7.26948327,10.0251 7.51681878,10.0251 L7.51881342,10.0251 C7.76814357,10.0261 7.9775809,10.2091 8.01148981,10.4561 C8.03343086,10.6121 8.27777441,12.0001 9.72488663,12.0001 C10.9336392,12.0001 11.4542406,10.9691 11.4542406,10.6421 C11.4542406,10.3651 11.6776404,10.1421 11.9529009,10.1421 L11.9768366,10.1421 C12.2520971,10.1421 12.4754969,10.3651 12.4754969,10.6421 C12.4754969,10.9691 12.9960983,12.0001 14.2058482,12.0001 C15.6519631,12.0001 15.8963066,10.6121 15.919245,10.4541 C15.9551485,10.2081 16.1655832,10.0241 16.4129187,10.0241 L16.416908,10.0241 C16.6662381,10.0271 16.8756755,10.2121 16.9075897,10.4601 C16.9295308,10.6141 17.1798582,12.0001 18.9461131,12.0001 C19.6681732,12.0001 20.2206888,11.7351 20.5916921,11.2131 C21.0005935,10.6351 21.0534515,9.9091 20.9686793,9.6651 C20.7622339,9.0711 19.5145858,5.9951 19.1096736,5.0001 L4.82704507,5.0001 C4.43709271,6.0121 3.24429725,9.1091 3.03685456,9.7051 Z M4.98362441,13.0001 C3.67513976,13.0001 2.95108499,12.3651 2.5740978,11.8321 C1.99265988,11.0131 1.89392514,9.9541 2.0953839,9.3751 C2.34870334,8.6491 3.95139757,4.4961 4.02021269,4.3191 C4.09501174,4.1271 4.27951605,4.0001 4.4849641,4.0001 L19.4447734,4.0001 C19.6472295,4.0001 19.8297391,4.1231 19.9065328,4.3101 C19.9773426,4.4851 21.6558332,8.6031 21.9101499,9.3351 C22.1076194,9.9011 21.9969168,10.9551 21.4045084,11.7921 C21.0135587,12.3431 20.2705548,13.0001 18.9461131,13.0001 C17.6755266,13.0001 16.886646,12.4481 16.4318678,11.8251 C16.0199744,12.4481 15.3178607,13.0001 14.2058482,13.0001 C13.1556696,13.0001 12.4086764,12.4951 11.9648687,11.9061 C11.5210611,12.4951 10.7740679,13.0001 9.72488663,13.0001 C8.61187682,13.0001 7.9097631,12.4481 7.49886701,11.8251 C7.04408881,12.4481 6.2552082,13.0001 4.98362441,13.0001 Z M7.5,14 C7.776,14 8,14.224 8,14.5 L8,17 L16,17 L16,14.5 C16,14.224 16.224,14 16.5,14 C16.776,14 17,14.224 17,14.5 L17,17.5 C17,17.776 16.776,18 16.5,18 L7.5,18 C7.224,18 7,17.776 7,17.5 L7,14.5 C7,14.224 7.224,14 7.5,14 Z" id="ic_pickup_point" fill="currentColor"></path>
        <rect id="Padding" x="0" y="0" width="24" height="24"></rect>
    </g>
</svg>