<?xml version="1.0" encoding="UTF-8"?>
<svg width="24px" height="24px"  version="1.1" xmlns="http://www.w3.org/2000/svg" xmlns:xlink="http://www.w3.org/1999/xlink">
    <!-- Generator: Sketch 52.6 (67491) - http://www.bohemiancoding.com/sketch -->
    <title>Informative/ic_placeholder</title>
    <desc>Created with Sketch.</desc>
    <g id="Informative/ic_placeholder" stroke="none" stroke-width="1" fill="none" fill-rule="evenodd">
        <path d="M16.3223,10.7979 C16.4393,12.0119 16.3843,13.8959 15.1923,15.4939 C15.4983,15.2089 16.2103,14.3899 16.8963,12.4639 C17.8033,9.9199 16.7693,7.4439 16.7693,7.4439 C16.7693,7.4439 16.2673,7.7979 15.7783,8.7509 C16.0643,9.3749 16.2503,10.0539 16.3223,10.7979 Z M17.7773,13.4929 C17.9463,13.5219 18.2333,13.9229 17.6093,14.6159 C15.6983,16.7379 10.8903,18.9839 6.0003,18.9999 C8.5643,18.4439 10.9143,17.9059 13.0523,16.8329 C14.2903,16.1159 15.5653,14.2769 15.3443,11.9789 C15.2443,8.3139 12.5983,7.2249 12.3673,7.0809 C10.5583,9.5589 10.5333,11.7969 10.8943,14.2749 C10.8943,14.2749 9.3073,14.4399 8.5503,15.0709 C6.8813,16.4659 8.1433,17.9299 8.1433,17.9299 C7.5223,17.7309 5.5773,14.3109 10.1373,13.7219 C8.6263,8.5619 12.0413,4.9999 12.0413,4.9999 C13.3913,5.8039 14.4763,6.7039 15.2213,7.7779 C15.9773,6.5449 16.8973,5.9499 16.8973,5.9499 C19.2623,9.7479 17.3273,13.5569 15.7093,15.1509 C16.2903,14.7599 16.6643,14.3369 17.1423,13.7979 C17.3473,13.5669 17.6453,13.4729 17.7773,13.4929 Z M12,0 C18.627,0 24,5.372 24,12 C24,18.627 18.627,24 12,24 C5.373,24 0,18.627 0,12 C0,5.372 5.373,0 12,0 Z M12,1 C5.935,1 1,5.935 1,12 C1,18.065 5.935,23 12,23 C18.065,23 23,18.065 23,12 C23,5.935 18.065,1 12,1 Z" id="ic_placeholder" fill="#E1E1E4"></path>
        <rect id="Padding" x="0" y="0" width="24" height="24"></rect>
    </g>
</svg>