<?xml version="1.0" encoding="UTF-8"?>
<svg width="24px" height="24px"  version="1.1" xmlns="http://www.w3.org/2000/svg" xmlns:xlink="http://www.w3.org/1999/xlink">
    <!-- Generator: Sketch 52.6 (67491) - http://www.bohemiancoding.com/sketch -->
    <title>Informative/ic_question</title>
    <desc>Created with Sketch.</desc>
    <g id="Informative/ic_question" stroke="none" stroke-width="1" fill="none" fill-rule="evenodd">
        <path d="M10.0562,19.8198 C10.0562,21.4428 12.0562,21.4408 12.0562,19.8198 C12.0562,19.0228 11.5542,18.6658 11.0562,18.6658 C10.5582,18.6658 10.0562,19.0228 10.0562,19.8198 Z M9.0562,19.8198 C9.0562,16.9908 13.0562,16.9918 13.0562,19.8198 C13.0562,21.2358 12.0262,21.9998 11.0562,21.9998 C10.0862,21.9998 9.0562,21.2358 9.0562,19.8198 Z M14.3667,11.7271 C15.7207,11.0171 17.0007,10.3461 17.0007,7.6451 C17.0007,3.3351 12.9247,3.0001 11.6757,3.0001 C9.9187,3.0001 8.2487,3.7601 7.0957,5.0861 C6.9507,5.2311 6.9917,5.4561 7.1917,5.7851 L7.4907,6.2871 C7.5967,6.4651 7.6817,6.5221 7.7157,6.5281 C7.7487,6.5331 7.8547,6.5071 8.0197,6.3701 C9.0107,5.2821 10.1997,4.7301 11.6067,4.7301 C13.3337,4.7301 15.3507,5.5621 15.3507,7.9081 C15.3507,9.9081 14.0197,10.5301 12.8457,11.0781 C11.4687,11.7211 10.1687,12.3281 9.9997,14.9241 L10.0007,15.5741 C10.0007,16.0001 10.3637,16.0001 10.5007,16.0001 L11.6067,16.0001 C11.9097,16.0001 11.9887,15.9671 11.9967,15.9631 C11.9457,15.9791 11.9737,15.8181 11.9857,15.6921 L12.0027,15.4981 L12.0007,14.9181 C11.9627,12.9881 13.2397,12.3181 14.3667,11.7271 Z M11.6757,2.0001 C14.7337,2.0001 18.0007,3.4831 18.0007,7.6451 C18.0007,10.9511 16.2427,11.8721 14.8307,12.6131 C13.7527,13.1781 12.9747,13.5861 13.0007,14.9081 L12.9817,15.7791 C12.9207,16.4711 12.7817,17.0001 11.6067,17.0001 L10.5007,17.0001 C9.4647,17.0001 9.0007,16.2841 9.0007,15.5741 L9.0007,14.8921 C9.2097,11.6731 10.9907,10.8411 12.4227,10.1721 C13.5837,9.6301 14.3507,9.2711 14.3507,7.9081 C14.3507,5.8881 12.2507,5.7301 11.6067,5.7301 C10.4797,5.7301 9.5587,6.1631 8.7087,7.0911 C8.2877,7.4491 7.9167,7.5761 7.5467,7.5141 C7.1837,7.4511 6.8757,7.2101 6.6317,6.7981 L6.3347,6.3011 C5.7177,5.2851 6.0907,4.6751 6.3677,4.4011 C7.6847,2.8861 9.6287,2.0001 11.6757,2.0001 Z" id="ic_question" fill="currentColor"></path>
        <rect id="Padding" x="0" y="0" width="24" height="24"></rect>
    </g>
</svg>