<?xml version="1.0" encoding="UTF-8"?>
<svg width="24px" height="24px"  version="1.1" xmlns="http://www.w3.org/2000/svg" xmlns:xlink="http://www.w3.org/1999/xlink">
    <!-- Generator: Sketch 52.6 (67491) - http://www.bohemiancoding.com/sketch -->
    <title>Informative/ic_search</title>
    <desc>Created with Sketch.</desc>
    <g id="Informative/ic_search" stroke="none" stroke-width="1" fill="none" fill-rule="evenodd">
        <path d="M4,10.5 C4,6.916 6.916,4 10.5,4 C14.084,4 17,6.916 17,10.5 C17,14.084 14.084,17 10.5,17 C6.916,17 4,14.084 4,10.5 M20.854,20.152 L16.14,15.428 C17.294,14.108 18,12.387 18,10.5 C18,6.364 14.636,3 10.5,3 C6.364,3 3,6.364 3,10.5 C3,14.636 6.364,18 10.5,18 C12.39,18 14.113,17.292 15.433,16.136 L20.146,20.859 C20.244,20.957 20.372,21.006 20.5,21.006 C20.628,21.006 20.755,20.957 20.853,20.859 C21.049,20.665 21.049,20.349 20.854,20.152" id="ic_search" fill="currentColor"></path>
        <rect id="Padding" x="0" y="0" width="24" height="24"></rect>
    </g>
</svg>
