<?xml version="1.0" encoding="UTF-8"?>
<svg width="24px" height="24px"  version="1.1" xmlns="http://www.w3.org/2000/svg" xmlns:xlink="http://www.w3.org/1999/xlink">
    <!-- Generator: Sketch 52.6 (67491) - http://www.bohemiancoding.com/sketch -->
    <title>Informative/ic_selective_sorting</title>
    <desc>Created with Sketch.</desc>
    <g id="Informative/ic_selective_sorting" stroke="none" stroke-width="1" fill="none" fill-rule="evenodd">
        <path d="M13.7269,12.6235 C12.8559,13.9435 13.5939,15.6765 14.4969,16.5525 C15.3169,17.3525 15.9769,17.5395 16.0629,17.5635 L16.4809,16.7395 L17.6919,20.1325 L14.2739,20.8445 L14.7269,19.9795 L14.2659,19.7125 C12.8289,18.7525 12.5239,17.4435 12.4219,17.0355 C12.2499,16.3365 11.9929,14.2355 13.7269,12.6235 Z M13.7113,12.6802 C14.3323,14.1402 16.1563,14.4202 17.3593,14.1082 C18.4263,13.8312 18.9343,13.3762 19.0203,13.2962 L19.0163,13.2872 L18.5633,12.4762 L22.0003,13.2472 L20.7543,16.5922 L20.2933,15.7522 L19.8443,16.0002 C18.2813,16.7362 17.0433,16.3042 16.6523,16.1722 C15.9843,15.9442 14.1133,15.0442 13.7113,12.6802 Z M19.7894,9.1558 C19.5514,10.8998 18.5274,11.7398 18.2074,12.0048 C17.6604,12.4608 15.9104,13.5888 13.7584,12.6598 C15.2934,12.9118 16.5084,11.4878 16.9024,10.2798 C17.2544,9.1958 17.1524,8.5088 17.1334,8.4038 L17.1214,8.4038 L16.2074,8.3638 L18.6914,5.8038 L20.7694,8.6798 L19.8324,8.6238 L19.7894,9.1558 Z M9.3598,7.6841 C8.5748,7.6841 7.9378,7.0321 7.9378,6.2281 C7.9378,5.4241 8.5748,4.7721 9.3598,4.7721 C10.1448,4.7721 10.7818,5.4241 10.7818,6.2281 C10.7818,7.0321 10.1448,7.6841 9.3598,7.6841 Z M7.1605,14.7681 L6.0665,17.8961 C6.9265,18.6441 7.9375,19.2071 9.0435,19.5361 L7.7155,14.7561 C7.6255,14.4121 7.4615,14.4481 7.4615,14.4481 C7.4615,14.4481 7.2815,14.4281 7.1605,14.7681 Z M11.3015,2.0001 C14.0155,2.0001 16.4615,3.2001 18.1605,5.1121 L17.3285,5.9801 C15.8445,4.2841 13.6915,3.2201 11.3015,3.2201 C6.8245,3.2201 3.1835,6.9521 3.1835,11.5441 C3.1835,13.5681 3.8905,15.4241 5.0665,16.8681 L6.4305,10.0041 C6.6805,8.7961 7.7855,7.8641 8.9025,8.0801 C9.7235,8.2401 13.5665,10.8521 13.5665,10.8521 C13.8945,11.0641 13.7115,11.3561 13.7115,11.3561 C13.7115,11.3561 13.5555,11.6361 13.2305,11.4921 L10.4105,10.3281 C9.9105,10.1081 9.0975,10.3401 9.2195,11.8001 L10.1015,19.5281 L10.1405,19.7801 C10.5195,19.8361 10.9065,19.8681 11.3015,19.8681 C11.5515,19.8681 11.7975,19.8521 12.0435,19.8281 L11.9725,18.8201 L13.8755,20.3121 L12.1765,22.0001 L12.1135,21.0391 C11.8445,21.0681 11.5745,21.0841 11.3015,21.0841 C6.1725,21.0841 2.0005,16.8041 2.0005,11.5441 C2.0005,6.2801 6.1725,2.0001 11.3015,2.0001 Z" id="ic_selective_sorting" fill="currentColor"></path>
        <rect id="Padding" x="0" y="0" width="24" height="24"></rect>
    </g>
</svg>