<?xml version="1.0" encoding="UTF-8"?>
<svg width="24px" height="24px"  version="1.1" xmlns="http://www.w3.org/2000/svg" xmlns:xlink="http://www.w3.org/1999/xlink">
    <!-- Generator: Sketch 52.6 (67491) - http://www.bohemiancoding.com/sketch -->
    <title>Informative/ic_48h_shipping</title>
    <desc>Created with Sketch.</desc>
    <g id="Informative/ic_48h_shipping" stroke="none" stroke-width="1" fill="none" fill-rule="evenodd">
        <path d="M21.4986,12.7254 C21.7746,12.7254 21.9986,12.9494 21.9986,13.2254 C21.9986,14.6034 21.8076,15.2114 21.4706,16.1664 C21.3976,16.3724 21.2046,16.5004 20.9986,16.5004 C20.9436,16.5004 20.8876,16.4924 20.8316,16.4724 C20.5716,16.3804 20.4356,16.0944 20.5266,15.8344 C20.8456,14.9324 20.9986,14.4454 20.9986,13.2254 C20.9986,12.9494 21.2226,12.7254 21.4986,12.7254 Z M6.839,5.4207 C6.999,5.6467 6.945,5.9587 6.719,6.1177 C5.156,7.2247 3.979,8.8177 3.406,10.6067 C3.338,10.8187 3.141,10.9537 2.93,10.9537 C2.88,10.9537 2.828,10.9457 2.777,10.9307 C2.514,10.8457 2.369,10.5647 2.454,10.3017 C3.092,8.3077 4.402,6.5317 6.142,5.3017 C6.367,5.1407 6.679,5.1957 6.839,5.4207 Z M3.0001,13.3992 C3.0381,15.3152 3.6981,17.1242 4.9071,18.6292 C5.0811,18.8452 5.0461,19.1602 4.8311,19.3332 C4.7381,19.4072 4.6281,19.4432 4.5181,19.4432 C4.3721,19.4432 4.2271,19.3792 4.1281,19.2562 C2.7781,17.5762 2.0421,15.5572 2.0001,13.4192 C1.9951,13.1422 2.2141,12.9152 2.4901,12.9092 C2.8031,12.8682 2.9951,13.1242 3.0001,13.3992 Z M20.2633,17.8289 C20.4933,17.9809 20.5573,18.2909 20.4053,18.5209 C19.2493,20.2709 17.5183,21.6389 15.5323,22.3719 C15.4753,22.3929 15.4163,22.4029 15.3593,22.4029 C15.1563,22.4029 14.9643,22.2779 14.8893,22.0759 C14.7943,21.8169 14.9273,21.5299 15.1853,21.4339 C16.9733,20.7739 18.5313,19.5439 19.5713,17.9709 C19.7223,17.7399 20.0333,17.6749 20.2633,17.8289 Z M12.4093,21.992 C12.6823,21.977 12.9183,22.196 12.9293,22.471 C12.9403,22.748 12.7263,22.98 12.4503,22.992 C12.3003,22.998 12.1493,23.001 11.9983,23.001 C10.0173,23.001 8.1023,22.435 6.4603,21.366 C6.2293,21.216 6.1633,20.906 6.3143,20.675 C6.4653,20.442 6.7743,20.378 7.0063,20.528 C8.5993,21.566 10.5023,22.074 12.4093,21.992 Z M15.5558,4.0008 L12.9998,2.4038 L13.0048,5.5988 L15.5558,4.0008 Z M8.9988,5.0008 C8.7848,5.0008 8.5878,4.8628 8.5208,4.6488 C8.4388,4.3858 8.5868,4.1048 8.8498,4.0228 C9.6328,3.7798 10.6728,3.5008 11.7738,3.5008 L12.0018,3.5008 L11.9988,1.5018 C11.9978,1.3198 12.0968,1.1518 12.2558,1.0628 C12.4148,0.9748 12.6088,0.9798 12.7638,1.0768 L16.7638,3.5768 C16.9098,3.6678 16.9988,3.8278 16.9988,4.0008 C16.9988,4.1728 16.9098,4.3328 16.7638,4.4248 L12.7718,6.9248 C12.6908,6.9758 12.5988,7.0008 12.5068,7.0008 C12.4238,7.0008 12.3398,6.9798 12.2648,6.9388 C12.1058,6.8508 12.0068,6.6838 12.0068,6.5018 L12.0038,4.5008 L11.7738,4.5008 C10.8068,4.5008 9.8618,4.7558 9.1468,4.9788 C9.0978,4.9938 9.0478,5.0008 8.9988,5.0008 Z" id="Arrow" fill="currentColor"></path>
        <path d="M9.3174,10.083 C9.6444,10.083 9.7294,10.297 9.5034,10.581 L7.6004,12.987 L8.4994,12.987 L8.5904,12.462 C8.6374,12.193 8.8054,12.047 9.0714,12.047 L9.4324,12.047 C9.6984,12.047 9.8164,12.193 9.7694,12.462 L9.6774,12.987 L9.8484,12.987 C10.1134,12.987 10.2314,13.134 10.1844,13.403 L10.1364,13.68 C10.0894,13.949 9.9214,14.094 9.6564,14.094 L9.4854,14.094 L9.4134,14.51 C9.3664,14.779 9.1984,14.924 8.9334,14.924 L8.5714,14.924 C8.3064,14.924 8.1884,14.779 8.2354,14.51 L8.3074,14.094 L6.3464,14.094 C6.0814,14.094 5.9634,13.949 6.0104,13.68 L6.0774,13.293 C6.1124,13.092 6.1764,12.953 6.3094,12.78 L8.2204,10.359 C8.3694,10.166 8.5334,10.083 8.7584,10.083 L9.3174,10.083 Z M12.1426,11.5146 C12.0936,11.7986 12.3656,11.9566 12.8016,11.9566 C13.2376,11.9566 13.5646,11.7986 13.6136,11.5146 C13.6606,11.2446 13.3886,11.0856 12.9526,11.0856 C12.5166,11.0856 12.1896,11.2446 12.1426,11.5146 Z M11.7566,13.4236 C11.6976,13.7626 11.9506,13.9146 12.4616,13.9146 C12.9716,13.9146 13.2766,13.7626 13.3356,13.4236 C13.3936,13.0916 13.1426,12.9326 12.6316,12.9326 C12.1206,12.9326 11.8136,13.0916 11.7566,13.4236 Z M14.7796,11.4666 C14.7186,11.8196 14.4846,12.2196 14.1436,12.4206 C14.4396,12.5586 14.6486,12.9676 14.5616,13.4656 C14.3306,14.7926 13.0486,14.9996 12.2726,14.9996 C11.4966,14.9996 10.2856,14.7926 10.5166,13.4656 C10.6036,12.9676 10.9536,12.5586 11.2966,12.4206 C11.0256,12.2196 10.9316,11.8196 10.9936,11.4666 C11.1746,10.4216 12.0916,9.9996 13.1416,9.9996 C14.1886,9.9996 14.9606,10.4216 14.7796,11.4666 Z M17.7798,11.8438 C17.9488,11.8438 18.0238,11.9368 17.9938,12.1088 L17.5508,14.6598 C17.5208,14.8308 17.4138,14.9238 17.2448,14.9238 L17.0158,14.9238 C16.8468,14.9238 16.7718,14.8308 16.8018,14.6598 L16.9568,13.7668 L15.6998,13.7668 L15.5458,14.6598 C15.5148,14.8308 15.4078,14.9238 15.2388,14.9238 L15.0088,14.9238 C14.8408,14.9238 14.7658,14.8308 14.7958,14.6598 L15.2378,12.1088 C15.2678,11.9368 15.3758,11.8438 15.5438,11.8438 L15.7738,11.8438 C15.9428,11.8438 16.0178,11.9368 15.9878,12.1088 L15.8218,13.0638 L17.0788,13.0638 L17.2438,12.1088 C17.2748,11.9368 17.3818,11.8438 17.5508,11.8438 L17.7798,11.8438 Z" id="48H" fill="#EC008C"></path>
        <rect id="Padding" x="0" y="0" width="24" height="24"></rect>
    </g>
</svg>