<?xml version="1.0" encoding="UTF-8"?>
<svg width="24px" height="24px"  version="1.1" xmlns="http://www.w3.org/2000/svg" xmlns:xlink="http://www.w3.org/1999/xlink">
    <!-- Generator: Sketch 52.6 (67491) - http://www.bohemiancoding.com/sketch -->
    <title>Informative/ic_72h_shipping</title>
    <desc>Created with Sketch.</desc>
    <g id="Informative/ic_72h_shipping" stroke="none" stroke-width="1" fill="none" fill-rule="evenodd">
        <path d="M21.4986,12.7254 C21.7746,12.7254 21.9986,12.9494 21.9986,13.2254 C21.9986,14.6034 21.8076,15.2114 21.4706,16.1664 C21.3976,16.3724 21.2046,16.5004 20.9986,16.5004 C20.9436,16.5004 20.8876,16.4924 20.8316,16.4724 C20.5716,16.3804 20.4356,16.0944 20.5266,15.8344 C20.8456,14.9324 20.9986,14.4454 20.9986,13.2254 C20.9986,12.9494 21.2226,12.7254 21.4986,12.7254 Z M6.839,5.4207 C6.999,5.6467 6.945,5.9587 6.719,6.1177 C5.156,7.2247 3.979,8.8177 3.406,10.6067 C3.338,10.8187 3.141,10.9537 2.93,10.9537 C2.88,10.9537 2.828,10.9457 2.777,10.9307 C2.514,10.8457 2.369,10.5647 2.454,10.3017 C3.092,8.3077 4.402,6.5317 6.142,5.3017 C6.367,5.1407 6.679,5.1957 6.839,5.4207 Z M3.0001,13.3992 C3.0381,15.3152 3.6981,17.1242 4.9071,18.6292 C5.0811,18.8452 5.0461,19.1602 4.8311,19.3332 C4.7381,19.4072 4.6281,19.4432 4.5181,19.4432 C4.3721,19.4432 4.2271,19.3792 4.1281,19.2562 C2.7781,17.5762 2.0421,15.5572 2.0001,13.4192 C1.9951,13.1422 2.2141,12.9152 2.4901,12.9092 C2.8031,12.8682 2.9951,13.1242 3.0001,13.3992 Z M20.2633,17.8289 C20.4933,17.9809 20.5573,18.2909 20.4053,18.5209 C19.2493,20.2709 17.5183,21.6389 15.5323,22.3719 C15.4753,22.3929 15.4163,22.4029 15.3593,22.4029 C15.1563,22.4029 14.9643,22.2779 14.8893,22.0759 C14.7943,21.8169 14.9273,21.5299 15.1853,21.4339 C16.9733,20.7739 18.5313,19.5439 19.5713,17.9709 C19.7223,17.7399 20.0333,17.6749 20.2633,17.8289 Z M12.4093,21.992 C12.6823,21.977 12.9183,22.196 12.9293,22.471 C12.9403,22.748 12.7263,22.98 12.4503,22.992 C12.3003,22.998 12.1493,23.001 11.9983,23.001 C10.0173,23.001 8.1023,22.435 6.4603,21.366 C6.2293,21.216 6.1633,20.906 6.3143,20.675 C6.4653,20.442 6.7743,20.378 7.0063,20.528 C8.5993,21.566 10.5023,22.074 12.4093,21.992 Z M15.5558,4.0008 L12.9998,2.4038 L13.0048,5.5988 L15.5558,4.0008 Z M8.9988,5.0008 C8.7848,5.0008 8.5878,4.8628 8.5208,4.6488 C8.4388,4.3858 8.5868,4.1048 8.8498,4.0228 C9.6328,3.7798 10.6728,3.5008 11.7738,3.5008 L12.0018,3.5008 L11.9988,1.5018 C11.9978,1.3198 12.0968,1.1518 12.2558,1.0628 C12.4148,0.9748 12.6088,0.9798 12.7638,1.0768 L16.7638,3.5768 C16.9098,3.6678 16.9988,3.8278 16.9988,4.0008 C16.9988,4.1728 16.9098,4.3328 16.7638,4.4248 L12.7718,6.9248 C12.6908,6.9758 12.5988,7.0008 12.5068,7.0008 C12.4238,7.0008 12.3398,6.9798 12.2648,6.9388 C12.1058,6.8508 12.0068,6.6838 12.0068,6.5018 L12.0038,4.5008 L11.7738,4.5008 C10.8068,4.5008 9.8618,4.7558 9.1468,4.9788 C9.0978,4.9938 9.0478,5.0008 8.9988,5.0008 Z" id="Arrow" fill="currentColor"></path>
        <path d="M10.2354,10.085 C10.5194,10.085 10.6454,10.232 10.5944,10.506 L10.5284,10.872 C10.4914,11.075 10.4224,11.215 10.2734,11.391 L7.4394,14.727 C7.2814,14.916 7.1064,15 6.8664,15 L6.3364,15 C5.9794,15 5.8954,14.782 6.1374,14.494 L8.9194,11.208 L6.6424,11.208 C6.3594,11.208 6.2334,11.061 6.2834,10.787 L6.3354,10.506 C6.3844,10.232 6.5644,10.085 6.8474,10.085 L10.2354,10.085 Z M14.6172,11.6221 C14.2962,13.3851 11.6102,12.9981 11.4722,13.7571 L11.4502,13.8761 L13.6682,13.8761 C13.9512,13.8761 14.0772,14.0241 14.0272,14.2981 L13.9762,14.5791 C13.9262,14.8521 13.7462,15.0001 13.4632,15.0001 L10.4172,15.0001 C10.1332,15.0001 10.0072,14.8521 10.0572,14.5791 L10.1662,13.9821 C10.5312,11.9801 13.2012,12.4921 13.3592,11.6221 C13.4252,11.2641 13.1472,11.1101 12.6972,11.1101 C12.3192,11.1101 12.0022,11.2571 11.7542,11.4181 C11.5072,11.5801 11.3132,11.6011 11.1402,11.4341 L10.9622,11.2571 C10.7832,11.0811 10.7132,10.9481 10.7852,10.8721 C11.0952,10.5691 11.8962,10.0001 12.8852,10.0001 C14.0702,10.0001 14.8152,10.5411 14.6172,11.6221 Z M17.7646,11.8721 C17.9456,11.8721 18.0256,11.9671 17.9936,12.1411 L17.5206,14.7321 C17.4886,14.9061 17.3746,15.0001 17.1946,15.0001 L16.9496,15.0001 C16.7686,15.0001 16.6886,14.9061 16.7206,14.7321 L16.8856,13.8241 L15.5446,13.8241 L15.3786,14.7321 C15.3476,14.9061 15.2336,15.0001 15.0526,15.0001 L14.8076,15.0001 C14.6266,15.0001 14.5466,14.9061 14.5786,14.7321 L15.0516,12.1411 C15.0826,11.9671 15.1986,11.8721 15.3776,11.8721 L15.6236,11.8721 C15.8036,11.8721 15.8836,11.9671 15.8516,12.1411 L15.6756,13.1101 L17.0166,13.1101 L17.1936,12.1411 C17.2256,11.9671 17.3396,11.8721 17.5196,11.8721 L17.7646,11.8721 Z" id="72H" fill="#EC008C"></path>
        <rect id="Padding" x="0" y="0" width="24" height="24"></rect>
    </g>
</svg>