<?xml version="1.0" encoding="UTF-8"?>
<svg width="24px" height="24px"  version="1.1" xmlns="http://www.w3.org/2000/svg" xmlns:xlink="http://www.w3.org/1999/xlink">
    <!-- Generator: Sketch 52.6 (67491) - http://www.bohemiancoding.com/sketch -->
    <title>Informative/ic_24h_shipping</title>
    <desc>Created with Sketch.</desc>
    <g id="Informative/ic_24h_shipping" stroke="none" stroke-width="1" fill="none" fill-rule="evenodd">
        <path d="M21.4986,12.7254 C21.7746,12.7254 21.9986,12.9494 21.9986,13.2254 C21.9986,14.6034 21.8076,15.2114 21.4706,16.1664 C21.3976,16.3724 21.2046,16.5004 20.9986,16.5004 C20.9436,16.5004 20.8876,16.4924 20.8316,16.4724 C20.5716,16.3804 20.4356,16.0944 20.5266,15.8344 C20.8456,14.9324 20.9986,14.4454 20.9986,13.2254 C20.9986,12.9494 21.2226,12.7254 21.4986,12.7254 Z M6.839,5.4207 C6.999,5.6467 6.945,5.9587 6.719,6.1177 C5.156,7.2247 3.979,8.8177 3.406,10.6067 C3.338,10.8187 3.141,10.9537 2.93,10.9537 C2.88,10.9537 2.828,10.9457 2.777,10.9307 C2.514,10.8457 2.369,10.5647 2.454,10.3017 C3.092,8.3077 4.402,6.5317 6.142,5.3017 C6.367,5.1407 6.679,5.1957 6.839,5.4207 Z M3.0001,13.3992 C3.0381,15.3152 3.6981,17.1242 4.9071,18.6292 C5.0811,18.8452 5.0461,19.1602 4.8311,19.3332 C4.7381,19.4072 4.6281,19.4432 4.5181,19.4432 C4.3721,19.4432 4.2271,19.3792 4.1281,19.2562 C2.7781,17.5762 2.0421,15.5572 2.0001,13.4192 C1.9951,13.1422 2.2141,12.9152 2.4901,12.9092 C2.8031,12.8682 2.9951,13.1242 3.0001,13.3992 Z M20.2633,17.8289 C20.4933,17.9809 20.5573,18.2909 20.4053,18.5209 C19.2493,20.2709 17.5183,21.6389 15.5323,22.3719 C15.4753,22.3929 15.4163,22.4029 15.3593,22.4029 C15.1563,22.4029 14.9643,22.2779 14.8893,22.0759 C14.7943,21.8169 14.9273,21.5299 15.1853,21.4339 C16.9733,20.7739 18.5313,19.5439 19.5713,17.9709 C19.7223,17.7399 20.0333,17.6749 20.2633,17.8289 Z M12.4093,21.992 C12.6823,21.977 12.9183,22.196 12.9293,22.471 C12.9403,22.748 12.7263,22.98 12.4503,22.992 C12.3003,22.998 12.1493,23.001 11.9983,23.001 C10.0173,23.001 8.1023,22.435 6.4603,21.366 C6.2293,21.216 6.1633,20.906 6.3143,20.675 C6.4653,20.442 6.7743,20.378 7.0063,20.528 C8.5993,21.566 10.5023,22.074 12.4093,21.992 Z M15.5558,4.0008 L12.9998,2.4038 L13.0048,5.5988 L15.5558,4.0008 Z M8.9988,5.0008 C8.7848,5.0008 8.5878,4.8628 8.5208,4.6488 C8.4388,4.3858 8.5868,4.1048 8.8498,4.0228 C9.6328,3.7798 10.6728,3.5008 11.7738,3.5008 L12.0018,3.5008 L11.9988,1.5018 C11.9978,1.3198 12.0968,1.1518 12.2558,1.0628 C12.4148,0.9748 12.6088,0.9798 12.7638,1.0768 L16.7638,3.5768 C16.9098,3.6678 16.9988,3.8278 16.9988,4.0008 C16.9988,4.1728 16.9098,4.3328 16.7638,4.4248 L12.7718,6.9248 C12.6908,6.9758 12.5988,7.0008 12.5068,7.0008 C12.4238,7.0008 12.3398,6.9798 12.2648,6.9388 C12.1058,6.8508 12.0068,6.6838 12.0068,6.5018 L12.0038,4.5008 L11.7738,4.5008 C10.8068,4.5008 9.8618,4.7558 9.1468,4.9788 C9.0978,4.9938 9.0478,5.0008 8.9988,5.0008 Z" id="Arrow" fill="currentColor"></path>
        <path d="M10.4376,11.6229 C10.1256,13.3859 7.5176,12.9999 7.3826,13.7579 L7.3616,13.8769 L9.5156,13.8769 C9.7916,13.8769 9.9126,14.0239 9.8646,14.2989 L9.8146,14.5789 C9.7656,14.8529 9.5916,15.0009 9.3166,15.0009 L6.3576,15.0009 C6.0826,15.0009 5.9606,14.8529 6.0086,14.5789 L6.1146,13.9819 C6.4696,11.9809 9.0616,12.4939 9.2156,11.6229 C9.2796,11.2649 9.0106,11.1099 8.5726,11.1099 C8.2056,11.1099 7.8966,11.2579 7.6566,11.4199 C7.4156,11.5809 7.2286,11.6019 7.0616,11.4339 L6.8876,11.2579 C6.7136,11.0829 6.6456,10.9489 6.7156,10.8719 C7.0166,10.5689 7.7946,10.0009 8.7546,10.0009 C9.9056,10.0009 10.6286,10.5419 10.4376,11.6229 Z M13.6183,10.0848 C13.9573,10.0848 14.0453,10.3028 13.8113,10.5908 L11.8383,13.0338 L12.7703,13.0338 L12.8653,12.5008 C12.9133,12.2268 13.0883,12.0788 13.3643,12.0788 L13.7383,12.0788 C14.0133,12.0788 14.1363,12.2268 14.0873,12.5008 L13.9923,13.0338 L14.1693,13.0338 C14.4443,13.0338 14.5663,13.1818 14.5173,13.4558 L14.4683,13.7358 C14.4193,14.0108 14.2453,14.1578 13.9703,14.1578 L13.7933,14.1578 L13.7183,14.5788 C13.6703,14.8538 13.4953,15.0008 13.2203,15.0008 L12.8463,15.0008 C12.5703,15.0008 12.4483,14.8538 12.4973,14.5788 L12.5723,14.1578 L10.5383,14.1578 C10.2633,14.1578 10.1403,14.0108 10.1893,13.7358 L10.2593,13.3438 C10.2953,13.1398 10.3623,12.9998 10.4993,12.8238 L12.4813,10.3658 C12.6363,10.1698 12.8063,10.0848 13.0393,10.0848 L13.6183,10.0848 Z M17.7696,11.8729 C17.9446,11.8729 18.0226,11.9679 17.9916,12.1419 L17.5326,14.7319 C17.5016,14.9069 17.3906,15.0009 17.2156,15.0009 L16.9776,15.0009 C16.8016,15.0009 16.7246,14.9069 16.7556,14.7319 L16.9156,13.8259 L15.6126,13.8259 L15.4516,14.7319 C15.4206,14.9069 15.3096,15.0009 15.1346,15.0009 L14.8966,15.0009 C14.7216,15.0009 14.6436,14.9069 14.6746,14.7319 L15.1336,12.1419 C15.1646,11.9679 15.2756,11.8729 15.4506,11.8729 L15.6886,11.8729 C15.8646,11.8729 15.9416,11.9679 15.9116,12.1419 L15.7396,13.1099 L17.0426,13.1099 L17.2146,12.1419 C17.2456,11.9679 17.3556,11.8729 17.5316,11.8729 L17.7696,11.8729 Z" id="24H" fill="#EC008C"></path>
        <rect id="Padding" x="0" y="0" width="24" height="24"></rect>
    </g>
</svg>