<?xml version="1.0" encoding="UTF-8"?>
<svg width="24px" height="24px"  version="1.1" xmlns="http://www.w3.org/2000/svg" xmlns:xlink="http://www.w3.org/1999/xlink">
    <!-- Generator: Sketch 52.6 (67491) - http://www.bohemiancoding.com/sketch -->
    <title>Informative/ic_tips</title>
    <desc>Created with Sketch.</desc>
    <g id="Informative/ic_tips" stroke="none" stroke-width="1" fill="none" fill-rule="evenodd">
        <path d="M15.5322,16.0205 C16.8542,14.8105 18.5002,13.3035 18.5002,10.1075 C18.5002,6.7405 15.5842,3.9995 12.0002,3.9995 C8.4162,3.9995 5.5002,6.7405 5.5002,10.1075 C5.5002,13.3035 7.1452,14.8105 8.4682,16.0205 C8.8362,16.3575 9.1782,16.6735 9.4472,16.9995 L14.5532,16.9995 C14.8222,16.6735 15.1642,16.3575 15.5322,16.0205 Z M14.0002,19.9995 L14.0002,18.3025 C14.0002,18.1985 14.0112,18.0985 14.0302,17.9995 L9.9702,17.9995 C9.9882,18.0985 10.0002,18.1985 10.0002,18.3025 L10.0002,19.9995 C10.0002,20.6915 10.4182,21.9995 12.0002,21.9995 C13.5822,21.9995 14.0002,20.6915 14.0002,19.9995 Z M12.0002,2.9995 C16.1362,2.9995 19.5002,6.1885 19.5002,10.1075 C19.5002,13.7445 17.5182,15.5575 16.2072,16.7575 C15.5322,17.3745 15.0002,17.8625 15.0002,18.3025 L15.0002,19.9995 C15.0002,21.4915 13.9702,22.9995 12.0002,22.9995 C10.0302,22.9995 9.0002,21.4915 9.0002,19.9995 L9.0002,18.3025 C9.0002,17.8625 8.4682,17.3745 7.7932,16.7575 C6.4812,15.5575 4.5002,13.7445 4.5002,10.1075 C4.5002,6.1885 7.8642,2.9995 12.0002,2.9995 Z M7,11 C7,7.813 9.103,5.5 12,5.5 L12,6.5 C9.645,6.5 8,8.351 8,11 L7,11 Z M4.8535,4.8535 C4.7555,4.9515 4.6275,4.9995 4.4995,4.9995 C4.3725,4.9995 4.2445,4.9515 4.1465,4.8535 L2.1465,2.8535 C1.9515,2.6585 1.9515,2.3415 2.1465,2.1465 C2.3415,1.9515 2.6585,1.9515 2.8535,2.1465 L4.8535,4.1465 C5.0485,4.3415 5.0485,4.6585 4.8535,4.8535 Z M21.8535,2.1465 C22.0485,2.3415 22.0485,2.6585 21.8535,2.8535 L19.8535,4.8535 C19.7555,4.9515 19.6275,5.0005 19.4995,5.0005 C19.3725,5.0005 19.2445,4.9515 19.1465,4.8535 C18.9515,4.6585 18.9515,4.3415 19.1465,4.1465 L21.1465,2.1465 C21.3415,1.9515 21.6585,1.9515 21.8535,2.1465 Z M3,9.5 C3,9.776 2.776,10 2.5,10 L0.5,10 C0.224,10 0,9.776 0,9.5 C0,9.224 0.224,9 0.5,9 L2.5,9 C2.776,9 3,9.224 3,9.5 Z M23.5,9 C23.776,9 24,9.224 24,9.5 C24,9.776 23.776,10 23.5,10 L21.5,10 C21.224,10 21,9.776 21,9.5 C21,9.224 21.224,9 21.5,9 L23.5,9 Z M3.1465,14.1465 C3.3415,13.9515 3.6585,13.9515 3.8535,14.1465 C4.0485,14.3415 4.0485,14.6585 3.8535,14.8535 L1.8535,16.8535 C1.7555,16.9515 1.6275,17.0005 1.5005,17.0005 C1.3725,17.0005 1.2445,16.9515 1.1465,16.8535 C0.9515,16.6585 0.9515,16.3415 1.1465,16.1465 L3.1465,14.1465 Z M20.8535,14.1465 L22.8535,16.1465 C23.0485,16.3415 23.0485,16.6585 22.8535,16.8535 C22.7555,16.9515 22.6275,17.0005 22.4995,17.0005 C22.3725,17.0005 22.2445,16.9515 22.1465,16.8535 L20.1465,14.8535 C19.9515,14.6585 19.9515,14.3415 20.1465,14.1465 C20.3415,13.9515 20.6585,13.9515 20.8535,14.1465 Z" id="ic_tips" fill="currentColor"></path>
        <rect id="Padding" x="0" y="0" width="24" height="24"></rect>
    </g>
</svg>