<?xml version="1.0" encoding="UTF-8"?>
<svg width="24px" height="24px"  version="1.1" xmlns="http://www.w3.org/2000/svg" xmlns:xlink="http://www.w3.org/1999/xlink">
    <!-- Generator: Sketch 52.6 (67491) - http://www.bohemiancoding.com/sketch -->
    <title>Informative/ic_use_store</title>
    <desc>Created with Sketch.</desc>
    <g id="Informative/ic_use_store" stroke="none" stroke-width="1" fill="none" fill-rule="evenodd">
        <path d="M5.9987,15.5 L5.9987,17.5 C5.9987,17.776 6.2227,18 6.4987,18 L9.4987,18 C9.7747,18 9.9987,17.776 9.9987,17.5 L9.9987,15.5 C9.9987,15.224 9.7747,15 9.4987,15 L6.4987,15 C6.2227,15 5.9987,15.224 5.9987,15.5 Z M6.4987,19 C5.6717,19 4.9987,18.327 4.9987,17.5 L4.9987,15.5 C4.9987,14.673 5.6717,14 6.4987,14 L9.4987,14 C10.3257,14 10.9987,14.673 10.9987,15.5 L10.9987,17.5 C10.9987,18.327 10.3257,19 9.4987,19 L6.4987,19 Z M17.9987,21 L17.9987,15 L13.9987,15 L13.9987,21 L17.9987,21 Z M20.0027,12 C20.3707,12 20.6947,11.956 20.9987,11.89 L20.9987,20.396 C20.9987,21.28 20.2847,22 19.4077,22 L18.9987,22 L17.9987,22 L13.9987,22 L12.9987,22 L4.5897,22 C3.7127,22 2.9987,21.28 2.9987,20.396 L2.9987,11.885 C3.3027,11.95 3.6267,11.994 3.9947,11.994 L3.9987,11.994 L3.9987,20.396 C3.9987,20.729 4.2637,21 4.5897,21 L12.9987,21 L12.9987,14.889 C12.9987,14.398 13.4257,14 13.9507,14 L18.0467,14 C18.5717,14 18.9987,14.398 18.9987,14.889 L18.9987,21 L19.4077,21 C19.7337,21 19.9987,20.729 19.9987,20.396 L19.9987,12 L20.0027,12 Z" id="House" fill="currentColor"></path>
        <path d="M17.2179,9.002 C17.4419,9.002 17.6399,9.149 17.6999,9.367 C17.7179,9.431 18.1909,11 20.0029,11 C20.8559,11 21.4409,10.794 21.7409,10.388 C22.1839,9.788 21.9219,8.879 21.9189,8.87 L20.2369,3.354 C20.1729,3.146 19.9759,3 19.7589,3 L4.2389,3 C4.0209,3 3.8239,3.146 3.7609,3.354 L2.0779,8.869 C2.0759,8.877 1.8119,9.787 2.2579,10.386 C2.5579,10.79 3.1429,10.994 3.9949,10.994 C5.8099,10.994 6.2999,9.426 6.3199,9.36 C6.3869,9.134 6.5999,8.981 6.8359,9.003 C7.0699,9.02 7.2609,9.196 7.2949,9.429 C7.3199,9.586 7.5959,10.994 9.3989,10.994 C10.8759,10.994 11.3999,9.829 11.5019,9.557 L11.5049,9.482 C11.5129,9.235 11.7009,9.032 11.9459,9.003 C12.1839,8.97 12.4209,9.129 12.4859,9.368 C12.5049,9.432 12.9689,10.996 14.5979,10.996 C16.4059,10.996 16.6969,9.582 16.7239,9.42 C16.7629,9.189 16.9579,9.014 17.1929,9.002 C17.2009,9.002 17.2099,9.002 17.2179,9.002 M20.0029,12 C18.6629,12 17.7829,11.351 17.2679,10.671 C16.8119,11.354 15.9799,11.996 14.5979,11.996 C13.3519,11.996 12.5219,11.344 12.0309,10.664 C11.5489,11.329 10.6989,11.994 9.3989,11.994 C8.0169,11.994 7.1899,11.352 6.7389,10.669 C6.2179,11.347 5.3329,11.994 3.9949,11.994 C2.8049,11.994 1.9489,11.651 1.4499,10.976 C0.7059,9.967 1.1049,8.632 1.1219,8.576 L2.8049,3.062 C2.9979,2.427 3.5739,2 4.2389,2 L19.7589,2 C20.4229,2 20.9999,2.427 21.1929,3.063 L22.8749,8.577 C22.8919,8.633 23.2919,9.971 22.5459,10.982 C22.0469,11.657 21.1909,12 20.0029,12" id="Roof" fill="#EC008C"></path>
        <rect id="Padding" x="0" y="0" width="24" height="24"></rect>
    </g>
</svg>