<?xml version="1.0" encoding="UTF-8"?>
<svg width="24px" height="24px"  version="1.1" xmlns="http://www.w3.org/2000/svg" xmlns:xlink="http://www.w3.org/1999/xlink">
    <!-- Generator: Sketch 52.6 (67491) - http://www.bohemiancoding.com/sketch -->
    <title>Informative/ic_vp</title>
    <desc>Created with Sketch.</desc>
    <g id="Informative/ic_vp" stroke="none" stroke-width="1" fill="none" fill-rule="evenodd">
        <path d="M10.2354,7 L12.4704,7 L8.1764,14.427 L6.2944,14.427 L2.0004,7 L4.2354,7 C4.2354,7 6.7644,11.386 7.2354,12.205 C7.7064,11.386 10.2354,7 10.2354,7 Z M20,11.3271 L20,10.0411 C20,9.5151 19.883,9.1641 19.588,8.9881 C19.412,8.8711 19.059,8.7541 18.294,8.7541 L16.059,8.7541 C15.294,8.7541 14.941,8.9301 14.765,9.0471 C14.471,9.2231 14.353,9.5731 14.353,10.0991 L14.353,11.3271 C14.353,11.8531 14.529,12.2051 14.765,12.3801 C14.941,12.4971 15.294,12.6141 16.059,12.6141 L18.294,12.6141 C19.059,12.6141 19.412,12.4971 19.588,12.3801 C19.883,12.2051 20,11.8531 20,11.3271 Z M20.706,7.5261 C21.588,8.0531 22,8.8711 22,10.0411 L22,11.5031 C22,12.6141 21.588,13.4911 20.706,13.9591 C20.059,14.3091 19.177,14.4851 17.941,14.4851 L16.294,14.4851 C15.529,14.4851 14.883,14.4271 14.353,14.2521 L14.353,17.0001 L12.353,17.0001 L12.353,10.7421 L12.353,10.4501 L12.353,10.0411 C12.353,8.9301 12.765,8.0531 13.588,7.5851 C14.235,7.1761 15.117,7.0001 16.294,7.0001 L17.941,7.0001 C19.177,7.0001 20.059,7.1761 20.706,7.5261 Z" id="vp" fill="currentColor"></path>
        <rect id="Padding" x="0" y="0" width="24" height="24"></rect>
    </g>
</svg>