<?xml version="1.0" encoding="UTF-8"?>
<svg width="24px" height="24px"  version="1.1" xmlns="http://www.w3.org/2000/svg" xmlns:xlink="http://www.w3.org/1999/xlink">
    <!-- Generator: Sketch 52.6 (67491) - http://www.bohemiancoding.com/sketch -->
    <title>Informative/ic_wine_waiter_review</title>
    <desc>Created with Sketch.</desc>
    <g id="Informative/ic_wine_waiter_review" stroke="none" stroke-width="1" fill="none" fill-rule="evenodd">
        <path d="M10.195296,12.0696959 C10.8020156,11.2767926 11.1516083,10.4009389 11.2036409,9.458 C11.2321115,8.96218704 11.1641595,8.46791296 11.0640213,7.99892755 L3.99788778,7.99892755 C3.99788778,7.99892755 6.41066174,13.8393209 10.0264355,12.1958848 C10.0873038,12.1571339 10.1383547,12.1124213 10.195296,12.0696959 Z" id="Wine" fill="#EC008C"></path>
        <path d="M14.1708,15.317 L15.5888,15.192 L15.5188,15.533 C15.2088,15.488 14.7238,15.409 14.1708,15.317 M18.3158,19.489 C17.6318,19.489 16.8668,19.021 15.9808,18.479 C14.5978,17.632 12.8758,16.579 10.3998,16.579 C9.3878,16.579 9.3878,16.371 9.3878,16.109 C9.3878,15.963 9.4098,15.772 9.5178,15.686 C9.5958,15.624 9.7218,15.604 9.8438,15.604 C9.9388,15.604 10.0298,15.616 10.0948,15.631 C10.2588,15.66 14.1308,16.34 15.3738,16.523 C15.6488,16.563 15.9388,16.487 16.1598,16.315 C16.3828,16.141 16.5258,15.88 16.5548,15.598 L16.5838,15.29 C16.6148,14.984 16.5058,14.685 16.2848,14.47 C16.0648,14.255 15.7628,14.153 15.4738,14.189 L10.7998,14.61 L10.5708,14.155 C12.0308,13.725 15.8728,12.608 17.1798,12.373 C17.3668,12.34 17.5638,12.363 17.7468,12.442 C18.4998,12.763 20.0668,13.443 20.8418,13.78 C20.9378,13.822 20.9988,13.918 20.9988,14.023 L21.0008,18.736 C20.9998,18.744 20.7848,19.489 18.3158,19.489 M12.3548,18.949 L11.8278,17.721 C12.5988,17.874 13.2798,18.136 13.9018,18.445 C13.4918,18.527 12.9878,18.681 12.3548,18.949 M5.2608,11.63 C3.6698,10.063 3.0648,7.635 3.0038,6.667 L9.0438,4.102 C9.6618,4.839 11.3318,7.067 11.1958,9.458 C11.1198,10.785 10.4848,11.976 9.3118,13 L8.8088,13 L8.8258,13.043 C7.4398,13.072 6.2448,12.599 5.2608,11.63 M21.2408,12.864 C20.4628,12.525 18.8948,11.844 18.1388,11.522 C17.7758,11.367 17.3828,11.321 17.0038,11.389 C15.7278,11.617 12.2988,12.605 10.6378,13.093 C11.5918,12.036 12.1188,10.838 12.1938,9.515 C12.3848,6.172 9.6578,3.276 9.5418,3.155 C9.3988,3.003 9.1728,2.959 8.9848,3.04 L2.3118,5.874 C2.1448,5.945 2.0278,6.101 2.0098,6.281 C1.9128,7.196 2.5288,10.343 4.5588,12.342 C5.7108,13.478 7.0998,14.05 8.6958,14.05 C8.8708,14.05 9.0528,14.03 9.2338,14.017 L9.4958,14.647 C9.2978,14.685 9.0908,14.751 8.9028,14.897 C8.6678,15.081 8.3878,15.44 8.3878,16.109 C8.3878,17.579 9.8498,17.579 10.3998,17.579 C10.4998,17.579 10.5908,17.59 10.6878,17.594 L11.4208,19.348 C11.1028,19.494 8.7098,20.631 9.1218,21.603 L15.0518,19.085 C15.1898,19.168 15.3258,19.25 15.4588,19.332 C16.4738,19.953 17.3508,20.489 18.3158,20.489 C21.8208,20.489 21.9988,19.063 21.9988,18.776 L21.9988,14.023 C21.9988,13.52 21.7018,13.065 21.2408,12.864" id="Glass" fill="currentColor"></path>
        <rect id="Padding" x="0" y="0" width="24" height="24"></rect>
    </g>
</svg>