<?xml version="1.0" encoding="UTF-8"?>
<svg width="24px" height="24px"  version="1.1" xmlns="http://www.w3.org/2000/svg" xmlns:xlink="http://www.w3.org/1999/xlink">
    <!-- Generator: Sketch 52.6 (67491) - http://www.bohemiancoding.com/sketch -->
    <title>Sponsorship/ic_premium_privalia</title>
    <desc>Created with Sketch.</desc>
    <g id="Sponsorship/ic_premium_privalia" stroke="none" stroke-width="1" fill="none" fill-rule="evenodd">
        <path d="M16.1719,7 L17.2229,3.495 L20.3779,7 L16.1719,7 Z M15.8869,8 L20.5559,8 L12.9999,19.136 L15.8869,8 Z M8.1129,8 L10.9999,19.136 L3.4439,8 L8.1129,8 Z M8.6819,6.368 L7.6719,3 L11.0399,3 L8.6819,6.368 Z M12.9599,3 L16.3279,3 L15.3179,6.368 L12.9599,3 Z M9.4599,7 L11.9999,3.372 L14.5399,7 L9.4599,7 Z M14.8539,8 L11.9999,19.008 L9.1469,8 L14.8539,8 Z M6.7769,3.495 L7.8279,7 L3.6219,7 L6.7769,3.495 Z M21.9999,7.5 C21.9999,7.492 21.9959,7.486 21.9959,7.479 C21.9949,7.465 21.9889,7.453 21.9879,7.439 C21.9759,7.345 21.9399,7.259 21.8819,7.188 C21.8759,7.182 21.8779,7.172 21.8719,7.165 L17.3719,2.165 C17.3629,2.156 17.3519,2.152 17.3429,2.144 C17.3169,2.119 17.2869,2.101 17.2559,2.081 C17.2289,2.064 17.2019,2.048 17.1719,2.037 C17.1619,2.033 17.1539,2.024 17.1439,2.021 C17.1179,2.014 17.0929,2.018 17.0679,2.015 C17.0449,2.011 17.0239,2 16.9999,2 L6.9999,2 C6.9769,2 6.9549,2.011 6.9319,2.015 C6.9059,2.018 6.8819,2.014 6.8569,2.021 C6.8459,2.024 6.8379,2.033 6.8279,2.037 C6.7979,2.048 6.7719,2.064 6.7439,2.081 C6.7129,2.101 6.6839,2.119 6.6569,2.144 C6.6489,2.152 6.6369,2.156 6.6279,2.165 L2.1279,7.165 C2.1219,7.172 2.1239,7.182 2.1179,7.188 C2.0609,7.259 2.0249,7.345 2.0119,7.439 C2.0109,7.453 2.0049,7.465 2.0039,7.479 C2.0039,7.486 1.9999,7.492 1.9999,7.5 C1.9999,7.595 2.0329,7.678 2.0779,7.753 C2.0839,7.762 2.0799,7.772 2.0859,7.78 L11.5859,21.78 C11.6799,21.918 11.8339,22 11.9999,22 C12.1659,22 12.3199,21.918 12.4139,21.78 L21.9139,7.78 C21.9199,7.772 21.9159,7.762 21.9219,7.753 C21.9669,7.678 21.9999,7.595 21.9999,7.5 Z" id="ic_premium_privalia" fill="#D1994C"></path>
        <rect id="Padding" x="0" y="0" width="24" height="24"></rect>
    </g>
</svg>
