<?xml version="1.0" encoding="UTF-8"?>
<svg width="24px" height="24px"  version="1.1" xmlns="http://www.w3.org/2000/svg" xmlns:xlink="http://www.w3.org/1999/xlink">
    <!-- Generator: Sketch 52.6 (67491) - http://www.bohemiancoding.com/sketch -->
    <title>Social/ic_android</title>
    <desc>Created with Sketch.</desc>
    <g id="Social/ic_android" stroke="none" stroke-width="1" fill="none" fill-rule="evenodd">
        <path d="M17.9021208,8.84310653 C18.5065956,8.84310653 18.9985751,9.34258572 18.9985751,9.95606016 L18.9985751,14.5938669 C18.9985751,15.2073414 18.5065956,15.7068205 17.9021208,15.7068205 C17.2976459,15.7068205 16.8041665,15.2073414 16.8041665,14.5938669 L16.8041665,9.95606016 C16.8041665,9.34258572 17.2976459,8.84310653 17.9021208,8.84310653 Z M5.09685431,8.84310653 C5.70132913,8.84310653 6.19480857,9.34258572 6.19480857,9.95606016 L6.19480857,14.5938669 C6.19480857,15.2073414 5.70132913,15.7068205 5.09685431,15.7068205 C4.4923795,15.7068205 4.0004,15.2073414 4.0004,14.5938669 L4.0004,9.95606016 C4.0004,9.34258572 4.4923795,8.84310653 5.09685431,8.84310653 Z M13.7595934,6.82464063 C13.9830841,6.82464063 14.1675764,6.63864838 14.1675764,6.41065788 C14.1675764,6.18116744 13.9830841,5.99517519 13.7595934,5.99517519 C13.5346027,5.99517519 13.3501104,6.18116744 13.3501104,6.41065788 C13.3501104,6.63864838 13.5346027,6.82464063 13.7595934,6.82464063 Z M9.23878173,6.82464063 C9.4652723,6.82464063 9.64976461,6.63864838 9.64976461,6.41065788 C9.64976461,6.18116744 9.4652723,5.99517519 9.23878173,5.99517519 C9.01529105,5.99517519 8.83079873,6.18116744 8.83079873,6.41065788 C8.83079873,6.63864838 9.01529105,6.82464063 9.23878173,6.82464063 Z M13.9005875,4.65273113 C15.3870256,5.43719844 16.3934836,6.92813632 16.3949836,8.64106495 L6.60339154,8.64106495 C6.60489148,6.92813632 7.61134954,5.43719844 9.09928755,4.65273113 L8.3253198,3.23379025 C8.28332154,3.15879338 8.31032042,3.06129744 8.3853173,3.02079913 C8.46181411,2.97880087 8.55631017,3.00579975 8.59830842,3.08229656 L9.3812758,4.51473688 C10.0217491,4.22524894 10.7402192,4.06325569 11.4991876,4.06325569 C12.2581559,4.06325569 12.9781259,4.22524894 13.6170993,4.51473688 L14.4015666,3.08229656 C14.4285655,3.02979875 14.4825632,2.9998 14.5380609,2.9998 C14.5635599,2.9998 14.5890588,3.00579975 14.6130578,3.02079913 C14.6880547,3.06129744 14.7165535,3.15879338 14.6730553,3.23379025 L13.9005875,4.65273113 Z M6.60414151,16.2299987 L6.60414151,9.0332986 L16.3942336,9.0332986 L16.3942336,16.2299987 C16.3942336,16.8929711 15.8662556,17.4314487 15.2107829,17.4314487 L14.4263156,17.4314487 L14.4263156,19.8868464 C14.4263156,20.5003208 13.9343361,20.9998 13.3283613,20.9998 C12.7238865,20.9998 12.2304071,20.5003208 12.2304071,19.8868464 L12.2304071,17.4314487 L10.767968,17.4314487 L10.767968,19.8868464 C10.767968,20.5003208 10.2744886,20.9998 9.67001377,20.9998 C9.06553895,20.9998 8.57205951,20.5003208 8.57205951,19.8868464 L8.57205951,17.4314487 L7.7875922,17.4314487 C7.13361945,17.4314487 6.60414151,16.8929711 6.60414151,16.2299987 Z" id="ic_android" fill="currentColor"></path>
        <rect id="Padding" x="0" y="0" width="24" height="24"></rect>
    </g>
</svg>
