<?xml version="1.0" encoding="UTF-8"?>
<svg width="24px" height="24px"  version="1.1" xmlns="http://www.w3.org/2000/svg" xmlns:xlink="http://www.w3.org/1999/xlink">
    <!-- Generator: Sketch 52.6 (67491) - http://www.bohemiancoding.com/sketch -->
    <title>Social/ic_blog</title>
    <desc>Created with Sketch.</desc>
    <g id="Social/ic_blog" stroke="none" stroke-width="1" fill="none" fill-rule="evenodd">
        <path d="M5.99530215,15.9999936 C7.09930155,15.9967936 7.99690107,16.8911931 8.00010107,17.9935925 C8.00330107,19.0991919 7.11210155,19.9951914 6.00810214,19.9999914 C4.90410273,20.0047914 4.00490321,19.1119919 4.00010322,18.0095925 C3.99690322,16.9023931 4.88970274,16.0047936 5.99530215,15.9999936 Z M14.6656975,19.9999914 L11.5392992,19.9999914 C11.5392992,15.8351937 8.16330098,12.4591955 4.00010322,12.4591955 L4.00010322,9.33279714 C9.89130006,9.33279714 14.6656975,14.1087946 14.6656975,19.9999914 Z M16.8000964,19.9999914 C16.7968964,12.9311952 11.0672994,7.20319828 4.00010322,7.19999828 L4.00010322,4 C12.8368985,4 20.0000946,11.1647962 20.0000946,19.9999914 L16.8000964,19.9999914 Z" id="ic_blog" fill="currentColor"></path>
        <rect id="Padding" x="0" y="0" width="24" height="24"></rect>
    </g>
</svg>