<?xml version="1.0" encoding="UTF-8"?>
<svg width="24px" height="24px"  version="1.1" xmlns="http://www.w3.org/2000/svg" xmlns:xlink="http://www.w3.org/1999/xlink">
    <!-- Generator: Sketch 52.6 (67491) - http://www.bohemiancoding.com/sketch -->
    <title>Social/ic_instagram</title>
    <desc>Created with Sketch.</desc>
    <g id="Social/ic_instagram" stroke="none" stroke-width="1" fill="none" fill-rule="evenodd">
        <path d="M19.3258,15.6373 C19.3693,14.6878 19.3783,14.4028 19.3783,11.9998 C19.3783,9.5968 19.3693,9.3118 19.3258,8.3623 C19.2868,7.4848 19.1398,7.0093 19.0168,6.6913 C18.8533,6.2728 18.6583,5.9728 18.3433,5.6578 C18.0283,5.3428 17.7283,5.1478 17.3083,4.9828 C16.9903,4.8598 16.5148,4.7143 15.6373,4.6738 C14.6878,4.6303 14.4028,4.6213 11.9998,4.6213 C9.5983,4.6213 9.3118,4.6303 8.3623,4.6738 C7.4848,4.7143 7.0093,4.8598 6.6913,4.9828 C6.2728,5.1478 5.9728,5.3428 5.6578,5.6578 C5.3428,5.9728 5.1478,6.2728 4.9828,6.6913 C4.8598,7.0093 4.7143,7.4848 4.6738,8.3623 C4.6303,9.3118 4.6213,9.5968 4.6213,11.9998 C4.6213,14.4028 4.6303,14.6878 4.6738,15.6373 C4.7143,16.5148 4.8598,16.9903 4.9828,17.3083 C5.1478,17.7283 5.3428,18.0283 5.6578,18.3433 C5.9728,18.6583 6.2728,18.8533 6.6913,19.0168 C7.0093,19.1398 7.4848,19.2868 8.3623,19.3258 C9.3118,19.3693 9.5968,19.3783 11.9998,19.3783 C14.4043,19.3783 14.6878,19.3693 15.6373,19.3258 C16.5148,19.2868 16.9903,19.1398 17.3083,19.0168 C17.7283,18.8533 18.0283,18.6583 18.3433,18.3433 C18.6583,18.0283 18.8533,17.7283 19.0168,17.3083 C19.1398,16.9903 19.2868,16.5148 19.3258,15.6373 Z M20.9458,8.2903 C20.9893,9.2488 20.9998,9.5548 20.9998,11.9998 C20.9998,14.4448 20.9893,14.7508 20.9458,15.7108 C20.9023,16.6678 20.7493,17.3233 20.5273,17.8963 C20.2963,18.4873 19.9888,18.9883 19.4893,19.4893 C18.9883,19.9888 18.4873,20.2963 17.8963,20.5273 C17.3233,20.7493 16.6693,20.9023 15.7108,20.9458 C14.7508,20.9893 14.4448,20.9998 11.9998,20.9998 C9.5548,20.9998 9.2488,20.9893 8.2903,20.9458 C7.3318,20.9023 6.6763,20.7493 6.1048,20.5273 C5.5123,20.2963 5.0113,19.9888 4.5103,19.4893 C4.0108,18.9883 3.7033,18.4873 3.4738,17.8963 C3.2503,17.3233 3.0988,16.6678 3.0538,15.7108 C3.0103,14.7508 2.9998,14.4448 2.9998,11.9998 C2.9998,9.5548 3.0103,9.2488 3.0538,8.2903 C3.0988,7.3318 3.2503,6.6763 3.4738,6.1048 C3.7033,5.5123 4.0108,5.0113 4.5103,4.5103 C5.0113,4.0108 5.5123,3.7033 6.1048,3.4738 C6.6763,3.2503 7.3318,3.0988 8.2903,3.0538 C9.2488,3.0103 9.5548,2.9998 11.9998,2.9998 C14.4448,2.9998 14.7508,3.0103 15.7108,3.0538 C16.6693,3.0988 17.3233,3.2503 17.8963,3.4738 C18.4873,3.7033 18.9883,4.0108 19.4893,4.5103 C19.9888,5.0113 20.2963,5.5123 20.5273,6.1048 C20.7493,6.6763 20.9023,7.3318 20.9458,8.2903 Z M12.0001,15.0001 C13.6561,15.0001 15.0001,13.6561 15.0001,12.0001 C15.0001,10.3441 13.6561,9.0001 12.0001,9.0001 C10.3441,9.0001 9.0001,10.3441 9.0001,12.0001 C9.0001,13.6561 10.3441,15.0001 12.0001,15.0001 Z M12.0001,7.3786 C14.5516,7.3786 16.6216,9.4486 16.6216,12.0001 C16.6216,14.5516 14.5516,16.6216 12.0001,16.6216 C9.4486,16.6216 7.3786,14.5516 7.3786,12.0001 C7.3786,9.4486 9.4486,7.3786 12.0001,7.3786 Z M16.80475,6.11575 C17.40025,6.11575 17.88475,6.59875 17.88475,7.19575 C17.88475,7.79275 17.40025,8.27575 16.80475,8.27575 C16.20775,8.27575 15.72325,7.79275 15.72325,7.19575 C15.72325,6.59875 16.20775,6.11575 16.80475,6.11575 Z" id="ic_instagram" fill="currentColor"></path>
        <rect id="Padding" x="0" y="0" width="24" height="24"></rect>
    </g>
</svg>
