<?xml version="1.0" encoding="UTF-8"?>
<svg width="24px" height="24px"  version="1.1" xmlns="http://www.w3.org/2000/svg" xmlns:xlink="http://www.w3.org/1999/xlink">
    <!-- Generator: Sketch 52.6 (67491) - http://www.bohemiancoding.com/sketch -->
    <title>Social/ic_snapchat</title>
    <desc>Created with Sketch.</desc>
    <g id="Social/ic_snapchat" stroke="none" stroke-width="1" fill="none" fill-rule="evenodd">
        <path d="M12.113951,21 C12.0666422,21 12.0210231,20.9982 11.9754039,20.9964 C11.9466808,20.9982 11.916268,21 11.8858553,21 C10.8197191,21 10.1354321,20.4852 9.47310981,19.9866 C9.01691844,19.641 8.58607104,19.317 8.07750214,19.227 C7.82913129,19.1838 7.58245003,19.1622 7.34421676,19.1622 C6.91336935,19.1622 6.57544982,19.2324 6.32707897,19.2828 C6.17670477,19.3134 6.04829535,19.3422 5.94860909,19.3422 C5.84554363,19.3422 5.73403019,19.317 5.68503186,19.1424 C5.64279191,18.9894 5.61237916,18.84 5.583656,18.6978 C5.5076241,18.3288 5.45524657,18.102 5.30994118,18.0768 C3.61865392,17.7996 3.13373939,17.4198 3.02560514,17.1498 C3.01039876,17.112 3.00195077,17.0724 3.00026117,17.0346 C2.99519238,16.932 3.06446589,16.8402 3.15908335,16.824 C5.75937415,16.3686 6.92519654,13.5372 6.97419487,13.4166 C6.97419487,13.413 6.97588447,13.4094 6.97757407,13.4058 C7.13639625,13.0638 7.1684986,12.765 7.07050194,12.5202 C6.89309418,12.072 6.31018299,11.8758 5.92495472,11.7444 C5.83033725,11.7138 5.74247818,11.6832 5.67151507,11.6544 C4.90274814,11.3304 4.83854343,10.9974 4.86895619,10.8282 C4.91964412,10.5384 5.28290761,10.3386 5.57520801,10.3386 C5.6546191,10.3386 5.7255822,10.353 5.78471812,10.3836 C6.13108564,10.5546 6.44366121,10.6428 6.71230723,10.6428 C7.08232912,10.6428 7.24622009,10.4754 7.26480567,10.4556 C7.25635768,10.2666 7.2445305,10.0722 7.23270331,9.8688 C7.15498182,8.5602 7.05867475,6.933 7.44728221,6.0042 C8.6131046,3.2196 11.084986,3.0036 11.8148922,3.0036 C11.8334777,3.0036 12.1342261,3 12.1342261,3 L12.1781557,3 C12.9097514,3 15.3867016,3.216 16.552524,6.0024 C16.9411315,6.933 16.8448244,8.5602 16.7671029,9.8688 L16.7637237,9.9264 C16.7535861,10.1082 16.7434485,10.2846 16.7350006,10.4556 C16.7535861,10.4736 16.9022707,10.6266 17.2401903,10.641 C17.4953195,10.6302 17.7893095,10.5438 18.1120226,10.3836 C18.2066401,10.335 18.3113952,10.326 18.3840479,10.326 C18.4921821,10.326 18.6036956,10.3494 18.6966234,10.389 L18.7016922,10.3908 C18.9635799,10.4898 19.1342292,10.686 19.1376084,10.8894 C19.1409876,11.0802 19.0041302,11.3682 18.3282911,11.6544 C18.2590176,11.6832 18.169469,11.7138 18.0748515,11.7444 C17.6896232,11.8758 17.1084016,12.072 16.9293043,12.5202 C16.8313076,12.765 16.86341,13.062 17.0222322,13.4058 C17.0239218,13.4094 17.0256113,13.413 17.0256113,13.4166 C17.0746097,13.5372 18.2387425,16.3668 20.8407229,16.824 C20.9370299,16.8384 21.0063034,16.9302 20.999545,17.0346 C20.9978554,17.0724 20.9894075,17.1138 20.9742011,17.1498 C20.8660668,17.418 20.3828419,17.7978 18.6915546,18.075 C18.5530076,18.0984 18.4989405,18.2892 18.4161502,18.6924 C18.3857375,18.84 18.3553247,18.9822 18.3130848,19.1334 C18.2776032,19.2648 18.2015713,19.326 18.0714723,19.326 L18.0511971,19.326 C17.9616485,19.326 17.8349286,19.3098 17.6727273,19.2756 C17.3871852,19.2162 17.0644721,19.1622 16.6555895,19.1622 C16.4173562,19.1622 16.1706749,19.1838 15.9223041,19.227 C15.4154248,19.317 14.9845774,19.641 14.528386,19.9866 C13.8643741,20.4852 13.1800871,21 12.113951,21" id="ic_snapchat" fill="currentColor"></path>
        <rect id="Padding" x="0" y="0" width="24" height="24"></rect>
    </g>
</svg>
