<?xml version="1.0" encoding="UTF-8"?>
<svg width="24px" height="24px"  version="1.1" xmlns="http://www.w3.org/2000/svg" xmlns:xlink="http://www.w3.org/1999/xlink">
    <!-- Generator: Sketch 52.6 (67491) - http://www.bohemiancoding.com/sketch -->
    <title>Social/ic_twitter</title>
    <desc>Created with Sketch.</desc>
    <g id="Social/ic_twitter" stroke="none" stroke-width="1" fill="none" fill-rule="evenodd">
        <path d="M8.2896,20 C15.8366,20 19.9646,13.844 19.9646,8.505 C19.9646,8.33 19.9646,8.156 19.9526,7.983 C20.7556,7.411 21.4496,6.703 21.9996,5.892 C21.2506,6.219 20.4566,6.433 19.6436,6.527 C20.4996,6.022 21.1416,5.229 21.4476,4.293 C20.6416,4.764 19.7606,5.095 18.8416,5.273 C17.2876,3.646 14.6886,3.568 13.0356,5.098 C11.9706,6.085 11.5186,7.555 11.8486,8.958 C8.5496,8.795 5.4756,7.261 3.3926,4.737 C2.3026,6.583 2.8596,8.944 4.6626,10.13 C4.0096,10.111 3.3706,9.937 2.7996,9.624 L2.7996,9.676 C2.8006,11.599 4.1776,13.255 6.0916,13.636 C5.4876,13.798 4.8536,13.821 4.2396,13.705 C4.7766,15.351 6.3176,16.479 8.0726,16.511 C6.6196,17.635 4.8246,18.245 2.9766,18.243 C2.6506,18.243 2.3246,18.224 1.9996,18.186 C3.8766,19.371 6.0606,20 8.2896,19.997" id="ic_twitter" fill="currentColor"></path>
        <rect id="Padding" x="0" y="0" width="24" height="24"></rect>
    </g>
</svg>